<svg width="52" height="52" viewBox="0 0 52 52" fill="none" xmlns="http://www.w3.org/2000/svg">
<g id="vuesax/linear/map">
<g id="map">
<path id="Vector" d="M4.96191 16.8565V37.9381C4.96191 42.0548 7.88691 43.7448 11.4402 41.7081L16.5319 38.8048C17.6369 38.1765 19.4786 38.1115 20.6269 38.6965L32.0019 44.3948C33.1502 44.9581 34.9919 44.9148 36.0969 44.2865L45.4786 38.9131C46.6703 38.2198 47.6669 36.5298 47.6669 35.1431V14.0615C47.6669 9.94478 44.7419 8.25478 41.1886 10.2915L36.0969 13.1948C34.9919 13.8231 33.1502 13.8881 32.0019 13.3031L20.6269 7.62645C19.4786 7.06312 17.6369 7.10645 16.5319 7.73478L7.15025 13.1081C5.93691 13.8015 4.96191 15.4915 4.96191 16.8565Z" stroke="#292D32" stroke-width="2.5" stroke-linecap="round" stroke-linejoin="round"/>
<path id="Vector_2" d="M18.5469 8.6665V36.8332" stroke="#292D32" stroke-width="2.5" stroke-linecap="round" stroke-linejoin="round"/>
<path id="Vector_3" d="M34.0815 14.3438V43.3338" stroke="#292D32" stroke-width="2.5" stroke-linecap="round" stroke-linejoin="round"/>
</g>
</g>
</svg>
