<svg width="1440" height="1007" viewBox="0 0 1440 1007" fill="none" xmlns="http://www.w3.org/2000/svg">
<rect width="1440" height="936" transform="translate(0 71)" fill="#F7F7F7"/>
<path opacity="0.1" d="M1159 412L1440 412" stroke="url(#paint0_linear_3_30553)"/>
<path opacity="0.1" d="M1304.5 693.5V412.5" stroke="url(#paint1_linear_3_30553)"/>
<path opacity="0.1" d="M434 583H1.38283e-05" stroke="url(#paint2_linear_3_30553)"/>
<path opacity="0.1" d="M289 826L289 584" stroke="url(#paint3_linear_3_30553)"/>
<path opacity="0.1" d="M145 340L145 582" stroke="url(#paint4_linear_3_30553)"/>
<path opacity="0.1" d="M1163 243L729 243" stroke="url(#paint5_linear_3_30553)"/>
<path opacity="0.1" d="M1018 486L1018 244" stroke="url(#paint6_linear_3_30553)"/>
<path opacity="0.1" d="M874 0L874 242" stroke="url(#paint7_linear_3_30553)"/>
<path opacity="0.1" d="M433 243L-0.999986 243" stroke="url(#paint8_linear_3_30553)"/>
<path opacity="0.1" d="M1014 583H580" stroke="url(#paint9_linear_3_30553)"/>
<path opacity="0.1" d="M288 486L288 244" stroke="url(#paint10_linear_3_30553)"/>
<path opacity="0.1" d="M144 0L144 242" stroke="url(#paint11_linear_3_30553)"/>
<rect opacity="0.02" x="145" y="71" width="144" height="170" fill="black"/>
<rect opacity="0.01" x="435" y="71" width="144" height="170" fill="black"/>
<rect opacity="0.04" x="1160" y="71" width="144" height="170" fill="black"/>
<rect opacity="0.03" y="242" width="144" height="170" fill="black"/>
<rect opacity="0.01" x="1015" y="242" width="144" height="170" fill="black"/>
<rect opacity="0.02" x="1305" y="242" width="144" height="170" fill="black"/>
<rect opacity="0.01" y="413" width="144" height="170" fill="black"/>
<rect opacity="0.02" x="145" y="413" width="144" height="170" fill="black"/>
<rect opacity="0.01" x="290" y="413" width="144" height="170" fill="black"/>
<rect opacity="0.01" x="580" y="413" width="144" height="170" fill="black"/>
<rect opacity="0.01" x="870" y="413" width="144" height="170" fill="black"/>
<rect opacity="0.01" x="1160" y="413" width="144" height="170" fill="black"/>
<rect opacity="0.02" x="1305" y="413" width="144" height="170" fill="black"/>
<rect opacity="0.01" y="584" width="144" height="170" fill="black"/>
<rect opacity="0.01" x="145" y="584" width="144" height="170" fill="black"/>
<rect opacity="0.01" x="870" y="584" width="144" height="170" fill="black"/>
<rect opacity="0.01" x="1015" y="584" width="144" height="170" fill="black"/>
<rect opacity="0.01" x="1305" y="584" width="144" height="170" fill="black"/>
<path opacity="0.1" d="M281 540L7.03335e-06 540" stroke="url(#paint12_linear_3_30553)"/>
<path opacity="0.1" d="M135.5 258.5L135.5 539.5" stroke="url(#paint13_linear_3_30553)"/>
<path opacity="0.1" d="M1006 369L1440 369" stroke="url(#paint14_linear_3_30553)"/>
<path opacity="0.1" d="M1151 126L1151 368" stroke="url(#paint15_linear_3_30553)"/>
<path opacity="0.1" d="M1295 612L1295 370" stroke="url(#paint16_linear_3_30553)"/>
<path opacity="0.1" d="M277 709H711" stroke="url(#paint17_linear_3_30553)"/>
<path opacity="0.1" d="M422 466L422 708" stroke="url(#paint18_linear_3_30553)"/>
<path opacity="0.1" d="M566 952L566 710" stroke="url(#paint19_linear_3_30553)"/>
<path opacity="0.1" d="M1007 709H1441" stroke="url(#paint20_linear_3_30553)"/>
<path opacity="0.1" d="M426 369L860 369" stroke="url(#paint21_linear_3_30553)"/>
<path opacity="0.1" d="M1152 466L1152 708" stroke="url(#paint22_linear_3_30553)"/>
<path opacity="0.1" d="M1296 952L1296 710" stroke="url(#paint23_linear_3_30553)"/>
<rect opacity="0.02" x="1295" y="1007" width="144" height="170" transform="rotate(180 1295 1007)" fill="black"/>
<rect opacity="0.01" x="1005" y="1007" width="144" height="170" transform="rotate(180 1005 1007)" fill="black"/>
<rect opacity="0.02" x="280" y="1007" width="144" height="170" transform="rotate(180 280 1007)" fill="black"/>
<rect opacity="0.03" x="1440" y="836" width="144" height="170" transform="rotate(180 1440 836)" fill="black"/>
<rect opacity="0.01" x="425" y="836" width="144" height="170" transform="rotate(180 425 836)" fill="black"/>
<rect opacity="0.02" x="135" y="836" width="144" height="170" transform="rotate(180 135 836)" fill="black"/>
<rect opacity="0.01" x="1440" y="665" width="144" height="170" transform="rotate(180 1440 665)" fill="black"/>
<rect opacity="0.02" x="1295" y="665" width="144" height="170" transform="rotate(180 1295 665)" fill="black"/>
<rect opacity="0.01" x="1150" y="665" width="144" height="170" transform="rotate(180 1150 665)" fill="black"/>
<rect opacity="0.01" x="860" y="665" width="144" height="170" transform="rotate(180 860 665)" fill="black"/>
<rect opacity="0.01" x="570" y="665" width="144" height="170" transform="rotate(180 570 665)" fill="black"/>
<rect opacity="0.01" x="280" y="665" width="144" height="170" transform="rotate(180 280 665)" fill="black"/>
<rect opacity="0.02" x="135" y="665" width="144" height="170" transform="rotate(180 135 665)" fill="black"/>
<rect opacity="0.01" x="1440" y="494" width="144" height="170" transform="rotate(180 1440 494)" fill="black"/>
<rect opacity="0.01" x="1295" y="494" width="144" height="170" transform="rotate(180 1295 494)" fill="black"/>
<rect opacity="0.01" x="570" y="494" width="144" height="170" transform="rotate(180 570 494)" fill="black"/>
<rect opacity="0.01" x="425" y="494" width="144" height="170" transform="rotate(180 425 494)" fill="black"/>
<rect opacity="0.01" x="135" y="494" width="144" height="170" transform="rotate(180 135 494)" fill="black"/>
<defs>
<linearGradient id="paint0_linear_3_30553" x1="1159" y1="412.5" x2="1440" y2="412.5" gradientUnits="userSpaceOnUse">
<stop stop-color="#DEDEDE" stop-opacity="0"/>
<stop offset="0.532654" stop-color="#DEDEDE"/>
<stop offset="1" stop-color="#DEDEDE"/>
</linearGradient>
<linearGradient id="paint1_linear_3_30553" x1="1305" y1="693.5" x2="1305" y2="412.5" gradientUnits="userSpaceOnUse">
<stop stop-color="#DEDEDE" stop-opacity="0"/>
<stop offset="0.532654" stop-color="#DEDEDE"/>
<stop offset="1" stop-color="#DEDEDE"/>
</linearGradient>
<linearGradient id="paint2_linear_3_30553" x1="434" y1="582.5" x2="0" y2="582.5" gradientUnits="userSpaceOnUse">
<stop stop-color="#DEDEDE" stop-opacity="0"/>
<stop offset="0.532654" stop-color="#DEDEDE"/>
<stop offset="1" stop-color="#DEDEDE"/>
</linearGradient>
<linearGradient id="paint3_linear_3_30553" x1="289.5" y1="826" x2="289.5" y2="584" gradientUnits="userSpaceOnUse">
<stop stop-color="#DEDEDE" stop-opacity="0"/>
<stop offset="0.532654" stop-color="#DEDEDE"/>
<stop offset="1" stop-color="#DEDEDE"/>
</linearGradient>
<linearGradient id="paint4_linear_3_30553" x1="144.5" y1="340" x2="144.5" y2="582" gradientUnits="userSpaceOnUse">
<stop stop-color="#DEDEDE" stop-opacity="0"/>
<stop offset="0.532654" stop-color="#DEDEDE"/>
<stop offset="1" stop-color="#DEDEDE"/>
</linearGradient>
<linearGradient id="paint5_linear_3_30553" x1="1163" y1="242.5" x2="729" y2="242.5" gradientUnits="userSpaceOnUse">
<stop stop-color="#DEDEDE" stop-opacity="0"/>
<stop offset="0.532654" stop-color="#DEDEDE"/>
<stop offset="1" stop-color="#DEDEDE"/>
</linearGradient>
<linearGradient id="paint6_linear_3_30553" x1="1018.5" y1="486" x2="1018.5" y2="244" gradientUnits="userSpaceOnUse">
<stop stop-color="#DEDEDE" stop-opacity="0"/>
<stop offset="0.532654" stop-color="#DEDEDE"/>
<stop offset="1" stop-color="#DEDEDE"/>
</linearGradient>
<linearGradient id="paint7_linear_3_30553" x1="873.5" y1="-2.18557e-08" x2="873.5" y2="242" gradientUnits="userSpaceOnUse">
<stop stop-color="#DEDEDE" stop-opacity="0"/>
<stop offset="0.532654" stop-color="#DEDEDE"/>
<stop offset="1" stop-color="#DEDEDE"/>
</linearGradient>
<linearGradient id="paint8_linear_3_30553" x1="433" y1="242.5" x2="-1" y2="242.5" gradientUnits="userSpaceOnUse">
<stop stop-color="#DEDEDE" stop-opacity="0"/>
<stop offset="0.532654" stop-color="#DEDEDE"/>
<stop offset="1" stop-color="#DEDEDE"/>
</linearGradient>
<linearGradient id="paint9_linear_3_30553" x1="1014" y1="582.5" x2="580" y2="582.5" gradientUnits="userSpaceOnUse">
<stop stop-color="#DEDEDE" stop-opacity="0"/>
<stop offset="0.532654" stop-color="#DEDEDE"/>
<stop offset="1" stop-color="#DEDEDE"/>
</linearGradient>
<linearGradient id="paint10_linear_3_30553" x1="288.5" y1="486" x2="288.5" y2="244" gradientUnits="userSpaceOnUse">
<stop stop-color="#DEDEDE" stop-opacity="0"/>
<stop offset="0.532654" stop-color="#DEDEDE"/>
<stop offset="1" stop-color="#DEDEDE"/>
</linearGradient>
<linearGradient id="paint11_linear_3_30553" x1="143.5" y1="-2.18557e-08" x2="143.5" y2="242" gradientUnits="userSpaceOnUse">
<stop stop-color="#DEDEDE" stop-opacity="0"/>
<stop offset="0.532654" stop-color="#DEDEDE"/>
<stop offset="1" stop-color="#DEDEDE"/>
</linearGradient>
<linearGradient id="paint12_linear_3_30553" x1="281" y1="539.5" x2="-4.37114e-08" y2="539.5" gradientUnits="userSpaceOnUse">
<stop stop-color="#DEDEDE" stop-opacity="0"/>
<stop offset="0.532654" stop-color="#DEDEDE"/>
<stop offset="1" stop-color="#DEDEDE"/>
</linearGradient>
<linearGradient id="paint13_linear_3_30553" x1="135" y1="258.5" x2="135" y2="539.5" gradientUnits="userSpaceOnUse">
<stop stop-color="#DEDEDE" stop-opacity="0"/>
<stop offset="0.532654" stop-color="#DEDEDE"/>
<stop offset="1" stop-color="#DEDEDE"/>
</linearGradient>
<linearGradient id="paint14_linear_3_30553" x1="1006" y1="369.5" x2="1440" y2="369.5" gradientUnits="userSpaceOnUse">
<stop stop-color="#DEDEDE" stop-opacity="0"/>
<stop offset="0.532654" stop-color="#DEDEDE"/>
<stop offset="1" stop-color="#DEDEDE"/>
</linearGradient>
<linearGradient id="paint15_linear_3_30553" x1="1150.5" y1="126" x2="1150.5" y2="368" gradientUnits="userSpaceOnUse">
<stop stop-color="#DEDEDE" stop-opacity="0"/>
<stop offset="0.532654" stop-color="#DEDEDE"/>
<stop offset="1" stop-color="#DEDEDE"/>
</linearGradient>
<linearGradient id="paint16_linear_3_30553" x1="1295.5" y1="612" x2="1295.5" y2="370" gradientUnits="userSpaceOnUse">
<stop stop-color="#DEDEDE" stop-opacity="0"/>
<stop offset="0.532654" stop-color="#DEDEDE"/>
<stop offset="1" stop-color="#DEDEDE"/>
</linearGradient>
<linearGradient id="paint17_linear_3_30553" x1="277" y1="709.5" x2="711" y2="709.5" gradientUnits="userSpaceOnUse">
<stop stop-color="#DEDEDE" stop-opacity="0"/>
<stop offset="0.532654" stop-color="#DEDEDE"/>
<stop offset="1" stop-color="#DEDEDE"/>
</linearGradient>
<linearGradient id="paint18_linear_3_30553" x1="421.5" y1="466" x2="421.5" y2="708" gradientUnits="userSpaceOnUse">
<stop stop-color="#DEDEDE" stop-opacity="0"/>
<stop offset="0.532654" stop-color="#DEDEDE"/>
<stop offset="1" stop-color="#DEDEDE"/>
</linearGradient>
<linearGradient id="paint19_linear_3_30553" x1="566.5" y1="952" x2="566.5" y2="710" gradientUnits="userSpaceOnUse">
<stop stop-color="#DEDEDE" stop-opacity="0"/>
<stop offset="0.532654" stop-color="#DEDEDE"/>
<stop offset="1" stop-color="#DEDEDE"/>
</linearGradient>
<linearGradient id="paint20_linear_3_30553" x1="1007" y1="709.5" x2="1441" y2="709.5" gradientUnits="userSpaceOnUse">
<stop stop-color="#DEDEDE" stop-opacity="0"/>
<stop offset="0.532654" stop-color="#DEDEDE"/>
<stop offset="1" stop-color="#DEDEDE"/>
</linearGradient>
<linearGradient id="paint21_linear_3_30553" x1="426" y1="369.5" x2="860" y2="369.5" gradientUnits="userSpaceOnUse">
<stop stop-color="#DEDEDE" stop-opacity="0"/>
<stop offset="0.532654" stop-color="#DEDEDE"/>
<stop offset="1" stop-color="#DEDEDE"/>
</linearGradient>
<linearGradient id="paint22_linear_3_30553" x1="1151.5" y1="466" x2="1151.5" y2="708" gradientUnits="userSpaceOnUse">
<stop stop-color="#DEDEDE" stop-opacity="0"/>
<stop offset="0.532654" stop-color="#DEDEDE"/>
<stop offset="1" stop-color="#DEDEDE"/>
</linearGradient>
<linearGradient id="paint23_linear_3_30553" x1="1296.5" y1="952" x2="1296.5" y2="710" gradientUnits="userSpaceOnUse">
<stop stop-color="#DEDEDE" stop-opacity="0"/>
<stop offset="0.532654" stop-color="#DEDEDE"/>
<stop offset="1" stop-color="#DEDEDE"/>
</linearGradient>
</defs>
</svg>
