<svg width="26" height="26" viewBox="0 0 26 26" fill="none" xmlns="http://www.w3.org/2000/svg">
<g id="facebook" clip-path="url(#clip0_945_7285)">
<g id="Group">
<path id="Vector" d="M13 0C5.82011 0 0 5.82011 0 13C0 20.1799 5.82011 26 13 26C13.1845 26 13.3672 25.9954 13.5498 25.9878V16.4984H11.5888V13.2281H13.5498V11.265C13.5498 8.59693 14.6548 7.00908 17.7976 7.00908H20.4143V10.2815H18.7791C17.5555 10.2815 17.4738 10.7377 17.4738 11.5909L17.4698 13.2281H20.4326L20.0865 16.4984H17.4698V25.2119C22.4476 23.3893 26 18.6093 26 13C26 5.82011 20.1799 0 13 0Z" fill="#3B5998"/>
<path id="Vector_2" d="M17.7982 7.01025C14.6554 7.01025 13.5504 8.5981 13.5504 11.2662V13.2292H11.5894V16.4996H13.5504V25.9889C14.9224 25.9318 16.2402 25.6635 17.4703 25.2131V16.4996H20.087L20.4332 13.2292H17.4703L17.4744 11.592C17.4744 10.7389 17.556 10.2827 18.7797 10.2827H20.4149V7.01025H17.7982Z" fill="white"/>
</g>
</g>
<defs>
<clipPath id="clip0_945_7285">
<rect width="26" height="26" fill="white"/>
</clipPath>
</defs>
</svg>
