<svg width="209" height="42" viewBox="0 0 209 42" fill="none" xmlns="http://www.w3.org/2000/svg">
<path d="M47.8301 29.7873V12.8497H59.3956V15.9189H51.4082V19.7611H58.9339V22.8303H51.4082V26.718H59.3956V29.7873H47.8301Z" fill="white"/>
<path d="M59.456 29.7873L63.8652 23.5579L59.4329 17.3739H63.4497L66.7739 22.1938H65.0194L68.3437 17.3739H72.3604L67.9281 23.5579L72.3142 29.7873H68.3206L65.0656 24.9674H66.7277L63.4728 29.7873H59.456Z" fill="white"/>
<path d="M78.8992 30.0601C77.6372 30.0601 76.4984 29.7797 75.4826 29.2189C74.4823 28.6429 73.682 27.8624 73.0818 26.8772C72.497 25.892 72.2046 24.7856 72.2046 23.5579C72.2046 22.3302 72.497 21.2313 73.0818 20.2613C73.6666 19.2761 74.4669 18.5031 75.4826 17.9423C76.4984 17.3815 77.6372 17.1011 78.8992 17.1011C79.838 17.1011 80.7075 17.2603 81.5078 17.5786C82.3081 17.8968 82.9929 18.344 83.5623 18.9199C84.1318 19.4807 84.5396 20.1476 84.7858 20.9206L81.7848 22.1938C81.5693 21.5723 81.2 21.0797 80.6767 20.716C80.1689 20.3522 79.5764 20.1703 78.8992 20.1703C78.299 20.1703 77.7603 20.3143 77.2833 20.6023C76.8216 20.8903 76.4522 21.2919 76.1752 21.8073C75.9136 22.3226 75.7827 22.9137 75.7827 23.5806C75.7827 24.2475 75.9136 24.8386 76.1752 25.3539C76.4522 25.8693 76.8216 26.2709 77.2833 26.5589C77.7603 26.8469 78.299 26.9909 78.8992 26.9909C79.5917 26.9909 80.1919 26.809 80.6998 26.4452C81.2077 26.0815 81.5693 25.5889 81.7848 24.9674L84.7858 26.2633C84.555 26.9909 84.1548 27.6426 83.5854 28.2186C83.016 28.7945 82.3311 29.2492 81.5309 29.5827C80.7306 29.9009 79.8534 30.0601 78.8992 30.0601Z" fill="white"/>
<path d="M86.1035 29.7873V12.5768H89.5662V19.8293L89.1507 19.2837C89.4431 18.541 89.9125 17.9954 90.5588 17.6468C91.2206 17.283 91.9901 17.1011 92.8673 17.1011C93.8215 17.1011 94.6526 17.2982 95.3605 17.6922C96.0838 18.0863 96.6455 18.6395 97.0457 19.3519C97.4458 20.0491 97.6459 20.8676 97.6459 21.8073V29.7873H94.1832V22.5348C94.1832 22.0498 94.0831 21.633 93.8831 21.2844C93.6984 20.9358 93.4291 20.6629 93.0751 20.4659C92.7365 20.2689 92.3364 20.1703 91.8747 20.1703C91.4284 20.1703 91.0282 20.2689 90.6743 20.4659C90.3203 20.6629 90.0433 20.9358 89.8432 21.2844C89.6585 21.633 89.5662 22.0498 89.5662 22.5348V29.7873H86.1035Z" fill="white"/>
<path d="M103.103 30.0601C102.195 30.0601 101.41 29.9161 100.748 29.6281C100.086 29.3401 99.5785 28.9309 99.2245 28.4004C98.8705 27.8548 98.6935 27.2106 98.6935 26.468C98.6935 25.7707 98.8551 25.1569 99.1783 24.6264C99.5015 24.0808 99.994 23.6261 100.656 23.2623C101.333 22.8986 102.172 22.6409 103.172 22.4893L107.027 21.8755V24.3763L103.795 24.9447C103.303 25.0356 102.926 25.1948 102.664 25.4221C102.403 25.6343 102.272 25.945 102.272 26.3543C102.272 26.7332 102.418 27.0288 102.71 27.2409C103.003 27.4531 103.364 27.5592 103.795 27.5592C104.365 27.5592 104.865 27.438 105.296 27.1955C105.727 26.953 106.058 26.6271 106.288 26.2179C106.535 25.7935 106.658 25.3312 106.658 24.831V21.6027C106.658 21.1328 106.465 20.7387 106.081 20.4204C105.711 20.1021 105.203 19.943 104.557 19.943C103.941 19.943 103.395 20.1097 102.918 20.4432C102.456 20.7766 102.118 21.2162 101.902 21.7618L99.1322 20.4659C99.3784 19.7687 99.7708 19.17 100.309 18.6698C100.848 18.1697 101.494 17.7832 102.249 17.5103C103.003 17.2375 103.826 17.1011 104.719 17.1011C105.781 17.1011 106.719 17.2906 107.535 17.6695C108.351 18.0484 108.982 18.5789 109.428 19.2609C109.89 19.9278 110.121 20.7084 110.121 21.6027V29.7873H106.889V27.7866L107.674 27.6502C107.304 28.1958 106.896 28.6505 106.45 29.0143C106.004 29.3629 105.504 29.6205 104.95 29.7873C104.395 29.9692 103.78 30.0601 103.103 30.0601Z" fill="white"/>
<path d="M111.939 29.7873V17.3739H115.171V19.8293L114.986 19.2837C115.278 18.541 115.748 17.9954 116.394 17.6468C117.056 17.283 117.825 17.1011 118.702 17.1011C119.657 17.1011 120.488 17.2982 121.196 17.6922C121.919 18.0863 122.481 18.6395 122.881 19.3519C123.281 20.0491 123.481 20.8676 123.481 21.8073V29.7873H120.018V22.5348C120.018 22.0498 119.918 21.633 119.718 21.2844C119.534 20.9358 119.264 20.6629 118.91 20.4659C118.572 20.2689 118.172 20.1703 117.71 20.1703C117.264 20.1703 116.863 20.2689 116.509 20.4659C116.155 20.6629 115.878 20.9358 115.678 21.2844C115.494 21.633 115.401 22.0498 115.401 22.5348V29.7873H111.939Z" fill="white"/>
<path d="M133.555 30.0601C132.324 30.0601 131.177 29.8403 130.115 29.4008C129.053 28.9612 128.122 28.3474 127.322 27.5592C126.522 26.7711 125.898 25.8465 125.452 24.7856C125.006 23.7246 124.783 22.5651 124.783 21.3071C124.783 20.0491 124.998 18.8896 125.429 17.8286C125.86 16.7525 126.468 15.828 127.253 15.055C128.038 14.2668 128.953 13.6605 130 13.2362C131.062 12.7966 132.216 12.5768 133.463 12.5768C134.709 12.5768 135.825 12.7815 136.81 13.1907C137.81 13.5999 138.657 14.1456 139.349 14.8276C140.042 15.5097 140.534 16.2675 140.827 17.1011L137.664 18.6016C137.372 17.7832 136.856 17.1087 136.117 16.5782C135.394 16.0326 134.509 15.7597 133.463 15.7597C132.447 15.7597 131.554 15.9947 130.785 16.4645C130.015 16.9344 129.415 17.5861 128.984 18.4197C128.569 19.2382 128.361 20.2007 128.361 21.3071C128.361 22.4135 128.584 23.3836 129.03 24.2172C129.477 25.0508 130.084 25.7025 130.854 26.1724C131.639 26.6423 132.539 26.8772 133.555 26.8772C134.34 26.8772 135.071 26.7332 135.748 26.4452C136.44 26.1421 136.995 25.7101 137.41 25.1493C137.841 24.5885 138.056 23.9141 138.056 23.1259V21.7163L139.695 23.0804H133.463V20.1249H141.635V21.9209C141.635 23.3002 141.404 24.5052 140.942 25.5358C140.48 26.5513 139.857 27.4001 139.072 28.0821C138.303 28.749 137.433 29.2492 136.464 29.5827C135.509 29.9009 134.54 30.0601 133.555 30.0601Z" fill="white"/>
<path d="M149.125 30.0601C147.878 30.0601 146.739 29.7797 145.708 29.2189C144.692 28.6581 143.877 27.8927 143.261 26.9227C142.661 25.9375 142.361 24.8235 142.361 23.5806C142.361 22.3226 142.661 21.2086 143.261 20.2386C143.877 19.2685 144.692 18.5031 145.708 17.9423C146.739 17.3815 147.878 17.1011 149.125 17.1011C150.371 17.1011 151.502 17.3815 152.518 17.9423C153.534 18.5031 154.342 19.2685 154.942 20.2386C155.558 21.2086 155.865 22.3226 155.865 23.5806C155.865 24.8235 155.558 25.9375 154.942 26.9227C154.342 27.8927 153.534 28.6581 152.518 29.2189C151.502 29.7797 150.371 30.0601 149.125 30.0601ZM149.125 26.9909C149.756 26.9909 150.302 26.8469 150.764 26.5589C151.241 26.2709 151.61 25.8693 151.872 25.3539C152.149 24.8386 152.287 24.2475 152.287 23.5806C152.287 22.9137 152.149 22.3302 151.872 21.83C151.61 21.3147 151.241 20.913 150.764 20.625C150.302 20.3219 149.756 20.1703 149.125 20.1703C148.494 20.1703 147.94 20.3219 147.463 20.625C146.986 20.913 146.608 21.3147 146.331 21.83C146.07 22.3302 145.939 22.9137 145.939 23.5806C145.939 24.2475 146.07 24.8386 146.331 25.3539C146.608 25.8693 146.986 26.2709 147.463 26.5589C147.94 26.8469 148.494 26.9909 149.125 26.9909Z" fill="white"/>
<path d="M160.311 29.7873V27.0591L164.928 22.3756C165.836 21.4511 166.52 20.7236 166.982 20.1931C167.459 19.6474 167.782 19.1927 167.952 18.829C168.136 18.4652 168.229 18.109 168.229 17.7604C168.229 17.139 168.021 16.654 167.605 16.3054C167.205 15.9416 166.697 15.7597 166.082 15.7597C165.451 15.7597 164.889 15.9416 164.397 16.3054C163.904 16.654 163.542 17.1921 163.312 17.9196L160.195 16.9192C160.38 16.0401 160.765 15.2747 161.349 14.623C161.934 13.9713 162.642 13.4711 163.473 13.1225C164.304 12.7587 165.174 12.5768 166.082 12.5768C167.221 12.5768 168.221 12.7739 169.083 13.168C169.945 13.562 170.614 14.1152 171.091 14.8276C171.568 15.54 171.807 16.3736 171.807 17.3285C171.807 17.9347 171.699 18.5334 171.484 19.1245C171.268 19.7005 170.937 20.2916 170.491 20.8979C170.06 21.489 169.498 22.1331 168.806 22.8303L164.858 26.8317H171.968V29.7873H160.311Z" fill="white"/>
<path d="M180.503 29.7873V26.1497H172.885V23.1941L180.272 12.8497H184.081V23.1941H186.735V26.1497H184.081V29.7873H180.503ZM175.493 24.4673L174.824 23.1941H180.503V15.5779L181.403 15.8507L175.493 24.4673Z" fill="white"/>
<path d="M24.1798 0.5L23.6654 11.5975L0 9.25598L39.2496 24.5125L24.1798 0.5Z" fill="#3BEE5C"/>
<path d="M17.9475 41.5494L18.462 30.4518L38.707 26.9566L5.93973 24.0514L17.9475 41.5494Z" fill="#3BEE5C"/>
</svg>
