<svg width="190" height="42" viewBox="0 0 190 42" fill="none" xmlns="http://www.w3.org/2000/svg">
<g id="Logo">
<g id="ExchanGo 24">
<path d="M47.8301 29.2871V12.3495H59.3956V15.4187H51.4082V19.2609H58.9339V22.3302H51.4082V26.2179H59.3956V29.2871H47.8301Z" fill="#212223"/>
<path d="M59.456 29.2871L63.8652 23.0577L59.4329 16.8738H63.4497L66.7739 21.6936H65.0194L68.3437 16.8738H72.3604L67.9281 23.0577L72.3142 29.2871H68.3206L65.0656 24.4673H66.7277L63.4728 29.2871H59.456Z" fill="#212223"/>
<path d="M78.8992 29.5599C77.6372 29.5599 76.4984 29.2795 75.4826 28.7187C74.4823 28.1428 73.682 27.3622 73.0818 26.377C72.497 25.3918 72.2046 24.2854 72.2046 23.0577C72.2046 21.83 72.497 20.7311 73.0818 19.7611C73.6666 18.7759 74.4669 18.0029 75.4826 17.4421C76.4984 16.8813 77.6372 16.6009 78.8992 16.6009C79.838 16.6009 80.7075 16.7601 81.5078 17.0784C82.3081 17.3967 82.9929 17.8438 83.5623 18.4197C84.1318 18.9805 84.5396 19.6474 84.7858 20.4204L81.7848 21.6936C81.5693 21.0722 81.2 20.5796 80.6767 20.2158C80.1689 19.852 79.5764 19.6702 78.8992 19.6702C78.299 19.6702 77.7603 19.8142 77.2833 20.1021C76.8216 20.3901 76.4522 20.7918 76.1752 21.3071C75.9136 21.8224 75.7827 22.4135 75.7827 23.0804C75.7827 23.7473 75.9136 24.3384 76.1752 24.8538C76.4522 25.3691 76.8216 25.7707 77.2833 26.0587C77.7603 26.3467 78.299 26.4907 78.8992 26.4907C79.5917 26.4907 80.1919 26.3088 80.6998 25.945C81.2077 25.5813 81.5693 25.0887 81.7848 24.4673L84.7858 25.7632C84.555 26.4907 84.1548 27.1424 83.5854 27.7184C83.016 28.2943 82.3311 28.749 81.5309 29.0825C80.7306 29.4008 79.8534 29.5599 78.8992 29.5599Z" fill="#212223"/>
<path d="M86.1035 29.2871V12.0767H89.5662V19.3291L89.1507 18.7835C89.4431 18.0408 89.9125 17.4952 90.5588 17.1466C91.2206 16.7828 91.9901 16.6009 92.8673 16.6009C93.8215 16.6009 94.6526 16.798 95.3605 17.192C96.0838 17.5861 96.6455 18.1393 97.0457 18.8517C97.4458 19.5489 97.6459 20.3674 97.6459 21.3071V29.2871H94.1832V22.0346C94.1832 21.5496 94.0831 21.1328 93.8831 20.7842C93.6984 20.4356 93.4291 20.1628 93.0751 19.9657C92.7365 19.7687 92.3364 19.6702 91.8747 19.6702C91.4284 19.6702 91.0282 19.7687 90.6743 19.9657C90.3203 20.1628 90.0433 20.4356 89.8432 20.7842C89.6585 21.1328 89.5662 21.5496 89.5662 22.0346V29.2871H86.1035Z" fill="#212223"/>
<path d="M103.103 29.5599C102.195 29.5599 101.41 29.4159 100.748 29.1279C100.086 28.84 99.5785 28.4307 99.2245 27.9003C98.8705 27.3546 98.6935 26.7105 98.6935 25.9678C98.6935 25.2706 98.8551 24.6567 99.1783 24.1262C99.5015 23.5806 99.994 23.1259 100.656 22.7621C101.333 22.3984 102.172 22.1407 103.172 21.9891L107.027 21.3753V23.8761L103.795 24.4445C103.303 24.5355 102.926 24.6946 102.664 24.922C102.403 25.1342 102.272 25.4449 102.272 25.8541C102.272 26.233 102.418 26.5286 102.71 26.7408C103.003 26.953 103.364 27.0591 103.795 27.0591C104.365 27.0591 104.865 26.9378 105.296 26.6953C105.727 26.4528 106.058 26.1269 106.288 25.7177C106.535 25.2933 106.658 24.831 106.658 24.3308V21.1025C106.658 20.6326 106.465 20.2385 106.081 19.9202C105.711 19.602 105.203 19.4428 104.557 19.4428C103.941 19.4428 103.395 19.6095 102.918 19.943C102.456 20.2764 102.118 20.716 101.902 21.2616L99.1322 19.9657C99.3784 19.2685 99.7708 18.6698 100.309 18.1697C100.848 17.6695 101.494 17.283 102.249 17.0102C103.003 16.7373 103.826 16.6009 104.719 16.6009C105.781 16.6009 106.719 16.7904 107.535 17.1693C108.351 17.5482 108.982 18.0787 109.428 18.7608C109.89 19.4277 110.121 20.2082 110.121 21.1025V29.2871H106.889V27.2864L107.674 27.15C107.304 27.6956 106.896 28.1503 106.45 28.5141C106.004 28.8627 105.504 29.1204 104.95 29.2871C104.395 29.469 103.78 29.5599 103.103 29.5599Z" fill="#212223"/>
<path d="M111.939 29.2871V16.8738H115.171V19.3291L114.986 18.7835C115.278 18.0408 115.748 17.4952 116.394 17.1466C117.056 16.7828 117.825 16.6009 118.702 16.6009C119.657 16.6009 120.488 16.798 121.196 17.192C121.919 17.5861 122.481 18.1393 122.881 18.8517C123.281 19.5489 123.481 20.3674 123.481 21.3071V29.2871H120.018V22.0346C120.018 21.5496 119.918 21.1328 119.718 20.7842C119.534 20.4356 119.264 20.1628 118.91 19.9657C118.572 19.7687 118.172 19.6702 117.71 19.6702C117.264 19.6702 116.863 19.7687 116.509 19.9657C116.155 20.1628 115.878 20.4356 115.678 20.7842C115.494 21.1328 115.401 21.5496 115.401 22.0346V29.2871H111.939Z" fill="#212223"/>
<path d="M133.555 29.5599C132.324 29.5599 131.177 29.3401 130.115 28.9006C129.053 28.461 128.122 27.8472 127.322 27.0591C126.522 26.2709 125.898 25.3463 125.452 24.2854C125.006 23.2244 124.783 22.0649 124.783 20.8069C124.783 19.5489 124.998 18.3894 125.429 17.3285C125.86 16.2523 126.468 15.3278 127.253 14.5548C128.038 13.7666 128.953 13.1604 130 12.736C131.062 12.2964 132.216 12.0767 133.463 12.0767C134.709 12.0767 135.825 12.2813 136.81 12.6905C137.81 13.0997 138.657 13.6454 139.349 14.3274C140.042 15.0095 140.534 15.7673 140.827 16.6009L137.664 18.1014C137.372 17.283 136.856 16.6085 136.117 16.078C135.394 15.5324 134.509 15.2596 133.463 15.2596C132.447 15.2596 131.554 15.4945 130.785 15.9644C130.015 16.4342 129.415 17.0859 128.984 17.9196C128.569 18.738 128.361 19.7005 128.361 20.8069C128.361 21.9134 128.584 22.8834 129.03 23.717C129.477 24.5506 130.084 25.2024 130.854 25.6722C131.639 26.1421 132.539 26.377 133.555 26.377C134.34 26.377 135.071 26.233 135.748 25.945C136.44 25.6419 136.995 25.2099 137.41 24.6491C137.841 24.0883 138.056 23.4139 138.056 22.6257V21.2161L139.695 22.5803H133.463V19.6247H141.635V21.4208C141.635 22.8 141.404 24.005 140.942 25.0356C140.48 26.0511 139.857 26.8999 139.072 27.582C138.303 28.2489 137.433 28.749 136.464 29.0825C135.509 29.4008 134.54 29.5599 133.555 29.5599Z" fill="#212223"/>
<path d="M149.125 29.5599C147.878 29.5599 146.739 29.2795 145.708 28.7187C144.692 28.1579 143.877 27.3925 143.261 26.4225C142.661 25.4373 142.361 24.3233 142.361 23.0804C142.361 21.8224 142.661 20.7084 143.261 19.7384C143.877 18.7683 144.692 18.0029 145.708 17.4421C146.739 16.8813 147.878 16.6009 149.125 16.6009C150.371 16.6009 151.502 16.8813 152.518 17.4421C153.534 18.0029 154.342 18.7683 154.942 19.7384C155.558 20.7084 155.865 21.8224 155.865 23.0804C155.865 24.3233 155.558 25.4373 154.942 26.4225C154.342 27.3925 153.534 28.1579 152.518 28.7187C151.502 29.2795 150.371 29.5599 149.125 29.5599ZM149.125 26.4907C149.756 26.4907 150.302 26.3467 150.764 26.0587C151.241 25.7707 151.61 25.3691 151.872 24.8538C152.149 24.3384 152.287 23.7473 152.287 23.0804C152.287 22.4135 152.149 21.83 151.872 21.3298C151.61 20.8145 151.241 20.4128 150.764 20.1249C150.302 19.8217 149.756 19.6702 149.125 19.6702C148.494 19.6702 147.94 19.8217 147.463 20.1249C146.986 20.4128 146.608 20.8145 146.331 21.3298C146.07 21.83 145.939 22.4135 145.939 23.0804C145.939 23.7473 146.07 24.3384 146.331 24.8538C146.608 25.3691 146.986 25.7707 147.463 26.0587C147.94 26.3467 148.494 26.4907 149.125 26.4907Z" fill="#212223"/>
<path d="M160.311 29.2871V26.5589L164.928 21.8755C165.836 20.9509 166.52 20.2234 166.982 19.6929C167.459 19.1473 167.782 18.6926 167.952 18.3288C168.136 17.965 168.229 17.6089 168.229 17.2602C168.229 16.6388 168.021 16.1538 167.605 15.8052C167.205 15.4414 166.697 15.2596 166.082 15.2596C165.451 15.2596 164.889 15.4414 164.397 15.8052C163.904 16.1538 163.542 16.6919 163.312 17.4194L160.195 16.4191C160.38 15.54 160.765 14.7746 161.349 14.1228C161.934 13.4711 162.642 12.9709 163.473 12.6223C164.304 12.2585 165.174 12.0767 166.082 12.0767C167.221 12.0767 168.221 12.2737 169.083 12.6678C169.945 13.0618 170.614 13.6151 171.091 14.3274C171.568 15.0398 171.807 15.8734 171.807 16.8283C171.807 17.4346 171.699 18.0332 171.484 18.6244C171.268 19.2003 170.937 19.7914 170.491 20.3977C170.06 20.9888 169.498 21.633 168.806 22.3302L164.858 26.3315H171.968V29.2871H160.311Z" fill="#212223"/>
<path d="M180.503 29.2871V25.6495H172.885V22.6939L180.272 12.3495H184.081V22.6939H186.735V25.6495H184.081V29.2871H180.503ZM175.493 23.9671L174.824 22.6939H180.503V15.0777L181.403 15.3505L175.493 23.9671Z" fill="#212223"/>
</g>
<g id="Vector">
<path d="M24.1798 0L23.6654 11.0975L0 8.75598L39.2496 24.0125L24.1798 0Z" fill="#3BEE5C"/>
<path d="M17.9475 41.0494L18.462 29.9518L38.707 26.4566L5.93973 23.5514L17.9475 41.0494Z" fill="#3BEE5C"/>
</g>
</g>
</svg>
