<svg width="22" height="32" viewBox="0 0 22 32" fill="none" xmlns="http://www.w3.org/2000/svg">
<path d="M19.125 1.5H2.625C2.42609 1.5 2.23532 1.57902 2.09467 1.71967C1.95402 1.86032 1.875 2.05109 1.875 2.25C1.875 2.44891 1.95402 2.63968 2.09467 2.78033C2.23532 2.92098 2.42609 3 2.625 3H19.125C19.3239 3 19.5147 2.92098 19.6553 2.78033C19.796 2.63968 19.875 2.44891 19.875 2.25C19.875 2.05109 19.796 1.86032 19.6553 1.71967C19.5147 1.57902 19.3239 1.5 19.125 1.5Z" fill="#C52229"/>
<path fill-rule="evenodd" clip-rule="evenodd" d="M2.625 0.75H19.125C19.5228 0.75 19.9044 0.908035 20.1857 1.18934C20.467 1.47064 20.625 1.85218 20.625 2.25C20.625 2.64782 20.467 3.02936 20.1857 3.31066C19.9044 3.59196 19.5228 3.75 19.125 3.75H2.625C2.22718 3.75 1.84564 3.59196 1.56434 3.31066C1.28304 3.02936 1.125 2.64782 1.125 2.25C1.125 1.85218 1.28304 1.47064 1.56434 1.18934C1.84564 0.908035 2.22718 0.75 2.625 0.75ZM2.625 1.5H19.125C19.3239 1.5 19.5147 1.57902 19.6553 1.71967C19.796 1.86032 19.875 2.05109 19.875 2.25C19.875 2.44891 19.796 2.63968 19.6553 2.78033C19.5147 2.92098 19.3239 3 19.125 3H2.625C2.42609 3 2.23532 2.92098 2.09467 2.78033C1.95402 2.63968 1.875 2.44891 1.875 2.25C1.875 2.05109 1.95402 1.86032 2.09467 1.71967C2.23532 1.57902 2.42609 1.5 2.625 1.5Z" fill="#9B0F15"/>
<path fill-rule="evenodd" clip-rule="evenodd" d="M2.25 1.875C2.25 1.77554 2.28951 1.68016 2.35983 1.60984C2.43016 1.53951 2.52554 1.5 2.625 1.5H6.1875C6.28696 1.5 6.38234 1.53951 6.45267 1.60984C6.52299 1.68016 6.5625 1.77554 6.5625 1.875C6.5625 1.97446 6.52299 2.06984 6.45267 2.14016C6.38234 2.21049 6.28696 2.25 6.1875 2.25H2.625C2.52554 2.25 2.43016 2.21049 2.35983 2.14016C2.28951 2.06984 2.25 1.97446 2.25 1.875Z" fill="#DF3840"/>
<path d="M16.5 0.75H5.25C5.15054 0.75 5.05516 0.789509 4.98483 0.859835C4.91451 0.930161 4.875 1.02554 4.875 1.125V19.875C4.875 19.9745 4.91451 20.0698 4.98483 20.1402C5.05516 20.2105 5.15054 20.25 5.25 20.25H16.5C16.5995 20.25 16.6948 20.2105 16.7652 20.1402C16.8355 20.0698 16.875 19.9745 16.875 19.875V1.125C16.875 1.02554 16.8355 0.930161 16.7652 0.859835C16.6948 0.789509 16.5995 0.75 16.5 0.75Z" fill="#F1333B"/>
<path fill-rule="evenodd" clip-rule="evenodd" d="M5.25 0H16.5C16.7984 0 17.0845 0.118526 17.2955 0.329505C17.5065 0.540483 17.625 0.826631 17.625 1.125V19.875C17.625 20.1734 17.5065 20.4595 17.2955 20.6705C17.0845 20.8815 16.7984 21 16.5 21H5.25C4.95163 21 4.66548 20.8815 4.4545 20.6705C4.24353 20.4595 4.125 20.1734 4.125 19.875V1.125C4.125 0.826631 4.24353 0.540483 4.4545 0.329505C4.66548 0.118526 4.95163 0 5.25 0ZM5.25 0.75H16.5C16.5995 0.75 16.6948 0.789509 16.7652 0.859835C16.8355 0.930161 16.875 1.02554 16.875 1.125V19.875C16.875 19.9745 16.8355 20.0698 16.7652 20.1402C16.6948 20.2105 16.5995 20.25 16.5 20.25H5.25C5.15054 20.25 5.05516 20.2105 4.98483 20.1402C4.91451 20.0698 4.875 19.9745 4.875 19.875V1.125C4.875 1.02554 4.91451 0.930161 4.98483 0.859835C5.05516 0.789509 5.15054 0.75 5.25 0.75Z" fill="#9B0F15"/>
<path fill-rule="evenodd" clip-rule="evenodd" d="M5.57812 1.17188C5.67758 1.17188 5.77296 1.21138 5.84329 1.28171C5.91362 1.35204 5.95312 1.44742 5.95312 1.54688V18.9375H15.5625C15.662 18.9375 15.7573 18.977 15.8277 19.0473C15.898 19.1177 15.9375 19.213 15.9375 19.3125C15.9375 19.412 15.898 19.5073 15.8277 19.5777C15.7573 19.648 15.662 19.6875 15.5625 19.6875H5.57812C5.47867 19.6875 5.38329 19.648 5.31296 19.5777C5.24263 19.5073 5.20312 19.412 5.20312 19.3125V1.54688C5.20312 1.44742 5.24263 1.35204 5.31296 1.28171C5.38329 1.21138 5.47867 1.17188 5.57812 1.17188Z" fill="#FE666D"/>
<path d="M13.888 2.19375C13.888 2.40638 13.72 2.5785 13.513 2.5785C13.3056 2.5785 13.138 2.406 13.138 2.19412C13.138 1.9815 13.3056 1.80937 13.513 1.80937C13.72 1.80937 13.888 1.9815 13.888 2.19375ZM12.5706 2.2875C12.5706 2.55188 12.3617 2.766 12.1037 2.766C11.8461 2.766 11.6372 2.55187 11.6372 2.28787C11.6372 2.0235 11.8461 1.80937 12.1041 1.80937C12.3617 1.80937 12.5706 2.02313 12.5706 2.2875ZM13.738 3.657C13.738 3.921 13.5291 4.13513 13.2715 4.13513C13.0138 4.13513 12.8046 3.92138 12.8046 3.657C12.8046 3.393 13.0138 3.17888 13.2715 3.17888C13.5291 3.17888 13.738 3.39263 13.738 3.657ZM14.8048 3.00525C14.8052 3.03628 14.7994 3.06707 14.7879 3.09586C14.7763 3.12466 14.7592 3.15089 14.7375 3.17308C14.7158 3.19526 14.69 3.21295 14.6614 3.22514C14.6329 3.23733 14.6022 3.24378 14.5712 3.24413C14.5086 3.24333 14.4489 3.21773 14.4052 3.17295C14.3614 3.12816 14.3373 3.06784 14.338 3.00525C14.3376 2.97422 14.3433 2.94343 14.3548 2.91461C14.3663 2.88579 14.3834 2.85953 14.405 2.83731C14.4267 2.8151 14.4525 2.79736 14.481 2.78513C14.5095 2.77289 14.5402 2.76639 14.5712 2.766C14.6023 2.76634 14.6329 2.77281 14.6615 2.78502C14.6901 2.79723 14.7159 2.81496 14.7376 2.83718C14.7593 2.8594 14.7764 2.88568 14.788 2.91452C14.7995 2.94336 14.8052 2.97419 14.8048 3.00525ZM12.3373 3.41775C12.3377 3.44881 12.332 3.47964 12.3205 3.50848C12.3089 3.53732 12.2918 3.5636 12.2701 3.58582C12.2484 3.60804 12.2226 3.62577 12.194 3.63798C12.1654 3.65019 12.1348 3.65666 12.1037 3.657C12.0727 3.65661 12.042 3.65011 12.0135 3.63787C11.985 3.62564 11.9592 3.60791 11.9375 3.58569C11.9159 3.56347 11.8988 3.53721 11.8873 3.50839C11.8758 3.47958 11.8701 3.44878 11.8705 3.41775C11.8698 3.35516 11.8939 3.29484 11.9377 3.25005C11.9814 3.20527 12.0411 3.17967 12.1037 3.17888C12.1347 3.17922 12.1654 3.18567 12.1939 3.19786C12.2225 3.21005 12.2483 3.22774 12.27 3.24992C12.2917 3.2721 12.3088 3.29834 12.3204 3.32714C12.3319 3.35594 12.3377 3.38672 12.3373 3.41775ZM11.0372 1.95488C11.0376 1.9859 11.0319 2.0167 11.0204 2.04552C11.0089 2.07433 10.9918 2.1006 10.9701 2.12281C10.9485 2.14503 10.9227 2.16276 10.8941 2.175C10.8656 2.18723 10.835 2.19373 10.804 2.19412C10.7729 2.19378 10.7422 2.18732 10.7137 2.17511C10.6851 2.16289 10.6592 2.14517 10.6375 2.12294C10.6158 2.10072 10.5987 2.07444 10.5872 2.0456C10.5757 2.01676 10.5699 1.98593 10.5703 1.95488C10.5699 1.92382 10.5757 1.89299 10.5872 1.86415C10.5987 1.83531 10.6158 1.80903 10.6375 1.78681C10.6592 1.76458 10.6851 1.74686 10.7137 1.73464C10.7422 1.72243 10.7729 1.71597 10.804 1.71562C10.835 1.71602 10.8656 1.72252 10.8941 1.73475C10.9227 1.74699 10.9485 1.76472 10.9701 1.78694C10.9918 1.80915 11.0089 1.83542 11.0204 1.86423C11.0319 1.89305 11.0376 1.92385 11.0372 1.95488ZM14.5716 4.67438C14.5719 4.7054 14.5662 4.73619 14.5546 4.76499C14.5431 4.79378 14.5259 4.82002 14.5042 4.8422C14.4826 4.86438 14.4567 4.88208 14.4282 4.89427C14.3996 4.90646 14.369 4.91291 14.338 4.91325C14.2754 4.91246 14.2156 4.88686 14.1719 4.84207C14.1282 4.79728 14.104 4.73697 14.1047 4.67438C14.1043 4.64335 14.11 4.61255 14.1215 4.58374C14.133 4.55492 14.1501 4.52865 14.1718 4.50644C14.1934 4.48422 14.2193 4.46649 14.2478 4.45425C14.2763 4.44202 14.3069 4.43552 14.338 4.43513C14.369 4.43547 14.3997 4.44193 14.4283 4.45415C14.4568 4.46636 14.4827 4.48408 14.5044 4.50631C14.5261 4.52853 14.5432 4.55481 14.5547 4.58365C14.5662 4.61249 14.572 4.64332 14.5716 4.67438ZM13.3708 4.91325C13.3712 4.94428 13.3655 4.97508 13.354 5.00389C13.3425 5.03271 13.3254 5.05897 13.3038 5.08119C13.2821 5.10341 13.2563 5.12114 13.2278 5.13337C13.1993 5.14561 13.1686 5.15211 13.1376 5.1525C13.075 5.15171 13.0153 5.12611 12.9715 5.08132C12.9278 5.03653 12.9036 4.97622 12.9043 4.91363C12.9039 4.8826 12.9097 4.8518 12.9212 4.82298C12.9327 4.79417 12.9497 4.7679 12.9714 4.74569C12.9931 4.72347 13.0189 4.70574 13.0474 4.6935C13.0759 4.68127 13.1066 4.67477 13.1376 4.67438C13.2002 4.67517 13.2599 4.70077 13.3036 4.74555C13.3474 4.79034 13.3715 4.85066 13.3708 4.91325ZM16.0772 6.54375C16.0776 6.57478 16.0719 6.60558 16.0604 6.63439C16.0489 6.66321 16.0318 6.68947 16.0101 6.71169C15.9885 6.73391 15.9627 6.75164 15.9341 6.76387C15.9056 6.77611 15.875 6.78261 15.844 6.783C15.8129 6.78261 15.7823 6.77611 15.7538 6.76387C15.7253 6.75164 15.6994 6.73391 15.6778 6.71169C15.6561 6.68947 15.639 6.66321 15.6275 6.63439C15.616 6.60558 15.6103 6.57478 15.6107 6.54375C15.61 6.48116 15.6342 6.42084 15.6779 6.37605C15.7216 6.33127 15.7814 6.30567 15.844 6.30488C15.9065 6.30567 15.9663 6.33127 16.01 6.37605C16.0537 6.42084 16.0779 6.48116 16.0772 6.54375ZM15.1866 1.78612C15.1873 1.84872 15.1631 1.90903 15.1194 1.95382C15.0756 1.99861 15.0159 2.02421 14.9533 2.025C14.8907 2.02421 14.831 1.99861 14.7873 1.95382C14.7436 1.90903 14.7194 1.84872 14.7201 1.78612C14.7197 1.7551 14.7254 1.7243 14.7369 1.69548C14.7484 1.66667 14.7655 1.6404 14.7872 1.61819C14.8088 1.59597 14.8346 1.57824 14.8631 1.566C14.8917 1.55377 14.9223 1.54727 14.9533 1.54688C14.9844 1.54727 15.015 1.55377 15.0435 1.566C15.072 1.57824 15.0979 1.59597 15.1195 1.61819C15.1412 1.6404 15.1582 1.66667 15.1698 1.69548C15.1813 1.7243 15.187 1.7551 15.1866 1.78612ZM15.6977 4.04625C15.6977 4.26113 15.5278 4.4355 15.3178 4.4355C15.1082 4.4355 14.9383 4.26113 14.9383 4.04625C14.9383 3.83138 15.1082 3.657 15.3178 3.657C15.5278 3.657 15.6977 3.83138 15.6977 4.04625ZM16.0776 2.37675C16.0776 2.59163 15.9073 2.766 15.6977 2.766C15.4881 2.766 15.3182 2.59163 15.3182 2.37675C15.3182 2.16188 15.4877 1.9875 15.6977 1.9875C15.9077 1.9875 16.0776 2.16188 16.0776 2.37675ZM15.3306 5.781C15.3306 5.99588 15.1607 6.17025 14.9511 6.17025C14.7411 6.17025 14.5712 5.99588 14.5712 5.781C14.5712 5.56613 14.7415 5.39175 14.9511 5.39175C15.1611 5.39175 15.3306 5.56613 15.3306 5.781ZM16.1927 5.1525C16.1931 5.18353 16.1874 5.21433 16.1759 5.24314C16.1644 5.27196 16.1473 5.29822 16.1256 5.32044C16.104 5.34266 16.0782 5.36039 16.0496 5.37262C16.0211 5.38486 15.9905 5.39136 15.9595 5.39175C15.9284 5.39141 15.8977 5.38494 15.8692 5.37273C15.8406 5.36052 15.8147 5.34279 15.793 5.32057C15.7713 5.29835 15.7542 5.27207 15.7427 5.24323C15.7312 5.21439 15.7254 5.18356 15.7258 5.1525C15.7255 5.12147 15.7313 5.09069 15.7428 5.06189C15.7544 5.03309 15.7715 5.00686 15.7932 4.98467C15.8149 4.96249 15.8407 4.9448 15.8692 4.93261C15.8978 4.92042 15.9284 4.91397 15.9595 4.91363C16.022 4.91442 16.0818 4.94002 16.1255 4.9848C16.1692 5.02959 16.1934 5.08991 16.1927 5.1525Z" fill="#DB1B24"/>
<path d="M14.2376 12.5074C15.7924 12.279 17.1431 12.5741 18.0345 13.4655C18.9259 14.3569 19.221 15.708 18.9926 17.2624C20.2538 18.2006 21 19.3643 21 20.625C21 21.8857 20.2538 23.0494 18.9926 23.9873C19.221 25.5424 18.9259 26.8931 18.0345 27.7845C17.1431 28.6759 15.792 28.971 14.2372 28.7426C13.2997 30.0038 12.1357 30.75 10.875 30.75C9.61425 30.75 8.45062 30.0038 7.51275 28.7426C5.958 28.9714 4.60688 28.6759 3.7155 27.7845C2.82413 26.8931 2.529 25.542 2.75738 23.9873C1.49625 23.0498 0.75 21.8857 0.75 20.625C0.75 19.3643 1.49625 18.2006 2.75738 17.2624C2.529 15.708 2.82413 14.3569 3.7155 13.4655C4.60688 12.5741 5.958 12.279 7.51238 12.5074C8.45063 11.2466 9.61425 10.5 10.875 10.5C12.1357 10.5 13.2994 11.2463 14.2376 12.5074Z" fill="#DCA16A"/>
<path fill-rule="evenodd" clip-rule="evenodd" d="M14.5665 11.7135C16.0988 11.5748 17.544 11.9141 18.5647 12.9352C19.5859 13.9564 19.9249 15.4012 19.7869 16.9335C20.9681 17.9197 21.75 19.1812 21.75 20.625C21.75 22.0691 20.9681 23.3306 19.7869 24.3165C19.9252 25.8488 19.5859 27.294 18.5647 28.3147C17.5436 29.3359 16.0987 29.6752 14.5661 29.5369C13.5806 30.7181 12.3195 31.5 10.875 31.5C9.43125 31.5 8.16938 30.7181 7.18388 29.5369C5.65125 29.6752 4.20637 29.3359 3.18525 28.3147C2.16412 27.2936 1.82475 25.8488 1.96313 24.3165C0.781875 23.3303 0 22.0688 0 20.625C0 19.1809 0.781875 17.9194 1.96313 16.9335C1.82513 15.4012 2.16412 13.9564 3.18525 12.9352C4.20637 11.9141 5.65125 11.5751 7.1835 11.7135C8.16937 10.5319 9.43125 9.75 10.875 9.75C12.3191 9.75 13.5806 10.5319 14.5665 11.7135ZM14.2376 12.5074C13.2994 11.2466 12.1357 10.5 10.875 10.5C9.61425 10.5 8.45063 11.2463 7.51238 12.5074C5.95763 12.279 4.60688 12.5741 3.7155 13.4655C2.82413 14.3569 2.529 15.708 2.75738 17.2624C1.49625 18.2006 0.75 19.3643 0.75 20.625C0.75 21.8857 1.49625 23.0494 2.75738 23.9873C2.529 25.5424 2.82413 26.8931 3.7155 27.7845C4.60688 28.6759 5.958 28.971 7.51275 28.7426C8.45025 30.0038 9.61425 30.75 10.875 30.75C12.1357 30.75 13.2994 30.0038 14.2372 28.7426C15.7924 28.9714 17.1431 28.6759 18.0345 27.7845C18.9259 26.8931 19.221 25.542 18.9926 23.9873C20.2538 23.0498 21 21.8857 21 20.625C21 19.3643 20.2538 18.2006 18.9926 17.2624C19.221 15.708 18.9259 14.3569 18.0345 13.4655C17.1431 12.5741 15.792 12.279 14.2376 12.5074Z" fill="#C38144"/>
<path fill-rule="evenodd" clip-rule="evenodd" d="M20.25 20.25C20.3495 20.25 20.4448 20.2895 20.5152 20.3598C20.5855 20.4302 20.625 20.5255 20.625 20.625C20.625 21.8876 19.9136 23.0138 18.7913 23.904C18.9555 25.3268 18.6623 26.6265 17.7694 27.519C16.8765 28.4123 15.5767 28.7055 14.154 28.5413C13.2637 29.6636 12.1376 30.375 10.875 30.375C10.7755 30.375 10.6802 30.3355 10.6098 30.2652C10.5395 30.1948 10.5 30.0995 10.5 30C10.5 29.9005 10.5395 29.8052 10.6098 29.7348C10.6802 29.6645 10.7755 29.625 10.875 29.625C11.8823 29.625 12.8606 29.0291 13.6875 27.9176C13.7279 27.8633 13.7822 27.8209 13.8447 27.795C13.9073 27.769 13.9756 27.7605 14.0426 27.7703C15.4136 27.9716 16.5266 27.7013 17.2391 26.9891C17.9513 26.2766 18.2216 25.1636 18.0203 23.793C18.0104 23.726 18.0189 23.6575 18.0449 23.5949C18.0708 23.5323 18.1132 23.4779 18.1676 23.4375C19.2787 22.6106 19.875 21.6323 19.875 20.625C19.875 20.5255 19.9145 20.4302 19.9848 20.3598C20.0552 20.2895 20.1505 20.25 20.25 20.25Z" fill="#CF945D"/>
<path fill-rule="evenodd" clip-rule="evenodd" d="M10.875 11.625C9.86775 11.625 8.88937 12.2213 8.0625 13.3324C8.02209 13.3868 7.96769 13.4292 7.9051 13.4551C7.8425 13.4811 7.77404 13.4896 7.707 13.4797C6.33637 13.2784 5.22337 13.5491 4.51087 14.2612C3.79912 14.9734 3.52837 16.0864 3.72975 17.457C3.7396 17.524 3.73109 17.5925 3.70514 17.6551C3.67919 17.7177 3.63677 17.7721 3.58237 17.8125C2.47125 18.6394 1.875 19.6178 1.875 20.625C1.875 20.7245 1.83549 20.8198 1.76517 20.8902C1.69484 20.9605 1.59946 21 1.5 21C1.40054 21 1.30516 20.9605 1.23483 20.8902C1.16451 20.8198 1.125 20.7245 1.125 20.625C1.125 19.3624 1.83675 18.2363 2.95875 17.346C2.7945 15.9233 3.08812 14.6235 3.98062 13.731C4.8735 12.8381 6.17325 12.5449 7.59563 12.7087C8.48625 11.5867 9.61275 10.875 10.875 10.875C10.9745 10.875 11.0698 10.9145 11.1402 10.9848C11.2105 11.0552 11.25 11.1505 11.25 11.25C11.25 11.3495 11.2105 11.4448 11.1402 11.5152C11.0698 11.5855 10.9745 11.625 10.875 11.625Z" fill="#F0B57F"/>
<path d="M13.3657 14.6119C14.5174 14.4431 15.5182 14.6614 16.1782 15.3218C16.8386 15.9818 17.0573 16.983 16.8881 18.1343C17.8219 18.8291 18.375 19.6912 18.375 20.625C18.375 21.5588 17.8219 22.4212 16.8881 23.1157C17.0569 24.2674 16.8386 25.2682 16.1782 25.9282C15.5182 26.5886 14.5174 26.8073 13.3657 26.6381C12.6709 27.5719 11.8088 28.125 10.875 28.125C9.94125 28.125 9.07913 27.5719 8.38425 26.6381C7.23263 26.8073 6.23175 26.5886 5.57175 25.9282C4.91138 25.2682 4.69275 24.2674 4.86188 23.1157C3.92813 22.4209 3.375 21.5588 3.375 20.625C3.375 19.6912 3.92813 18.8288 4.86188 18.1343C4.69313 16.9826 4.91138 15.9818 5.57175 15.3218C6.23175 14.6618 7.23263 14.4428 8.38425 14.6119C9.07913 13.6781 9.94125 13.125 10.875 13.125C11.8088 13.125 12.6712 13.6781 13.3657 14.6119Z" fill="#F7BA82"/>
<path fill-rule="evenodd" clip-rule="evenodd" d="M5.57175 25.9282C4.91138 25.2682 4.69275 24.2674 4.86188 23.1157C3.92813 22.4209 3.375 21.5588 3.375 20.625C3.375 19.6912 3.92813 18.8288 4.86188 18.1343C4.69313 16.9826 4.91138 15.9818 5.57175 15.3218C6.23175 14.6618 7.23263 14.4427 8.38425 14.6119C9.07913 13.6781 9.94125 13.125 10.875 13.125C11.8088 13.125 12.6712 13.6781 13.3657 14.6119C14.5174 14.4431 15.5182 14.6614 16.1782 15.3218C16.8386 15.9818 17.0573 16.983 16.8881 18.1343C17.8219 18.8291 18.375 19.6912 18.375 20.625C18.375 21.5588 17.8219 22.4212 16.8881 23.1157C17.0569 24.2674 16.8386 25.2682 16.1782 25.9282C15.5182 26.5886 14.5174 26.8073 13.3657 26.6381C12.6709 27.5719 11.8088 28.125 10.875 28.125C9.94125 28.125 9.07913 27.5719 8.38425 26.6381C7.23263 26.8073 6.23175 26.5886 5.57175 25.9282ZM8.05725 27.4282C6.92025 27.5107 5.82788 27.2452 5.0415 26.4589C4.25475 25.6721 3.98962 24.5798 4.07175 23.4427C3.21 22.6973 2.625 21.7373 2.625 20.625C2.625 19.5128 3.21 18.5528 4.07175 17.8069C3.98962 16.6706 4.25475 15.5779 5.0415 14.7915C5.82788 14.0048 6.92025 13.7396 8.05688 13.8218C8.80275 12.96 9.76275 12.375 10.875 12.375C11.9876 12.375 12.9472 12.96 13.6931 13.8218C14.8294 13.7396 15.9221 14.0048 16.7085 14.7915C17.4952 15.5779 17.7604 16.6703 17.6782 17.8069C18.54 18.5528 19.125 19.5131 19.125 20.625C19.125 21.7373 18.54 22.6973 17.6782 23.4427C17.7604 24.5798 17.4952 25.6721 16.7085 26.4589C15.9221 27.2452 14.8298 27.5104 13.6927 27.4282C12.9473 28.29 11.9873 28.875 10.875 28.875C9.76275 28.875 8.80275 28.29 8.05725 27.4282Z" fill="#C28044"/>
<path fill-rule="evenodd" clip-rule="evenodd" d="M17.625 20.25C17.7245 20.25 17.8198 20.2895 17.8902 20.3598C17.9605 20.4302 18 20.5255 18 20.625C18 21.5588 17.4832 22.3837 16.6852 23.0317C16.7914 24.054 16.5735 25.0027 15.9131 25.6631C15.2528 26.3235 14.3044 26.5414 13.2817 26.4356C12.6337 27.2329 11.8088 27.75 10.875 27.75C10.7755 27.75 10.6802 27.7105 10.6098 27.6402C10.5395 27.5698 10.5 27.4745 10.5 27.375C10.5 27.2755 10.5395 27.1802 10.6098 27.1098C10.6802 27.0395 10.7755 27 10.875 27C11.5553 27 12.2321 26.5976 12.8156 25.8131C12.856 25.7587 12.9104 25.7163 12.973 25.6904C13.0356 25.6644 13.1041 25.6559 13.1711 25.6658C14.1386 25.8079 14.9018 25.614 15.3829 25.1329C15.864 24.6518 16.0579 23.8886 15.9158 22.9211C15.9059 22.8541 15.9143 22.7857 15.9402 22.7231C15.9661 22.6605 16.0084 22.6061 16.0627 22.5656C16.8476 21.9825 17.25 21.3056 17.25 20.625C17.25 20.5255 17.2895 20.4302 17.3598 20.3598C17.4302 20.2895 17.5255 20.25 17.625 20.25Z" fill="#E5A66C"/>
<path fill-rule="evenodd" clip-rule="evenodd" d="M10.875 14.25C10.1947 14.25 9.51788 14.6524 8.93438 15.4373C8.89392 15.4916 8.8395 15.5339 8.77691 15.5598C8.71432 15.5857 8.64588 15.5941 8.57887 15.5842C7.61137 15.4421 6.84825 15.6364 6.36713 16.1171C5.88637 16.5982 5.69212 17.3614 5.83425 18.3289C5.84414 18.3959 5.83569 18.4643 5.80981 18.5269C5.78393 18.5895 5.74157 18.6439 5.68725 18.6844C4.90238 19.2675 4.5 19.9444 4.5 20.625C4.5 20.7245 4.46049 20.8198 4.39017 20.8902C4.31984 20.9605 4.22446 21 4.125 21C4.02554 21 3.93016 20.9605 3.85983 20.8902C3.78951 20.8198 3.75 20.7245 3.75 20.625C3.75 19.6912 4.26675 18.8663 5.06475 18.2183C4.95863 17.196 5.1765 16.2472 5.83687 15.5869C6.49725 14.9265 7.44563 14.7086 8.46825 14.8144C9.11625 14.0171 9.94088 13.5 10.875 13.5C10.9745 13.5 11.0698 13.5395 11.1402 13.6098C11.2105 13.6802 11.25 13.7755 11.25 13.875C11.25 13.9745 11.2105 14.0698 11.1402 14.1402C11.0698 14.2105 10.9745 14.25 10.875 14.25Z" fill="#FFD5AE"/>
<path d="M9.97627 19.8634H10.6531C10.9756 19.8634 11.2141 19.7828 11.3694 19.6215C11.5246 19.4603 11.6023 19.2465 11.6023 18.9803C11.6023 18.7223 11.5246 18.5217 11.3698 18.378C11.2171 18.2344 11.006 18.1628 10.7368 18.1628C10.4934 18.1628 10.2898 18.2303 10.1255 18.3649C9.96165 18.4965 9.8799 18.6694 9.8799 18.8835H8.6094C8.6094 18.5494 8.69865 18.2505 8.87752 17.9869C9.05902 17.7203 9.31102 17.5122 9.63315 17.3629C9.95865 17.2133 10.3156 17.1387 10.7056 17.1387C11.3821 17.1387 11.9124 17.3014 12.2964 17.6262C12.68 17.9487 12.872 18.3942 12.872 18.9623C12.872 19.2555 12.7828 19.5248 12.6039 19.7712C12.4234 20.0186 12.1809 20.214 11.9008 20.3378C12.2611 20.4668 12.5293 20.6603 12.7051 20.9179C12.8836 21.1759 12.9733 21.4804 12.9733 21.8322C12.9733 22.4003 12.7651 22.8559 12.3493 23.1987C11.936 23.5414 11.3881 23.7128 10.7056 23.7128C10.067 23.7128 9.5439 23.5444 9.13665 23.2077C8.7324 22.8705 8.53027 22.4254 8.53027 21.8715H9.8004C9.8004 22.1115 9.88965 22.308 10.0685 22.4603C10.25 22.6129 10.4728 22.689 10.736 22.689C11.0383 22.689 11.2738 22.6099 11.444 22.4517C11.6165 22.2904 11.7028 22.0782 11.7028 21.8142C11.7028 21.1759 11.3514 20.8564 10.6483 20.8564H9.9759V19.8638L9.97627 19.8634Z" fill="#FFD5AE"/>
<path fill-rule="evenodd" clip-rule="evenodd" d="M9.26288 19.6332H8.61037C8.41146 19.6332 8.2207 19.5542 8.08005 19.4135C7.93939 19.2729 7.86037 19.0821 7.86037 18.8832C7.86037 18.4069 7.9905 17.9603 8.25787 17.5662L8.25862 17.5647C8.52412 17.1747 8.88637 16.8829 9.31875 16.6823L9.321 16.6812C9.753 16.4828 10.2184 16.3887 10.7066 16.3887C11.4986 16.3887 12.2213 16.5799 12.7811 17.0532C13.3575 17.538 13.623 18.2063 13.623 18.9623C13.6236 19.4121 13.4795 19.8502 13.212 20.2118C13.1946 20.2356 13.1769 20.2591 13.1588 20.2823C13.2176 20.3483 13.2731 20.4184 13.3237 20.493C13.599 20.8905 13.7242 21.348 13.7242 21.8318C13.7242 22.6099 13.4269 23.283 12.828 23.7765C12.2475 24.258 11.5151 24.4628 10.7066 24.4628C9.93112 24.4628 9.22762 24.2554 8.6595 23.7855L8.65763 23.7837C8.07263 23.2962 7.78125 22.6347 7.78125 21.8715C7.78125 21.6726 7.86027 21.4819 8.00092 21.3412C8.14157 21.2006 8.33234 21.1215 8.53125 21.1215H9.27525C9.24321 21.0368 9.22682 20.947 9.22687 20.8564V19.8638C9.22687 19.7835 9.23963 19.7059 9.26288 19.6332ZM10.503 21.6064C10.5369 21.6957 10.5535 21.7907 10.5518 21.8862C10.5525 21.8868 10.5532 21.8874 10.554 21.888C10.5851 21.9135 10.6316 21.939 10.7374 21.939C10.8236 21.939 10.8754 21.9278 10.902 21.9184C10.9134 21.9156 10.9241 21.9105 10.9335 21.9034M10.503 21.6064H10.6492C10.8356 21.6064 10.9117 21.6387 10.9324 21.6495L10.9343 21.6537C10.9498 21.7058 10.9565 21.7602 10.9541 21.8145C10.9553 21.8413 10.9512 21.8681 10.9421 21.8933C10.9396 21.8968 10.9367 21.9005 10.9335 21.9034M12.3502 23.1987C12.7661 22.8559 12.9742 22.4003 12.9742 21.8322C12.9742 21.4804 12.8846 21.1759 12.7061 20.9179C12.6771 20.8755 12.6455 20.8348 12.6116 20.796C12.4395 20.5984 12.2029 20.4458 11.9017 20.3378C12.1817 20.2138 12.4242 20.0184 12.6049 19.7712C12.7795 19.5377 12.8736 19.2538 12.873 18.9623C12.873 18.3942 12.681 17.9487 12.2974 17.6265C11.9137 17.3014 11.3831 17.139 10.7066 17.139C10.3166 17.139 9.95963 17.2133 9.63413 17.3629C9.312 17.5122 9.06037 17.7203 8.8785 17.9869C8.70055 18.2517 8.60706 18.5642 8.61037 18.8832H9.8805C9.8805 18.6694 9.96225 18.4969 10.1265 18.3649C10.2904 18.2299 10.494 18.1624 10.7374 18.1624C11.007 18.1624 11.2177 18.2344 11.37 18.378C11.5252 18.5217 11.6029 18.7223 11.6029 18.9799C11.6029 19.2465 11.5252 19.4607 11.3704 19.6215C11.2147 19.7828 10.9762 19.8634 10.6541 19.8634H9.97687V20.8564H10.6492C11.3524 20.8564 11.7041 21.1759 11.7041 21.8145C11.7041 22.0782 11.6179 22.2908 11.445 22.452C11.2748 22.6099 11.0389 22.689 10.7374 22.689C10.4737 22.689 10.251 22.6129 10.0695 22.4603C9.89063 22.308 9.80138 22.1115 9.80138 21.8715H8.53125C8.53125 22.149 8.58187 22.3988 8.68312 22.6215C8.78437 22.8439 8.93588 23.0393 9.13763 23.2077C9.54488 23.5444 10.0676 23.7128 10.7066 23.7128C11.3891 23.7128 11.937 23.541 12.3502 23.1987ZM10.5945 19.1138C10.6132 19.0549 10.6253 18.993 10.629 18.9289C10.6638 18.9168 10.7006 18.9114 10.7374 18.9132C10.7974 18.9132 10.8322 18.9199 10.8491 18.9248C10.8514 18.9364 10.8529 18.9548 10.8529 18.9803C10.8543 19.0182 10.8488 19.0561 10.8367 19.092C10.7773 19.1088 10.7155 19.1161 10.6537 19.1138H10.5945Z" fill="#C28044"/>
</svg>
