<svg width="27" height="31" viewBox="0 0 27 31" fill="none" xmlns="http://www.w3.org/2000/svg">
<path d="M16.1044 9.57482C16.0547 9.48869 15.9727 9.42585 15.8767 9.40011C15.7806 9.37437 15.6783 9.38784 15.5921 9.43757L8.44726 13.5626C8.36113 13.6123 8.29828 13.6942 8.27254 13.7903C8.2468 13.8863 8.26028 13.9887 8.31001 14.0748L17.5223 30.0311C17.5562 30.0898 17.6055 30.1382 17.6649 30.1711C17.7242 30.204 17.7913 30.2202 17.8591 30.218C17.927 30.2158 17.9929 30.1952 18.0499 30.1584C18.107 30.1217 18.153 30.0701 18.183 30.0093L20.1589 26.0137C20.1917 25.9474 20.2433 25.8922 20.3074 25.8552C20.3715 25.8181 20.445 25.8009 20.5189 25.8056L24.9675 26.0924C25.0352 26.0968 25.1029 26.0827 25.1632 26.0516C25.2235 26.0205 25.2743 25.9737 25.3101 25.916C25.3459 25.8583 25.3654 25.7921 25.3665 25.7242C25.3675 25.6563 25.3502 25.5895 25.3163 25.5307L16.1044 9.57482Z" fill="#C52229"/>
<path fill-rule="evenodd" clip-rule="evenodd" d="M15.2161 8.78833L8.07126 12.9133C7.81288 13.0625 7.62434 13.3082 7.54712 13.5964C7.4699 13.8846 7.51033 14.1917 7.65951 14.4501L16.8718 30.4063C17.321 31.1841 18.4561 31.1477 18.8544 30.3422L20.7193 26.5705L24.9181 26.8412C25.8148 26.899 26.4144 25.9341 25.9648 25.156L16.7529 9.20008C16.679 9.07209 16.5806 8.95991 16.4634 8.86995C16.3462 8.77999 16.2124 8.714 16.0696 8.67576C15.9269 8.63753 15.778 8.62779 15.6315 8.6471C15.485 8.66642 15.3441 8.71441 15.2161 8.78833ZM15.5911 9.43783C15.6773 9.3881 15.7796 9.37463 15.8757 9.40037C15.9717 9.42611 16.0537 9.48895 16.1034 9.57508L25.3153 25.5313C25.3491 25.5901 25.3664 25.6569 25.3652 25.7247C25.3641 25.7925 25.3446 25.8587 25.3088 25.9163C25.273 25.9739 25.2223 26.0208 25.162 26.0518C25.1018 26.0829 25.0342 26.097 24.9665 26.0927L20.5183 25.8058C20.4444 25.8011 20.3707 25.8183 20.3066 25.8553C20.2424 25.8924 20.1907 25.9476 20.1579 26.014L18.182 30.01C18.1519 30.0707 18.1058 30.1222 18.0488 30.1589C17.9917 30.1956 17.9257 30.2161 17.8579 30.2182C17.7901 30.2204 17.723 30.2041 17.6637 30.1711C17.6044 30.1382 17.5552 30.0897 17.5213 30.031L8.30901 14.0751C8.25928 13.989 8.24581 13.8866 8.27155 13.7905C8.29728 13.6945 8.36013 13.6126 8.44626 13.5628L15.5911 9.43783Z" fill="#9B0F15"/>
<path fill-rule="evenodd" clip-rule="evenodd" d="M14.2428 22.8146C14.3294 22.7656 14.4318 22.7529 14.5277 22.7794C14.6235 22.806 14.7049 22.8695 14.754 22.956L18.129 28.9087C18.1781 28.9953 18.1908 29.0977 18.1643 29.1936C18.1378 29.2895 18.0743 29.371 17.9878 29.42C17.9013 29.4691 17.7988 29.4818 17.7029 29.4553C17.607 29.4289 17.5256 29.3654 17.4765 29.2789L14.1015 23.3257C14.0524 23.2392 14.0398 23.1367 14.0663 23.0409C14.0928 22.945 14.1563 22.8636 14.2428 22.8146Z" fill="#DF3840"/>
<path d="M21.8492 21.8217C21.7626 21.8732 21.6591 21.888 21.5615 21.8632C21.4639 21.8383 21.3802 21.7756 21.3287 21.689C21.2795 21.6011 21.2671 21.4973 21.2944 21.4003C21.3217 21.3033 21.3864 21.2212 21.4742 21.1719C21.5609 21.1205 21.6644 21.1056 21.762 21.1305C21.8596 21.1554 21.9433 21.218 21.9947 21.3046C22.044 21.3925 22.0564 21.4963 22.0291 21.5933C22.0018 21.6903 21.9371 21.7725 21.8492 21.8217ZM21.1094 20.7275C20.8806 20.8595 20.5907 20.786 20.4617 20.5625C20.3331 20.3394 20.4141 20.0514 20.6429 19.9194C20.8716 19.7874 21.1615 19.8612 21.2901 20.0844C21.4191 20.3075 21.3381 20.5955 21.1094 20.7275ZM20.5075 22.4232C20.2787 22.5552 19.9885 22.4814 19.8599 22.2582C19.7309 22.0351 19.8119 21.7471 20.0406 21.6151C20.2694 21.4831 20.5592 21.5566 20.6882 21.7801C20.8169 22.0032 20.7362 22.2912 20.5075 22.4232ZM21.6051 23.0214C21.5513 23.0533 21.4869 23.0626 21.4262 23.0471C21.3655 23.0316 21.3135 22.9927 21.2815 22.9389C21.2663 22.9118 21.2566 22.882 21.2529 22.8512C21.2492 22.8204 21.2516 22.7892 21.26 22.7593C21.2684 22.7294 21.2826 22.7015 21.3018 22.6771C21.321 22.6527 21.3448 22.6323 21.3719 22.6171C21.4257 22.5852 21.4901 22.5759 21.5508 22.5914C21.6114 22.6069 21.6635 22.6458 21.6955 22.6996C21.7262 22.7542 21.734 22.8188 21.7171 22.8791C21.7002 22.9395 21.6597 22.9906 21.6051 23.0214ZM20.014 21.0905C19.9601 21.1224 19.8958 21.1317 19.8351 21.1162C19.7744 21.1008 19.7224 21.0618 19.6904 21.008C19.6598 20.9534 19.652 20.8889 19.6689 20.8287C19.6858 20.7684 19.7259 20.7174 19.7804 20.6866C19.807 20.6707 19.8366 20.6603 19.8673 20.6558C19.8981 20.6514 19.9294 20.653 19.9595 20.6607C19.9896 20.6684 20.0178 20.6819 20.0427 20.7005C20.0676 20.7191 20.0885 20.7424 20.1044 20.7691C20.1349 20.8237 20.1426 20.8882 20.1257 20.9485C20.1087 21.0088 20.0686 21.0598 20.014 21.0905ZM20.6309 19.2331C20.577 19.2651 20.5127 19.2743 20.452 19.2589C20.3913 19.2434 20.3392 19.2045 20.3072 19.1506C20.2766 19.0961 20.2689 19.0316 20.2858 18.9713C20.3027 18.9111 20.3427 18.86 20.3972 18.8292C20.4239 18.8134 20.4535 18.8029 20.4842 18.7985C20.5149 18.794 20.5463 18.7957 20.5763 18.8033C20.6064 18.811 20.6347 18.8245 20.6596 18.8431C20.6844 18.8617 20.7054 18.885 20.7212 18.9117C20.7518 18.9664 20.7595 19.0309 20.7425 19.0911C20.7256 19.1514 20.6854 19.2024 20.6309 19.2331ZM20.0429 23.654C19.989 23.6859 19.9247 23.6952 19.864 23.6797C19.8033 23.6643 19.7512 23.6253 19.7192 23.5715C19.704 23.5444 19.6943 23.5146 19.6906 23.4838C19.6869 23.453 19.6894 23.4218 19.6978 23.3919C19.7062 23.362 19.7204 23.3341 19.7395 23.3097C19.7587 23.2853 19.7825 23.2649 19.8096 23.2497C19.8635 23.2178 19.9278 23.2085 19.9885 23.224C20.0492 23.2395 20.1012 23.2784 20.1332 23.3322C20.164 23.3868 20.1718 23.4514 20.1549 23.5118C20.138 23.5721 20.0975 23.6233 20.0429 23.654ZM24.3122 25.5237C24.2584 25.5557 24.194 25.5649 24.1333 25.5495C24.0727 25.534 24.0206 25.4951 23.9886 25.4412C23.958 25.3866 23.9504 25.3221 23.9673 25.2619C23.9843 25.2016 24.0244 25.1505 24.079 25.1199C24.1057 25.104 24.1352 25.0935 24.166 25.0891C24.1967 25.0846 24.228 25.0863 24.2581 25.094C24.2882 25.1016 24.3165 25.1151 24.3413 25.1337C24.3662 25.1523 24.3871 25.1757 24.403 25.2024C24.4335 25.257 24.4411 25.3216 24.4241 25.3818C24.4071 25.4421 24.3669 25.4931 24.3122 25.5237ZM22.852 22.7427C22.8253 22.7586 22.7957 22.7691 22.765 22.7735C22.7343 22.778 22.703 22.7763 22.6729 22.7687C22.6428 22.761 22.6145 22.7475 22.5896 22.7289C22.5648 22.7103 22.5438 22.687 22.528 22.6602C22.4974 22.6056 22.4898 22.541 22.5069 22.4808C22.5239 22.4205 22.5641 22.3695 22.6187 22.3389C22.6726 22.3069 22.7369 22.2977 22.7976 22.3131C22.8583 22.3286 22.9104 22.3675 22.9424 22.4214C22.9729 22.476 22.9806 22.5405 22.9637 22.6008C22.9467 22.661 22.9066 22.7121 22.852 22.7427ZM21.1502 24.3155C21.0625 24.3675 20.9578 24.3825 20.859 24.3574C20.7602 24.3322 20.6755 24.2689 20.6234 24.1812C20.5986 24.1372 20.5828 24.0888 20.5768 24.0386C20.5708 23.9885 20.5747 23.9377 20.5884 23.889C20.6021 23.8404 20.6251 23.795 20.6564 23.7553C20.6876 23.7156 20.7263 23.6825 20.7704 23.6577C20.8138 23.632 20.8618 23.615 20.9118 23.6078C20.9618 23.6005 21.0127 23.6032 21.0616 23.6157C21.1105 23.6282 21.1565 23.6502 21.197 23.6804C21.2374 23.7107 21.2715 23.7486 21.2972 23.792C21.4022 23.9735 21.3362 24.2082 21.1502 24.3155ZM22.7856 23.8092C22.7422 23.8351 22.6942 23.8521 22.6442 23.8593C22.5943 23.8665 22.5434 23.8639 22.4944 23.8514C22.4455 23.839 22.3995 23.8171 22.3591 23.7868C22.3186 23.7566 22.2845 23.7188 22.2587 23.6754C22.234 23.6313 22.2182 23.5828 22.2122 23.5327C22.2063 23.4825 22.2102 23.4317 22.2239 23.3831C22.2376 23.3345 22.2608 23.289 22.292 23.2493C22.3233 23.2097 22.362 23.1765 22.4061 23.1519C22.4495 23.1261 22.4976 23.1091 22.5476 23.1019C22.5975 23.0947 22.6484 23.0974 22.6974 23.1098C22.7463 23.1223 22.7923 23.1443 22.8327 23.1745C22.8731 23.2048 22.9072 23.2427 22.933 23.2861C23.038 23.4676 22.9716 23.702 22.7856 23.8092ZM22.714 25.103C22.6706 25.1288 22.6225 25.1458 22.5725 25.153C22.5226 25.1602 22.4717 25.1575 22.4227 25.145C22.3738 25.1326 22.3278 25.1106 22.2874 25.0803C22.247 25.0501 22.2129 25.0122 22.1871 24.9687C22.1624 24.9247 22.1466 24.8763 22.1406 24.8261C22.1346 24.776 22.1385 24.7252 22.1521 24.6765C22.1658 24.6279 22.1889 24.5825 22.2201 24.5428C22.2513 24.5031 22.2901 24.47 22.3341 24.4452C22.3775 24.4195 22.4256 24.4025 22.4756 24.3953C22.5255 24.388 22.5764 24.3907 22.6254 24.4032C22.6743 24.4157 22.7203 24.4377 22.7607 24.4679C22.8011 24.4982 22.8352 24.5361 22.861 24.5795C22.966 24.761 22.9 24.9954 22.714 25.103ZM23.9372 24.3991C23.8834 24.4311 23.819 24.4403 23.7583 24.4249C23.6977 24.4094 23.6456 24.3705 23.6136 24.3166C23.583 24.262 23.5754 24.1975 23.5923 24.1372C23.6093 24.077 23.6494 24.0259 23.704 23.9952C23.7307 23.9794 23.7602 23.9689 23.791 23.9645C23.8217 23.96 23.853 23.9617 23.8831 23.9693C23.9132 23.977 23.9415 23.9905 23.9663 24.0091C23.9912 24.0277 24.0121 24.051 24.028 24.0777C24.0585 24.1324 24.0661 24.197 24.0491 24.2572C24.0321 24.3175 23.9919 24.3685 23.9372 24.3991Z" fill="#AA161D"/>
<path fill-rule="evenodd" clip-rule="evenodd" d="M20.5129 25.1275C20.5205 25.0283 20.5673 24.9363 20.6428 24.8716C20.7183 24.8069 20.8165 24.7748 20.9156 24.7825L24.5486 25.0637C24.6478 25.0714 24.7398 25.1182 24.8045 25.1938C24.8691 25.2694 24.9011 25.3675 24.8934 25.4667C24.8857 25.5658 24.8389 25.6579 24.7634 25.7225C24.6878 25.7872 24.5896 25.8192 24.4905 25.8115L20.8579 25.5302C20.8087 25.5264 20.7608 25.513 20.7169 25.4907C20.673 25.4684 20.6339 25.4376 20.6018 25.4002C20.5698 25.3627 20.5454 25.3194 20.5302 25.2725C20.5149 25.2256 20.509 25.1766 20.5129 25.1275Z" fill="#DF3840"/>
<path d="M10.186 9.57482C10.2357 9.48869 10.3176 9.42585 10.4137 9.40011C10.5097 9.37437 10.6121 9.38784 10.6982 9.43757L17.8431 13.5626C17.9292 13.6123 17.9921 13.6942 18.0178 13.7903C18.0435 13.8863 18.0301 13.9887 17.9803 14.0748L8.76808 30.0311C8.73412 30.0899 8.68482 30.1384 8.62545 30.1714C8.56609 30.2043 8.49888 30.2206 8.431 30.2184C8.36312 30.2161 8.29712 30.1955 8.24005 30.1587C8.18298 30.1219 8.13698 30.0702 8.10695 30.0093L6.13145 26.0137C6.09865 25.9473 6.04692 25.8921 5.98279 25.8551C5.91865 25.818 5.84499 25.8008 5.77108 25.8056L1.32283 26.0924C1.2551 26.0968 1.18747 26.0827 1.12713 26.0516C1.0668 26.0205 1.01603 25.9737 0.980233 25.916C0.944437 25.8583 0.92496 25.7921 0.923876 25.7242C0.922792 25.6563 0.940144 25.5895 0.97408 25.5307L10.186 9.57482Z" fill="#F1333B"/>
<path fill-rule="evenodd" clip-rule="evenodd" d="M11.0721 8.78817L18.2169 12.9132C18.4753 13.0624 18.6639 13.3081 18.7411 13.5963C18.8183 13.8845 18.7779 14.1915 18.6287 14.4499L9.41606 30.4062C8.96681 31.1839 7.83168 31.1475 7.43343 30.342L5.56856 26.5703L1.36968 26.841C0.47268 26.8988 -0.12657 25.9339 0.32268 25.1558L9.53493 9.19992C9.68412 8.94154 9.92984 8.753 10.218 8.67578C10.5062 8.59857 10.8137 8.63899 11.0721 8.78817ZM10.6971 9.43767C10.6109 9.38794 10.5086 9.37447 10.4125 9.40021C10.3164 9.42595 10.2345 9.48879 10.1848 9.57492L0.972555 25.5312C0.938718 25.5899 0.921447 25.6568 0.92258 25.7246C0.923714 25.7924 0.943209 25.8586 0.978992 25.9162C1.01477 25.9738 1.0655 26.0206 1.12578 26.0517C1.18606 26.0827 1.25363 26.0968 1.3213 26.0925L5.76993 25.8057C5.84378 25.801 5.91736 25.8182 5.98142 25.8553C6.04548 25.8923 6.09715 25.9475 6.12993 26.0138L8.10618 30.0098C8.13631 30.0706 8.18236 30.1221 8.23943 30.1587C8.2965 30.1954 8.36246 30.2159 8.43027 30.2181C8.49808 30.2202 8.5652 30.204 8.62449 30.171C8.68378 30.138 8.73301 30.0896 8.76693 30.0308L17.9792 14.0749C18.0289 13.9888 18.0424 13.8864 18.0166 13.7904C17.9909 13.6943 17.9281 13.6124 17.8419 13.5627L10.6971 9.43767Z" fill="#9B0F15"/>
<path fill-rule="evenodd" clip-rule="evenodd" d="M10.7476 9.83908C10.8336 9.88894 10.8963 9.9709 10.9219 10.067C10.9475 10.163 10.9339 10.2653 10.8841 10.3513L2.04835 25.6093C2.02445 25.6534 1.99195 25.6922 1.95279 25.7235C1.91363 25.7548 1.86859 25.7779 1.82034 25.7915C1.77209 25.805 1.72161 25.8088 1.67188 25.8025C1.62215 25.7963 1.57418 25.7801 1.5308 25.755C1.48743 25.7299 1.44953 25.6963 1.41935 25.6563C1.38917 25.6163 1.36732 25.5706 1.35509 25.522C1.34286 25.4734 1.34049 25.4228 1.34814 25.3733C1.35579 25.3237 1.37329 25.2762 1.3996 25.2336L10.2354 9.97558C10.2852 9.88969 10.3671 9.82707 10.4631 9.80148C10.559 9.77589 10.6616 9.78941 10.7476 9.83908ZM6.62335 25.7166C6.71292 25.6734 6.81597 25.6675 6.90985 25.7003C7.00373 25.7331 7.08075 25.8018 7.12398 25.8913L8.74135 29.2427C8.78462 29.3323 8.79053 29.4353 8.75779 29.5293C8.72506 29.6232 8.65635 29.7003 8.56679 29.7435C8.47723 29.7868 8.37415 29.7927 8.28023 29.76C8.18631 29.7272 8.10924 29.6585 8.06598 29.569L6.4486 26.2172C6.40541 26.1276 6.39955 26.0246 6.43232 25.9307C6.46509 25.8368 6.5338 25.7598 6.62335 25.7166Z" fill="#FE666D"/>
<path d="M16.3607 3.00713C17.9154 2.77876 19.2662 3.07388 20.1575 3.96526C21.0489 4.85663 21.344 6.20776 21.1157 7.76251C22.3768 8.70001 23.123 9.86363 23.123 11.1248C23.123 12.3855 22.3768 13.5491 21.1157 14.4874C21.344 16.0421 21.0489 17.3929 20.1575 18.2843C19.2662 19.1756 17.915 19.4708 16.3603 19.2424C15.4228 20.5035 14.2588 21.2498 12.998 21.2498C11.7373 21.2498 10.5737 20.5035 9.6358 19.2424C8.08105 19.4711 6.72992 19.1756 5.83855 18.2843C4.94717 17.3929 4.65205 16.0418 4.88042 14.4874C3.6193 13.5491 2.87305 12.3855 2.87305 11.1248C2.87305 9.86401 3.6193 8.70038 4.88042 7.76251C4.65205 6.20776 4.94717 4.85663 5.83855 3.96526C6.72992 3.07388 8.08105 2.77876 9.63542 3.00713C10.5737 1.74638 11.7373 0.999756 12.998 0.999756C14.2588 0.999756 15.4224 1.74601 16.3607 3.00713Z" fill="#FFBB0D"/>
<path fill-rule="evenodd" clip-rule="evenodd" d="M16.6876 2.2135C18.2198 2.07475 19.6651 2.41413 20.6858 3.43525C21.707 4.45638 22.046 5.90125 21.908 7.4335C23.0892 8.41975 23.8711 9.68125 23.8711 11.125C23.8711 12.5691 23.0892 13.8306 21.908 14.8165C22.0463 16.3488 21.707 17.794 20.6858 18.8148C19.6647 19.8359 18.2198 20.1752 16.6872 20.0369C15.7017 21.2181 14.4406 22 12.9961 22C11.5523 22 10.2905 21.2181 9.30497 20.0369C7.77234 20.1752 6.32747 19.8359 5.30634 18.8148C4.28522 17.7936 3.94584 16.3488 4.08422 14.8165C2.90297 13.8303 2.12109 12.5688 2.12109 11.125C2.12109 9.68087 2.90297 8.41938 4.08422 7.4335C3.94622 5.90125 4.28522 4.45638 5.30634 3.43525C6.32747 2.41413 7.77234 2.07512 9.30459 2.2135C10.2905 1.03188 11.5523 0.25 12.9961 0.25C14.4402 0.25 15.7017 1.03188 16.6876 2.2135ZM16.3587 3.00737C15.4205 1.74662 14.2568 1 12.9961 1C11.7353 1 10.5717 1.74625 9.63347 3.00737C8.07872 2.779 6.72797 3.07413 5.83659 3.9655C4.94522 4.85687 4.65009 6.208 4.87847 7.76275C3.61734 8.70025 2.87109 9.86388 2.87109 11.125C2.87109 12.3857 3.61734 13.5494 4.87847 14.4876C4.65009 16.0424 4.94522 17.3931 5.83659 18.2845C6.72797 19.1759 8.07909 19.471 9.63384 19.2426C10.5713 20.5037 11.7353 21.25 12.9961 21.25C14.2568 21.25 15.4205 20.5037 16.3583 19.2426C17.9135 19.4714 19.2642 19.1759 20.1556 18.2845C21.047 17.3931 21.3421 16.042 21.1137 14.4876C22.3748 13.5494 23.1211 12.3857 23.1211 11.125C23.1211 9.86425 22.3748 8.70063 21.1137 7.76275C21.3421 6.208 21.047 4.85725 20.1556 3.9655C19.2642 3.07413 17.9131 2.779 16.3587 3.00737Z" fill="#E89B05"/>
<path fill-rule="evenodd" clip-rule="evenodd" d="M22.3721 10.7502C22.4715 10.7502 22.5669 10.7898 22.6372 10.8601C22.7076 10.9304 22.7471 11.0258 22.7471 11.1252C22.7471 12.3879 22.0357 13.514 20.9133 14.4042C21.0776 15.827 20.7843 17.1267 19.8914 18.0192C18.9986 18.9125 17.6988 19.2057 16.2761 19.0415C15.3858 20.1639 14.2597 20.8752 12.9971 20.8752C12.8976 20.8752 12.8022 20.8357 12.7319 20.7654C12.6616 20.6951 12.6221 20.5997 12.6221 20.5002C12.6221 20.4008 12.6616 20.3054 12.7319 20.2351C12.8022 20.1648 12.8976 20.1252 12.9971 20.1252C14.0043 20.1252 14.9827 19.5294 15.8096 18.4179C15.85 18.3635 15.9043 18.3212 15.9668 18.2952C16.0293 18.2693 16.0977 18.2607 16.1647 18.2705C17.5357 18.4719 18.6487 18.2015 19.3612 17.4894C20.0733 16.7769 20.3437 15.6639 20.1423 14.2932C20.1325 14.2262 20.141 14.1577 20.1669 14.0951C20.1929 14.0326 20.2353 13.9782 20.2897 13.9377C21.4008 13.1109 21.9971 12.1325 21.9971 11.1252C21.9971 11.0258 22.0366 10.9304 22.1069 10.8601C22.1772 10.7898 22.2726 10.7502 22.3721 10.7502Z" fill="#EEAD04"/>
<path fill-rule="evenodd" clip-rule="evenodd" d="M12.9961 2.125C11.9888 2.125 11.0105 2.72125 10.1836 3.83238C10.1432 3.88677 10.0888 3.92919 10.0262 3.95514C9.96359 3.98109 9.89514 3.9896 9.82809 3.97975C8.45747 3.77838 7.34447 4.04913 6.63197 4.76125C5.92022 5.47338 5.64947 6.58638 5.85084 7.957C5.86069 8.02404 5.85219 8.0925 5.82624 8.1551C5.80029 8.21769 5.75786 8.27209 5.70347 8.3125C4.59234 9.13937 3.99609 10.1178 3.99609 11.125C3.99609 11.2245 3.95659 11.3198 3.88626 11.3902C3.81593 11.4605 3.72055 11.5 3.62109 11.5C3.52164 11.5 3.42625 11.4605 3.35593 11.3902C3.2856 11.3198 3.24609 11.2245 3.24609 11.125C3.24609 9.86238 3.95784 8.73625 5.07984 7.846C4.91559 6.42325 5.20922 5.1235 6.10172 4.231C6.99459 3.33812 8.29434 3.04488 9.71672 3.20875C10.6073 2.08675 11.7338 1.375 12.9961 1.375C13.0955 1.375 13.1909 1.41451 13.2613 1.48484C13.3316 1.55516 13.3711 1.65054 13.3711 1.75C13.3711 1.84946 13.3316 1.94484 13.2613 2.01516C13.1909 2.08549 13.0955 2.125 12.9961 2.125Z" fill="#FFD15C"/>
<path d="M15.4868 5.11188C16.6385 4.94313 17.6393 5.16137 18.2993 5.82175C18.9597 6.48175 19.1783 7.483 19.0092 8.63425C19.943 9.32912 20.4961 10.1912 20.4961 11.125C20.4961 12.0588 19.943 12.9212 19.0092 13.6157C19.178 14.7674 18.9597 15.7682 18.2993 16.4282C17.6393 17.0886 16.6385 17.3073 15.4868 17.1381C14.792 18.0719 13.9298 18.625 12.9961 18.625C12.0623 18.625 11.2002 18.0723 10.5053 17.1381C9.35372 17.3073 8.35284 17.0886 7.69284 16.4282C7.03247 15.7682 6.81384 14.7674 6.98297 13.6157C6.04922 12.9209 5.49609 12.0588 5.49609 11.125C5.49609 10.1912 6.04922 9.32875 6.98297 8.63425C6.81422 7.48263 7.03247 6.48175 7.69284 5.82175C8.35284 5.16175 9.35372 4.94275 10.5053 5.11188C11.2002 4.17813 12.0623 3.625 12.9961 3.625C13.9298 3.625 14.7923 4.17813 15.4868 5.11188Z" fill="#FFDD28"/>
<path d="M12.4336 7.5625L10.5586 9.4375L11.6836 10.9375L12.2461 10.5625V14.875H14.1211V7.5625H12.4336Z" fill="#FFEF9C"/>
<mask id="path-15-outside-1_786_12504" maskUnits="userSpaceOnUse" x="9.74512" y="6.75" width="5" height="9" fill="black">
<rect fill="white" x="9.74512" y="6.75" width="5" height="9"/>
<path d="M13.7158 14.75H12.6436V9.78418L11.7559 10.6719L11 9.91602L12.6436 8.27246H13.7158V14.75Z"/>
</mask>
<path d="M13.7158 14.75V15.6125H14.5783V14.75H13.7158ZM12.6436 14.75H11.7811V15.6125H12.6436V14.75ZM12.6436 9.78418H13.5061V7.70192L12.0337 9.1743L12.6436 9.78418ZM11.7559 10.6719L11.146 11.2818L11.7559 11.8916L12.3657 11.2818L11.7559 10.6719ZM11 9.91602L10.3901 9.30614L9.78024 9.91602L10.3901 10.5259L11 9.91602ZM12.6436 8.27246V7.40996H12.2863L12.0337 7.66258L12.6436 8.27246ZM13.7158 8.27246H14.5783V7.40996H13.7158V8.27246ZM13.7158 14.75V13.8875H12.6436V14.75V15.6125H13.7158V14.75ZM12.6436 14.75H13.5061V9.78418H12.6436H11.7811V14.75H12.6436ZM12.6436 9.78418L12.0337 9.1743L11.146 10.062L11.7559 10.6719L12.3657 11.2818L13.2534 10.3941L12.6436 9.78418ZM11.7559 10.6719L12.3657 10.062L11.6099 9.30614L11 9.91602L10.3901 10.5259L11.146 11.2818L11.7559 10.6719ZM11 9.91602L11.6099 10.5259L13.2534 8.88234L12.6436 8.27246L12.0337 7.66258L10.3901 9.30614L11 9.91602ZM12.6436 8.27246V9.13496H13.7158V8.27246V7.40996H12.6436V8.27246ZM13.7158 8.27246H12.8533V14.75H13.7158H14.5783V8.27246H13.7158Z" fill="#E89B05" mask="url(#path-15-outside-1_786_12504)"/>
<path fill-rule="evenodd" clip-rule="evenodd" d="M7.69382 16.4285C7.03345 15.7685 6.81482 14.7676 6.98395 13.616C6.0502 12.9211 5.49707 12.059 5.49707 11.1252C5.49707 10.1915 6.0502 9.32899 6.98395 8.63449C6.8152 7.48287 7.03345 6.48199 7.69382 5.82199C8.35382 5.16199 9.3547 4.94299 10.5063 5.11212C11.2012 4.17837 12.0633 3.62524 12.9971 3.62524C13.9308 3.62524 14.7933 4.17837 15.4878 5.11212C16.6394 4.94337 17.6403 5.16162 18.3003 5.82199C18.9607 6.48199 19.1793 7.48324 19.0102 8.63449C19.9439 9.32937 20.4971 10.1915 20.4971 11.1252C20.4971 12.059 19.9439 12.9215 19.0102 13.616C19.1789 14.7676 18.9607 15.7685 18.3003 16.4285C17.6403 17.0889 16.6394 17.3075 15.4878 17.1384C14.7929 18.0721 13.9308 18.6252 12.9971 18.6252C12.0633 18.6252 11.2012 18.0725 10.5063 17.1384C9.3547 17.3075 8.35382 17.0889 7.69382 16.4285ZM10.1793 17.9285C9.04232 18.011 7.94995 17.7455 7.16357 16.9587C6.37682 16.1724 6.1117 15.08 6.19382 13.9434C5.33207 13.1975 4.74707 12.2371 4.74707 11.1252C4.74707 10.013 5.33207 9.05299 6.19382 8.30712C6.1117 7.17087 6.37682 6.07812 7.16357 5.29174C7.94995 4.50499 9.04232 4.23987 10.1789 4.32199C10.9248 3.46024 11.8848 2.87524 12.9971 2.87524C14.1097 2.87524 15.0693 3.46024 15.8152 4.32199C16.9514 4.23987 18.0442 4.50499 18.8306 5.29174C19.6173 6.07812 19.8824 7.17049 19.8003 8.30712C20.6621 9.05299 21.2471 10.0134 21.2471 11.1252C21.2471 12.2375 20.6621 13.1975 19.8003 13.943C19.8824 15.08 19.6173 16.1724 18.8306 16.9587C18.0442 17.7455 16.9518 18.0106 15.8148 17.9285C15.0693 18.7902 14.1093 19.3752 12.9971 19.3752C11.8848 19.3752 10.9248 18.7902 10.1793 17.9285Z" fill="#E89B05"/>
<path fill-rule="evenodd" clip-rule="evenodd" d="M19.7471 10.7502C19.8465 10.7502 19.9419 10.7898 20.0122 10.8601C20.0826 10.9304 20.1221 11.0258 20.1221 11.1252C20.1221 12.059 19.6053 12.884 18.8073 13.532C18.9134 14.5546 18.6956 15.503 18.0352 16.1634C17.3748 16.8237 16.4264 17.0416 15.4038 16.9359C14.7558 17.7331 13.9308 18.2502 12.9971 18.2502C12.8976 18.2502 12.8022 18.2107 12.7319 18.1404C12.6616 18.0701 12.6221 17.9747 12.6221 17.8752C12.6221 17.7758 12.6616 17.6804 12.7319 17.6101C12.8022 17.5398 12.8976 17.5002 12.9971 17.5002C13.6773 17.5002 14.3542 17.0979 14.9377 16.3134C14.9781 16.259 15.0325 16.2166 15.0951 16.1906C15.1577 16.1647 15.2262 16.1561 15.2932 16.166C16.2607 16.3081 17.0238 16.1142 17.5049 15.6331C17.9861 15.152 18.1799 14.3889 18.0378 13.4214C18.0279 13.3544 18.0364 13.2859 18.0623 13.2233C18.0881 13.1607 18.1305 13.1063 18.1848 13.0659C18.9697 12.4827 19.3721 11.8059 19.3721 11.1252C19.3721 11.0258 19.4116 10.9304 19.4819 10.8601C19.5522 10.7898 19.6476 10.7502 19.7471 10.7502Z" fill="#ECC704"/>
<path fill-rule="evenodd" clip-rule="evenodd" d="M12.9971 4.75024C12.3168 4.75024 11.6399 5.15262 11.0564 5.93749C11.016 5.99182 10.9616 6.03417 10.899 6.06005C10.8364 6.08594 10.768 6.09438 10.7009 6.08449C9.73344 5.94237 8.97032 6.13662 8.4892 6.61737C8.00845 7.09849 7.81419 7.86162 7.95632 8.82912C7.96621 8.89613 7.95776 8.96456 7.93188 9.02715C7.906 9.08975 7.86364 9.14416 7.80932 9.18462C7.02445 9.76774 6.62207 10.4446 6.62207 11.1252C6.62207 11.2247 6.58256 11.3201 6.51224 11.3904C6.44191 11.4607 6.34653 11.5002 6.24707 11.5002C6.14761 11.5002 6.05223 11.4607 5.9819 11.3904C5.91158 11.3201 5.87207 11.2247 5.87207 11.1252C5.87207 10.1915 6.38882 9.36649 7.18682 8.71849C7.0807 7.69624 7.29857 6.74749 7.95894 6.08712C8.61932 5.42674 9.5677 5.20887 10.5903 5.31462C11.2383 4.51737 12.0629 4.00024 12.9971 4.00024C13.0965 4.00024 13.1919 4.03975 13.2622 4.11008C13.3326 4.1804 13.3721 4.27579 13.3721 4.37524C13.3721 4.4747 13.3326 4.57008 13.2622 4.64041C13.1919 4.71074 13.0965 4.75024 12.9971 4.75024Z" fill="#FFEF9C"/>
</svg>
