<svg width="22" height="32" viewBox="0 0 22 32" fill="none" xmlns="http://www.w3.org/2000/svg">
<path fill-rule="evenodd" clip-rule="evenodd" d="M6.3814 0.75H15.3135C18.7185 0.75 20.8898 4.38525 19.2754 7.38375L12.4538 20.0524C12.4217 20.112 12.3741 20.1618 12.316 20.1965C12.2579 20.2312 12.1915 20.2496 12.1238 20.2496H9.57153C9.50384 20.2496 9.43743 20.2312 9.37933 20.1965C9.32123 20.1618 9.27361 20.112 9.24153 20.0524L2.41915 7.38375C0.804778 4.38525 2.9764 0.75 6.3814 0.75ZM4.84765 3.75H16.8477L12.4245 19.2281C12.4021 19.3064 12.3548 19.3753 12.2898 19.4244C12.2248 19.4734 12.1456 19.5 12.0642 19.5H9.63003C9.54858 19.5 9.46936 19.4734 9.40435 19.4244C9.33933 19.3753 9.29205 19.3064 9.26965 19.2281L4.84765 3.75Z" fill="#C52229"/>
<path fill-rule="evenodd" clip-rule="evenodd" d="M2.41882 7.38375C0.805197 4.38488 2.97645 0.75 6.38182 0.75H15.3136C18.7186 0.75 20.8898 4.38525 19.2758 7.38375L12.4534 20.0524C12.4214 20.112 12.3737 20.1618 12.3156 20.1965C12.2575 20.2312 12.1911 20.2496 12.1234 20.2496H9.5712C9.50348 20.2497 9.43702 20.2314 9.3789 20.1967C9.32078 20.1619 9.27319 20.1121 9.2412 20.0524L2.41882 7.38375ZM9.27007 19.2277C9.29245 19.306 9.33968 19.3748 9.40462 19.4239C9.46956 19.4729 9.54869 19.4995 9.63007 19.4996H12.0649C12.1463 19.4995 12.2255 19.4729 12.2904 19.4239C12.3553 19.3748 12.4026 19.306 12.4249 19.2277L16.8473 3.75H4.84732L9.2697 19.2281L9.27007 19.2277ZM5.84145 4.5L9.9132 18.75H11.7814L15.8532 4.5H5.84145ZM6.38145 0H15.3132C19.2859 0 21.8194 4.24125 19.9358 7.73887L13.1138 20.4083C13.0176 20.587 12.8747 20.7365 12.7004 20.8406C12.5261 20.9448 12.3269 20.9999 12.1238 21H9.57157C9.36845 21 9.16912 20.9449 8.99475 20.8407C8.82039 20.7366 8.67748 20.5871 8.5812 20.4083L1.75882 7.73887C-0.124428 4.24125 2.4087 0 6.38145 0Z" fill="#9B0F15"/>
<path d="M6.3814 0.75H15.3135C18.7185 0.75 20.8898 4.38525 19.2754 7.38375C19.2754 4.29 15.6679 3.67237 13.8642 3.75H7.8304C3.00303 3.75 2.2114 6.1725 2.41915 7.38375C0.804778 4.38488 2.9764 0.75 6.3814 0.75Z" fill="#F1333B"/>
<path fill-rule="evenodd" clip-rule="evenodd" d="M19.0921 8.1105C18.9302 8.06967 18.7865 7.97598 18.6839 7.84427C18.5812 7.71256 18.5255 7.55036 18.5254 7.38337C18.5254 6.21075 17.8767 5.50387 16.9264 5.05612C15.9424 4.59225 14.7203 4.46362 13.8964 4.49925C13.8858 4.49974 13.8752 4.49999 13.8646 4.5H7.83007C5.53057 4.5 4.34632 5.07712 3.76057 5.649C3.17707 6.219 3.09232 6.87187 3.15832 7.25663C3.18832 7.43197 3.15501 7.61226 3.06435 7.76532C2.97369 7.91837 2.83158 8.03422 2.6634 8.09217C2.49522 8.15012 2.31191 8.14641 2.14621 8.0817C1.98051 8.01698 1.84321 7.89547 1.75882 7.73887C-0.124428 4.24125 2.4087 0 6.38145 0H15.3132C19.2859 0 21.8194 4.24125 19.9358 7.73887C19.8566 7.88592 19.7306 8.00233 19.5778 8.06965C19.425 8.13696 19.254 8.15134 19.0921 8.1105ZM1.90282 5.74875C1.61557 3.20812 3.58132 0.75 6.38145 0.75H15.3132C18.1782 0.75 20.1698 3.32363 19.7682 5.92575C19.6883 6.43635 19.5215 6.92949 19.2751 7.38375C19.2751 6.858 19.1708 6.40388 18.9889 6.01238C18.1009 4.10063 15.3612 3.68587 13.8642 3.75037H7.83007C4.65195 3.75037 3.2232 4.80037 2.6772 5.8635C2.3937 6.41475 2.34832 6.96975 2.4192 7.38375C2.14408 6.87693 1.96879 6.32164 1.90282 5.74875Z" fill="#9B0F15"/>
<path fill-rule="evenodd" clip-rule="evenodd" d="M4.02865 1.73925C4.90878 1.22175 5.8774 1.125 6.56253 1.125H15.5625C15.662 1.125 15.7574 1.16451 15.8277 1.23484C15.898 1.30516 15.9375 1.40054 15.9375 1.5C15.9375 1.59946 15.898 1.69484 15.8277 1.76516C15.7574 1.83549 15.662 1.875 15.5625 1.875H6.56253C5.93478 1.875 5.12253 1.96613 4.4089 2.38575C3.71253 2.79525 3.06865 3.54225 2.80615 4.944C2.78785 5.04177 2.73147 5.12826 2.6494 5.18445C2.56732 5.24064 2.46629 5.26192 2.36853 5.24362C2.27076 5.22533 2.18427 5.16894 2.12808 5.08687C2.07189 5.0048 2.0506 4.90377 2.0689 4.806C2.36853 3.20775 3.1309 2.26725 4.02865 1.73925Z" fill="#FE666D"/>
<path d="M17.192 6.27232C17.192 6.48457 17.024 6.6567 16.817 6.6567C16.61 6.6567 16.442 6.4842 16.442 6.27195C16.442 6.0597 16.61 5.88757 16.817 5.88757C17.0243 5.88757 17.192 6.06007 17.192 6.27232ZM17.042 7.73482C17.042 7.9992 16.8331 8.21332 16.5755 8.21332C16.3178 8.21332 16.109 7.9992 16.109 7.73482C16.109 7.47082 16.3178 7.2567 16.5755 7.2567C16.8331 7.2567 17.042 7.47082 17.042 7.7352V7.73482ZM18.1088 7.08345C18.1095 7.14604 18.0854 7.20636 18.0416 7.25114C17.9979 7.29593 17.9382 7.32153 17.8756 7.32232C17.813 7.32153 17.7533 7.29593 17.7095 7.25114C17.6658 7.20636 17.6416 7.14604 17.6423 7.08345C17.6419 7.05242 17.6477 7.02162 17.6592 6.99281C17.6707 6.96399 17.6877 6.93773 17.7094 6.91551C17.7311 6.89329 17.7569 6.87556 17.7854 6.86332C17.8139 6.85109 17.8446 6.84459 17.8756 6.8442C17.9066 6.84459 17.9373 6.85109 17.9658 6.86332C17.9943 6.87556 18.0201 6.89329 18.0418 6.91551C18.0634 6.93773 18.0805 6.96399 18.092 6.99281C18.1035 7.02162 18.1092 7.05242 18.1088 7.08345ZM16.6752 8.99145C16.6756 9.02247 16.6699 9.05327 16.6584 9.08209C16.6469 9.1109 16.6298 9.13717 16.6081 9.15939C16.5865 9.1816 16.5607 9.19934 16.5321 9.21157C16.5036 9.22381 16.473 9.23031 16.442 9.2307C16.3794 9.22991 16.3196 9.20431 16.2759 9.15952C16.2322 9.11473 16.208 9.05442 16.2087 8.99182C16.2083 8.9608 16.214 8.93 16.2255 8.90118C16.237 8.87237 16.2541 8.8461 16.2758 8.82388C16.2974 8.80167 16.3233 8.78394 16.3518 8.7717C16.3803 8.75946 16.4109 8.75296 16.442 8.75257C16.5046 8.75336 16.5643 8.77896 16.608 8.82375C16.6517 8.86854 16.6759 8.92885 16.6752 8.99145ZM18.2577 8.60257C18.2577 8.81745 18.0875 8.99145 17.8778 8.99145C17.6678 8.99145 17.4983 8.81745 17.4983 8.60257C17.4983 8.38732 17.6682 8.21332 17.8778 8.21332C18.0878 8.21332 18.2577 8.38732 18.2577 8.60257ZM17.4983 9.99382C17.4983 10.2087 17.3281 10.3827 17.1185 10.3827C16.9088 10.3827 16.739 10.2087 16.739 9.99382C16.739 9.77895 16.9088 9.60457 17.1185 9.60457C17.3285 9.60457 17.4983 9.77895 17.4983 9.99382ZM16.2083 10.1438C16.2091 10.2064 16.1851 10.2668 16.1414 10.3116C16.0977 10.3565 16.0381 10.3822 15.9755 10.3831C15.9444 10.3827 15.9138 10.3762 15.8853 10.3639C15.8568 10.3517 15.8309 10.334 15.8093 10.3118C15.7876 10.2895 15.7705 10.2633 15.759 10.2345C15.7475 10.2056 15.7418 10.1748 15.7422 10.1438C15.7418 10.1128 15.7475 10.082 15.759 10.0532C15.7705 10.0244 15.7876 9.9981 15.8093 9.97588C15.8309 9.95367 15.8568 9.93594 15.8853 9.9237C15.9138 9.91146 15.9444 9.90496 15.9755 9.90457C16.0065 9.90496 16.0371 9.91146 16.0656 9.9237C16.0942 9.93594 16.12 9.95367 16.1416 9.97588C16.1633 9.9981 16.1804 10.0244 16.1919 10.0532C16.2034 10.082 16.2087 10.1128 16.2083 10.1438Z" fill="#AA161D"/>
<path d="M14.2376 12.5074C15.7924 12.279 17.1431 12.5741 18.0345 13.4655C18.9259 14.3569 19.221 15.708 18.9926 17.2624C20.2538 18.2006 21 19.3643 21 20.625C21 21.8857 20.2538 23.0494 18.9926 23.9873C19.221 25.5424 18.9259 26.8931 18.0345 27.7845C17.1431 28.6759 15.792 28.971 14.2372 28.7426C13.2997 30.0038 12.1357 30.75 10.875 30.75C9.61425 30.75 8.45062 30.0038 7.51275 28.7426C5.958 28.9714 4.60688 28.6759 3.7155 27.7845C2.82413 26.8931 2.529 25.542 2.75738 23.9873C1.49625 23.0498 0.75 21.8857 0.75 20.625C0.75 19.3643 1.49625 18.2006 2.75738 17.2624C2.529 15.708 2.82413 14.3569 3.7155 13.4655C4.60688 12.5741 5.958 12.279 7.51238 12.5074C8.45063 11.2466 9.61425 10.5 10.875 10.5C12.1357 10.5 13.2994 11.2463 14.2376 12.5074Z" fill="#BCCCD2"/>
<path fill-rule="evenodd" clip-rule="evenodd" d="M14.5665 11.7135C16.0988 11.5748 17.544 11.9141 18.5647 12.9352C19.5859 13.9564 19.9249 15.4012 19.7869 16.9335C20.9681 17.9197 21.75 19.1812 21.75 20.625C21.75 22.0691 20.9681 23.3306 19.7869 24.3165C19.9252 25.8488 19.5859 27.294 18.5647 28.3147C17.5436 29.3359 16.0987 29.6752 14.5661 29.5369C13.5806 30.7181 12.3195 31.5 10.875 31.5C9.43125 31.5 8.16938 30.7181 7.18388 29.5369C5.65125 29.6752 4.20637 29.3359 3.18525 28.3147C2.16412 27.2936 1.82475 25.8488 1.96313 24.3165C0.781875 23.3303 0 22.0688 0 20.625C0 19.1809 0.781875 17.9194 1.96313 16.9335C1.82513 15.4012 2.16412 13.9564 3.18525 12.9352C4.20637 11.9141 5.65125 11.5751 7.1835 11.7135C8.16937 10.5319 9.43125 9.75 10.875 9.75C12.3191 9.75 13.5806 10.5319 14.5665 11.7135ZM14.2376 12.5074C13.2994 11.2466 12.1357 10.5 10.875 10.5C9.61425 10.5 8.45063 11.2463 7.51238 12.5074C5.95763 12.279 4.60688 12.5741 3.7155 13.4655C2.82413 14.3569 2.529 15.708 2.75738 17.2624C1.49625 18.2006 0.75 19.3643 0.75 20.625C0.75 21.8857 1.49625 23.0494 2.75738 23.9873C2.529 25.5424 2.82413 26.8931 3.7155 27.7845C4.60688 28.6759 5.958 28.971 7.51275 28.7426C8.45025 30.0038 9.61425 30.75 10.875 30.75C12.1357 30.75 13.2994 30.0038 14.2372 28.7426C15.7924 28.9714 17.1431 28.6759 18.0345 27.7845C18.9259 26.8931 19.221 25.542 18.9926 23.9873C20.2538 23.0498 21 21.8857 21 20.625C21 19.3643 20.2538 18.2006 18.9926 17.2624C19.221 15.708 18.9259 14.3569 18.0345 13.4655C17.1431 12.5741 15.792 12.279 14.2376 12.5074Z" fill="#81A5B0"/>
<path fill-rule="evenodd" clip-rule="evenodd" d="M20.25 20.25C20.3495 20.25 20.4448 20.2895 20.5152 20.3598C20.5855 20.4302 20.625 20.5255 20.625 20.625C20.625 21.8876 19.9136 23.0138 18.7913 23.904C18.9555 25.3268 18.6623 26.6265 17.7694 27.519C16.8765 28.4123 15.5767 28.7055 14.154 28.5413C13.2637 29.6636 12.1376 30.375 10.875 30.375C10.7755 30.375 10.6802 30.3355 10.6098 30.2652C10.5395 30.1948 10.5 30.0995 10.5 30C10.5 29.9005 10.5395 29.8052 10.6098 29.7348C10.6802 29.6645 10.7755 29.625 10.875 29.625C11.8823 29.625 12.8606 29.0291 13.6875 27.9176C13.7279 27.8633 13.7822 27.8209 13.8447 27.795C13.9073 27.769 13.9756 27.7605 14.0426 27.7703C15.4136 27.9716 16.5266 27.7013 17.2391 26.9891C17.9513 26.2766 18.2216 25.1636 18.0203 23.793C18.0104 23.726 18.0189 23.6575 18.0449 23.5949C18.0708 23.5323 18.1132 23.4779 18.1676 23.4375C19.2787 22.6106 19.875 21.6323 19.875 20.625C19.875 20.5255 19.9145 20.4302 19.9848 20.3598C20.0552 20.2895 20.1505 20.25 20.25 20.25Z" fill="#A2B9C1"/>
<path fill-rule="evenodd" clip-rule="evenodd" d="M10.875 11.625C9.86775 11.625 8.88937 12.2213 8.0625 13.3324C8.02209 13.3868 7.96769 13.4292 7.9051 13.4551C7.8425 13.4811 7.77404 13.4896 7.707 13.4797C6.33637 13.2784 5.22337 13.5491 4.51087 14.2612C3.79912 14.9734 3.52837 16.0864 3.72975 17.457C3.7396 17.524 3.73109 17.5925 3.70514 17.6551C3.67919 17.7177 3.63677 17.7721 3.58237 17.8125C2.47125 18.6394 1.875 19.6178 1.875 20.625C1.875 20.7245 1.83549 20.8198 1.76517 20.8902C1.69484 20.9605 1.59946 21 1.5 21C1.40054 21 1.30516 20.9605 1.23483 20.8902C1.16451 20.8198 1.125 20.7245 1.125 20.625C1.125 19.3624 1.83675 18.2363 2.95875 17.346C2.7945 15.9233 3.08812 14.6235 3.98062 13.731C4.8735 12.8381 6.17325 12.5449 7.59563 12.7087C8.48625 11.5867 9.61275 10.875 10.875 10.875C10.9745 10.875 11.0698 10.9145 11.1402 10.9848C11.2105 11.0552 11.25 11.1505 11.25 11.25C11.25 11.3495 11.2105 11.4448 11.1402 11.5152C11.0698 11.5855 10.9745 11.625 10.875 11.625Z" fill="#D0DEE3"/>
<path d="M13.3657 14.6119C14.5174 14.4431 15.5182 14.6614 16.1782 15.3218C16.8386 15.9818 17.0573 16.983 16.8881 18.1343C17.8219 18.8291 18.375 19.6912 18.375 20.625C18.375 21.5588 17.8219 22.4212 16.8881 23.1157C17.0569 24.2674 16.8386 25.2682 16.1782 25.9282C15.5182 26.5886 14.5174 26.8073 13.3657 26.6381C12.6709 27.5719 11.8088 28.125 10.875 28.125C9.94125 28.125 9.07913 27.5719 8.38425 26.6381C7.23263 26.8073 6.23175 26.5886 5.57175 25.9282C4.91138 25.2682 4.69275 24.2674 4.86188 23.1157C3.92813 22.4209 3.375 21.5588 3.375 20.625C3.375 19.6912 3.92813 18.8288 4.86188 18.1343C4.69313 16.9826 4.91138 15.9818 5.57175 15.3218C6.23175 14.6618 7.23263 14.4428 8.38425 14.6119C9.07913 13.6781 9.94125 13.125 10.875 13.125C11.8088 13.125 12.6712 13.6781 13.3657 14.6119Z" fill="#D2E2E7"/>
<path fill-rule="evenodd" clip-rule="evenodd" d="M5.57175 25.9282C4.91138 25.2682 4.69275 24.2674 4.86188 23.1157C3.92813 22.4209 3.375 21.5588 3.375 20.625C3.375 19.6912 3.92813 18.8288 4.86188 18.1343C4.69313 16.9826 4.91138 15.9818 5.57175 15.3218C6.23175 14.6618 7.23263 14.4427 8.38425 14.6119C9.07913 13.6781 9.94125 13.125 10.875 13.125C11.8088 13.125 12.6712 13.6781 13.3657 14.6119C14.5174 14.4431 15.5182 14.6614 16.1782 15.3218C16.8386 15.9818 17.0573 16.983 16.8881 18.1343C17.8219 18.8291 18.375 19.6912 18.375 20.625C18.375 21.5588 17.8219 22.4212 16.8881 23.1157C17.0569 24.2674 16.8386 25.2682 16.1782 25.9282C15.5182 26.5886 14.5174 26.8073 13.3657 26.6381C12.6709 27.5719 11.8088 28.125 10.875 28.125C9.94125 28.125 9.07913 27.5719 8.38425 26.6381C7.23263 26.8073 6.23175 26.5886 5.57175 25.9282ZM8.05725 27.4282C6.92025 27.5107 5.82788 27.2452 5.0415 26.4589C4.25475 25.6721 3.98962 24.5798 4.07175 23.4427C3.21 22.6973 2.625 21.7373 2.625 20.625C2.625 19.5128 3.21 18.5528 4.07175 17.8069C3.98962 16.6706 4.25475 15.5779 5.0415 14.7915C5.82788 14.0048 6.92025 13.7396 8.05688 13.8218C8.80275 12.96 9.76275 12.375 10.875 12.375C11.9876 12.375 12.9472 12.96 13.6931 13.8218C14.8294 13.7396 15.9221 14.0048 16.7085 14.7915C17.4952 15.5779 17.7604 16.6703 17.6782 17.8069C18.54 18.5528 19.125 19.5131 19.125 20.625C19.125 21.7373 18.54 22.6973 17.6782 23.4427C17.7604 24.5798 17.4952 25.6721 16.7085 26.4589C15.9221 27.2452 14.8298 27.5104 13.6927 27.4282C12.9473 28.29 11.9873 28.875 10.875 28.875C9.76275 28.875 8.80275 28.29 8.05725 27.4282Z" fill="#81A5B0"/>
<path fill-rule="evenodd" clip-rule="evenodd" d="M17.625 20.25C17.7245 20.25 17.8198 20.2895 17.8902 20.3598C17.9605 20.4302 18 20.5255 18 20.625C18 21.5588 17.4832 22.3837 16.6852 23.0317C16.7914 24.054 16.5735 25.0027 15.9131 25.6631C15.2528 26.3235 14.3044 26.5414 13.2817 26.4356C12.6337 27.2329 11.8088 27.75 10.875 27.75C10.7755 27.75 10.6802 27.7105 10.6098 27.6402C10.5395 27.5698 10.5 27.4745 10.5 27.375C10.5 27.2755 10.5395 27.1802 10.6098 27.1098C10.6802 27.0395 10.7755 27 10.875 27C11.5553 27 12.2321 26.5976 12.8156 25.8131C12.856 25.7587 12.9104 25.7163 12.973 25.6904C13.0356 25.6644 13.1041 25.6559 13.1711 25.6658C14.1386 25.8079 14.9018 25.614 15.3829 25.1329C15.864 24.6518 16.0579 23.8886 15.9158 22.9211C15.9059 22.8541 15.9143 22.7857 15.9402 22.7231C15.9661 22.6605 16.0084 22.6061 16.0627 22.5656C16.8476 21.9825 17.25 21.3056 17.25 20.625C17.25 20.5255 17.2895 20.4302 17.3598 20.3598C17.4302 20.2895 17.5255 20.25 17.625 20.25Z" fill="#BAD0D7"/>
<path fill-rule="evenodd" clip-rule="evenodd" d="M10.875 14.25C10.1947 14.25 9.51788 14.6524 8.93438 15.4373C8.89392 15.4916 8.8395 15.5339 8.77691 15.5598C8.71432 15.5857 8.64588 15.5941 8.57887 15.5842C7.61137 15.4421 6.84825 15.6364 6.36713 16.1171C5.88637 16.5982 5.69212 17.3614 5.83425 18.3289C5.84414 18.3959 5.83569 18.4643 5.80981 18.5269C5.78393 18.5895 5.74157 18.6439 5.68725 18.6844C4.90238 19.2675 4.5 19.9444 4.5 20.625C4.5 20.7245 4.46049 20.8198 4.39017 20.8902C4.31984 20.9605 4.22446 21 4.125 21C4.02554 21 3.93016 20.9605 3.85983 20.8902C3.78951 20.8198 3.75 20.7245 3.75 20.625C3.75 19.6912 4.26675 18.8663 5.06475 18.2183C4.95863 17.196 5.1765 16.2472 5.83687 15.5869C6.49725 14.9265 7.44563 14.7086 8.46825 14.8144C9.11625 14.0171 9.94088 13.5 10.875 13.5C10.9745 13.5 11.0698 13.5395 11.1402 13.6098C11.2105 13.6802 11.25 13.7755 11.25 13.875C11.25 13.9745 11.2105 14.0698 11.1402 14.1402C11.0698 14.2105 10.9745 14.25 10.875 14.25Z" fill="#E1F4FA"/>
<path d="M13.0707 23.625H8.68512V22.755L10.7551 20.5489C11.0394 20.2384 11.2486 19.9677 11.3832 19.7359C11.5212 19.5045 11.5899 19.2848 11.5899 19.0767C11.5899 18.7924 11.5182 18.5697 11.3746 18.4088C11.231 18.2445 11.0259 18.1628 10.7596 18.1628C10.4724 18.1628 10.2451 18.2622 10.0782 18.4617C9.91399 18.6578 9.83224 18.9169 9.83224 19.2394H8.55762C8.55762 18.8494 8.64987 18.4935 8.83474 18.1714C9.02158 17.8497 9.29581 17.5876 9.62562 17.4154C9.96537 17.2309 10.3509 17.1387 10.7814 17.1387C11.4406 17.1387 11.9517 17.2969 12.3151 17.6134C12.6811 17.9295 12.8645 18.3765 12.8645 18.9537C12.8645 19.2702 12.782 19.5923 12.6181 19.9204C12.4542 20.2485 12.173 20.631 11.7744 21.0675L10.3197 22.6013H13.0711L13.0707 23.625Z" fill="#E6F7FD"/>
<path fill-rule="evenodd" clip-rule="evenodd" d="M13.8207 23.625C13.8207 23.824 13.7417 24.0147 13.6011 24.1554C13.4604 24.296 13.2697 24.375 13.0707 24.375H8.68512C8.4862 24.375 8.29544 24.296 8.15479 24.1554C8.01413 24.0147 7.93512 23.824 7.93512 23.625V22.755C7.93512 22.5643 8.0078 22.3807 8.13837 22.2417L10.2046 20.0393C10.469 19.7502 10.6385 19.5248 10.7352 19.3583L10.739 19.3523C10.8275 19.2034 10.8402 19.1153 10.8402 19.0767C10.8417 19.0226 10.8345 18.9687 10.8189 18.9169C10.7991 18.9139 10.7792 18.9125 10.7592 18.9128C10.7308 18.911 10.7022 18.9148 10.6752 18.924C10.6726 18.9251 10.6701 18.9265 10.6677 18.9282C10.6625 18.9326 10.6577 18.9377 10.6535 18.9432C10.6287 18.9724 10.5822 19.047 10.5822 19.2394C10.5822 19.4383 10.5032 19.6291 10.3626 19.7698C10.2219 19.9104 10.0312 19.9894 9.83224 19.9894H8.55762C8.3587 19.9894 8.16794 19.9104 8.02729 19.7698C7.88663 19.6291 7.80762 19.4383 7.80762 19.2394C7.80762 18.7257 7.93099 18.24 8.18374 17.7987L8.18637 17.7942C8.44286 17.353 8.81846 16.993 9.27012 16.7554C9.73137 16.5053 10.241 16.3887 10.7814 16.3887C11.5539 16.3887 12.2637 16.5747 12.8064 17.0468C13.3689 17.5332 13.6145 18.2052 13.6145 18.9537C13.6145 19.4037 13.4971 19.8402 13.289 20.256C13.0812 20.6719 12.749 21.1125 12.3286 21.573L12.3189 21.5835L12.065 21.8509H13.0707C13.2697 21.8509 13.4604 21.9299 13.6011 22.0706C13.7417 22.2112 13.8207 22.402 13.8207 22.6009V23.625ZM10.3201 22.6013L11.7744 21.0675C12.173 20.631 12.4542 20.2485 12.6181 19.9204C12.7824 19.5923 12.8645 19.2702 12.8645 18.9537C12.8645 18.3762 12.6811 17.9299 12.3151 17.6134C11.9517 17.2969 11.4406 17.1387 10.7814 17.1387C10.3509 17.1387 9.96537 17.2309 9.62562 17.4154C9.18912 17.6433 8.85393 18.0265 8.68624 18.4894C8.59941 18.7299 8.55587 18.9838 8.55762 19.2394H9.83224C9.83224 18.9169 9.91399 18.6578 10.0782 18.4613C10.2451 18.2625 10.472 18.1628 10.7592 18.1628C11.0259 18.1628 11.231 18.2445 11.3746 18.4088C11.5182 18.57 11.5899 18.7924 11.5899 19.0767C11.5899 19.2848 11.5212 19.5042 11.3836 19.7359C11.2486 19.9673 11.039 20.2384 10.7551 20.5489L8.68512 22.755V23.625H13.0711V22.6013H10.3201Z" fill="#81A5B0"/>
</svg>
