<svg width="64" height="64" viewBox="0 0 64 64" fill="none" xmlns="http://www.w3.org/2000/svg">
<g clip-path="url(#clip0_3_30415)">
<rect width="64" height="64" rx="32" fill="#63DD1E"/>
<circle cx="26" cy="15" r="41" fill="#C3F63C"/>
<path d="M31.9998 33.9067C34.2973 33.9067 36.1598 32.0442 36.1598 29.7467C36.1598 27.4492 34.2973 25.5867 31.9998 25.5867C29.7023 25.5867 27.8398 27.4492 27.8398 29.7467C27.8398 32.0442 29.7023 33.9067 31.9998 33.9067Z" stroke="#292D32" stroke-width="2"/>
<path d="M20.8266 27.32C23.4533 15.7733 40.5599 15.7867 43.1733 27.3333C44.7066 34.1067 40.4933 39.84 36.7999 43.3867C34.1199 45.9733 29.8799 45.9733 27.1866 43.3867C23.5066 39.84 19.2933 34.0933 20.8266 27.32Z" stroke="#292D32" stroke-width="2"/>
</g>
<defs>
<clipPath id="clip0_3_30415">
<rect width="64" height="64" rx="32" fill="white"/>
</clipPath>
</defs>
</svg>
