<svg width="52" height="52" viewBox="0 0 52 52" fill="none" xmlns="http://www.w3.org/2000/svg">
<g id="vuesax/linear/buildings-2">
<g id="buildings-2">
<path id="Vector" d="M14.5166 39.0002H8.99164C5.89331 39.0002 4.33325 37.4401 4.33325 34.3418V8.99188C4.33325 5.89355 5.89331 4.3335 8.99164 4.3335H18.3083C21.4066 4.3335 22.9665 5.89355 22.9665 8.99188V13.0002" stroke="#20523C" stroke-width="2.5" stroke-miterlimit="10" stroke-linecap="round" stroke-linejoin="round"/>
<path id="Vector_2" d="M37.6349 18.2433V42.4234C37.6349 45.9117 35.9016 47.6667 32.4133 47.6667H19.7599C16.2716 47.6667 14.5166 45.9117 14.5166 42.4234V18.2433C14.5166 14.755 16.2716 13 19.7599 13H32.4133C35.9016 13 37.6349 14.755 37.6349 18.2433Z" stroke="#20523C" stroke-width="2.5" stroke-miterlimit="10" stroke-linecap="round" stroke-linejoin="round"/>
<path id="Vector_3" d="M29.0332 13.0002V8.99188C29.0332 5.89355 30.5931 4.3335 33.6915 4.3335H43.0081C46.1064 4.3335 47.6665 5.89355 47.6665 8.99188V34.3418C47.6665 37.4401 46.1064 39.0002 43.0081 39.0002H37.6348" stroke="#20523C" stroke-width="2.5" stroke-miterlimit="10" stroke-linecap="round" stroke-linejoin="round"/>
<path id="Vector_4" d="M21.6667 23.8335H30.3334" stroke="#20523C" stroke-width="2.5" stroke-miterlimit="10" stroke-linecap="round" stroke-linejoin="round"/>
<path id="Vector_5" d="M21.6667 30.3335H30.3334" stroke="#20523C" stroke-width="2.5" stroke-miterlimit="10" stroke-linecap="round" stroke-linejoin="round"/>
<path id="Vector_6" d="M26 47.6665V41.1665" stroke="#20523C" stroke-width="2.5" stroke-miterlimit="10" stroke-linecap="round" stroke-linejoin="round"/>
</g>
</g>
</svg>
