<svg width="1409" height="826" viewBox="0 0 1409 826" fill="none" xmlns="http://www.w3.org/2000/svg">
<path opacity="0.1" d="M1160 412L1441 412" stroke="url(#paint0_linear_3_31168)"/>
<path opacity="0.1" d="M1305.5 693.5V412.5" stroke="url(#paint1_linear_3_31168)"/>
<path opacity="0.1" d="M435 583H1.00001" stroke="url(#paint2_linear_3_31168)"/>
<path opacity="0.1" d="M290 826L290 584" stroke="url(#paint3_linear_3_31168)"/>
<path opacity="0.1" d="M146 340L146 582" stroke="url(#paint4_linear_3_31168)"/>
<path opacity="0.1" d="M1164 243L730 243" stroke="url(#paint5_linear_3_31168)"/>
<path opacity="0.1" d="M1019 486L1019 244" stroke="url(#paint6_linear_3_31168)"/>
<path opacity="0.1" d="M875 0L875 242" stroke="url(#paint7_linear_3_31168)"/>
<path opacity="0.1" d="M434 243L1.38283e-05 243" stroke="url(#paint8_linear_3_31168)"/>
<path opacity="0.1" d="M1015 583H581" stroke="url(#paint9_linear_3_31168)"/>
<path opacity="0.1" d="M289 486L289 244" stroke="url(#paint10_linear_3_31168)"/>
<path opacity="0.1" d="M145 0L145 242" stroke="url(#paint11_linear_3_31168)"/>
<rect opacity="0.02" x="146" y="71" width="144" height="170" fill="white"/>
<rect opacity="0.01" x="436" y="71" width="144" height="170" fill="white"/>
<rect opacity="0.04" x="1161" y="71" width="144" height="170" fill="white"/>
<rect opacity="0.03" x="1" y="242" width="144" height="170" fill="white"/>
<rect opacity="0.01" x="1016" y="242" width="144" height="170" fill="white"/>
<rect opacity="0.02" x="1306" y="242" width="144" height="170" fill="white"/>
<rect opacity="0.01" x="1" y="413" width="144" height="170" fill="white"/>
<rect opacity="0.02" x="146" y="413" width="144" height="170" fill="white"/>
<rect opacity="0.01" x="291" y="413" width="144" height="170" fill="white"/>
<rect opacity="0.01" x="581" y="413" width="144" height="170" fill="white"/>
<rect opacity="0.01" x="871" y="413" width="144" height="170" fill="white"/>
<rect opacity="0.01" x="1161" y="413" width="144" height="170" fill="white"/>
<rect opacity="0.02" x="1306" y="413" width="144" height="170" fill="white"/>
<rect opacity="0.01" x="1" y="584" width="144" height="170" fill="white"/>
<rect opacity="0.01" x="146" y="584" width="144" height="170" fill="white"/>
<rect opacity="0.01" x="871" y="584" width="144" height="170" fill="white"/>
<rect opacity="0.01" x="1016" y="584" width="144" height="170" fill="white"/>
<rect opacity="0.01" x="1306" y="584" width="144" height="170" fill="white"/>
<defs>
<linearGradient id="paint0_linear_3_31168" x1="1160" y1="412.5" x2="1441" y2="412.5" gradientUnits="userSpaceOnUse">
<stop stop-color="#DEDEDE" stop-opacity="0"/>
<stop offset="0.532654" stop-color="#DEDEDE"/>
<stop offset="1" stop-color="#DEDEDE"/>
</linearGradient>
<linearGradient id="paint1_linear_3_31168" x1="1306" y1="693.5" x2="1306" y2="412.5" gradientUnits="userSpaceOnUse">
<stop stop-color="#DEDEDE" stop-opacity="0"/>
<stop offset="0.532654" stop-color="#DEDEDE"/>
<stop offset="1" stop-color="#DEDEDE"/>
</linearGradient>
<linearGradient id="paint2_linear_3_31168" x1="435" y1="582.5" x2="1" y2="582.5" gradientUnits="userSpaceOnUse">
<stop stop-color="#DEDEDE" stop-opacity="0"/>
<stop offset="0.532654" stop-color="#DEDEDE"/>
<stop offset="1" stop-color="#DEDEDE"/>
</linearGradient>
<linearGradient id="paint3_linear_3_31168" x1="290.5" y1="826" x2="290.5" y2="584" gradientUnits="userSpaceOnUse">
<stop stop-color="#DEDEDE" stop-opacity="0"/>
<stop offset="0.532654" stop-color="#DEDEDE"/>
<stop offset="1" stop-color="#DEDEDE"/>
</linearGradient>
<linearGradient id="paint4_linear_3_31168" x1="145.5" y1="340" x2="145.5" y2="582" gradientUnits="userSpaceOnUse">
<stop stop-color="#DEDEDE" stop-opacity="0"/>
<stop offset="0.532654" stop-color="#DEDEDE"/>
<stop offset="1" stop-color="#DEDEDE"/>
</linearGradient>
<linearGradient id="paint5_linear_3_31168" x1="1164" y1="242.5" x2="730" y2="242.5" gradientUnits="userSpaceOnUse">
<stop stop-color="#DEDEDE" stop-opacity="0"/>
<stop offset="0.532654" stop-color="#DEDEDE"/>
<stop offset="1" stop-color="#DEDEDE"/>
</linearGradient>
<linearGradient id="paint6_linear_3_31168" x1="1019.5" y1="486" x2="1019.5" y2="244" gradientUnits="userSpaceOnUse">
<stop stop-color="#DEDEDE" stop-opacity="0"/>
<stop offset="0.532654" stop-color="#DEDEDE"/>
<stop offset="1" stop-color="#DEDEDE"/>
</linearGradient>
<linearGradient id="paint7_linear_3_31168" x1="874.5" y1="-2.18557e-08" x2="874.5" y2="242" gradientUnits="userSpaceOnUse">
<stop stop-color="#DEDEDE" stop-opacity="0"/>
<stop offset="0.532654" stop-color="#DEDEDE"/>
<stop offset="1" stop-color="#DEDEDE"/>
</linearGradient>
<linearGradient id="paint8_linear_3_31168" x1="434" y1="242.5" x2="0" y2="242.5" gradientUnits="userSpaceOnUse">
<stop stop-color="#DEDEDE" stop-opacity="0"/>
<stop offset="0.532654" stop-color="#DEDEDE"/>
<stop offset="1" stop-color="#DEDEDE"/>
</linearGradient>
<linearGradient id="paint9_linear_3_31168" x1="1015" y1="582.5" x2="581" y2="582.5" gradientUnits="userSpaceOnUse">
<stop stop-color="#DEDEDE" stop-opacity="0"/>
<stop offset="0.532654" stop-color="#DEDEDE"/>
<stop offset="1" stop-color="#DEDEDE"/>
</linearGradient>
<linearGradient id="paint10_linear_3_31168" x1="289.5" y1="486" x2="289.5" y2="244" gradientUnits="userSpaceOnUse">
<stop stop-color="#DEDEDE" stop-opacity="0"/>
<stop offset="0.532654" stop-color="#DEDEDE"/>
<stop offset="1" stop-color="#DEDEDE"/>
</linearGradient>
<linearGradient id="paint11_linear_3_31168" x1="144.5" y1="-2.18557e-08" x2="144.5" y2="242" gradientUnits="userSpaceOnUse">
<stop stop-color="#DEDEDE" stop-opacity="0"/>
<stop offset="0.532654" stop-color="#DEDEDE"/>
<stop offset="1" stop-color="#DEDEDE"/>
</linearGradient>
</defs>
</svg>
