<svg width="16" height="16" viewBox="0 0 16 16" fill="none" xmlns="http://www.w3.org/2000/svg">
<path d="M9.3335 1.46812C8.90237 1.37971 8.45643 1.33325 8.00016 1.33325C4.3335 1.33325 1.3335 4.33325 1.3335 7.99992C1.3335 9.19992 1.66683 10.3333 2.20016 11.3333L1.62712 13.5372C1.49731 14.0365 1.95945 14.4877 2.45549 14.346L4.60016 13.7333C5.60016 14.3333 6.80016 14.6666 8.00016 14.6666C11.6668 14.6666 14.6668 11.6666 14.6668 7.99992C14.6668 7.77501 14.6555 7.55261 14.6335 7.33325" stroke="#585858" stroke-miterlimit="10" stroke-linecap="round" stroke-linejoin="round"/>
<path d="M11 9.899C11 10.007 10.976 10.118 10.9249 10.226C10.8738 10.334 10.8077 10.436 10.7206 10.532C10.5734 10.694 10.4111 10.811 10.2278 10.886C10.0476 10.961 9.85228 11 9.64196 11C9.3355 11 9.00801 10.928 8.66249 10.781C8.31698 10.634 7.97146 10.436 7.62894 10.187C7.28343 9.935 6.95593 9.656 6.64347 9.347C6.334 9.035 6.05458 8.708 5.80521 8.366C5.55884 8.024 5.36054 7.682 5.21632 7.343C5.07211 7.001 5 6.674 5 6.362C5 6.158 5.03605 5.963 5.10816 5.783C5.18027 5.6 5.29444 5.432 5.45368 5.282C5.64597 5.093 5.85628 5 6.07862 5C6.16274 5 6.24687 5.018 6.32198 5.054C6.4001 5.09 6.4692 5.144 6.52329 5.222L7.22033 6.203C7.27441 6.278 7.31347 6.347 7.34051 6.413C7.36755 6.476 7.38257 6.539 7.38257 6.596C7.38257 6.668 7.36154 6.74 7.31948 6.809C7.28042 6.878 7.22334 6.95 7.15123 7.022L6.92288 7.259C6.88983 7.292 6.87481 7.331 6.87481 7.379C6.87481 7.403 6.87782 7.424 6.88383 7.448C6.89284 7.472 6.90185 7.49 6.90786 7.508C6.96194 7.607 7.05508 7.736 7.18728 7.892C7.32248 8.048 7.4667 8.207 7.62293 8.366C7.78518 8.525 7.94141 8.672 8.10065 8.807C8.25689 8.939 8.38608 9.029 8.48823 9.083C8.50325 9.089 8.52128 9.098 8.54231 9.107C8.56635 9.116 8.59039 9.119 8.61743 9.119C8.6685 9.119 8.70756 9.101 8.74061 9.068L8.96895 8.843C9.04407 8.768 9.11617 8.711 9.18528 8.675C9.25438 8.633 9.32349 8.612 9.3986 8.612C9.45568 8.612 9.51577 8.624 9.58187 8.651C9.64797 8.678 9.71708 8.717 9.79219 8.768L10.7867 9.473C10.8648 9.527 10.9189 9.59 10.9519 9.665C10.982 9.74 11 9.815 11 9.899Z" stroke="#585858" stroke-miterlimit="10"/>
<path d="M12.6708 1.31323C11.9352 1.31323 11.3375 1.91101 11.3375 2.64657V3.28879C11.3375 3.42434 11.2797 3.63101 11.2108 3.74657L10.9552 4.17101C10.7975 4.43323 10.9064 4.72434 11.1952 4.82212C12.153 5.14212 13.1864 5.14212 14.1441 4.82212C14.413 4.73323 14.5308 4.41546 14.3841 4.17101L14.1286 3.74657C14.0619 3.63101 14.0041 3.42434 14.0041 3.28879V2.64657C14.0041 1.91323 13.4041 1.31323 12.6708 1.31323Z" stroke="#585858" stroke-width="0.866667" stroke-miterlimit="10" stroke-linecap="round"/>
<path d="M13.0825 1.3779C13.0136 1.3579 12.9425 1.34234 12.8691 1.33346C12.6558 1.30679 12.4514 1.32234 12.2603 1.3779C12.3247 1.21346 12.4847 1.0979 12.6714 1.0979C12.858 1.0979 13.018 1.21346 13.0825 1.3779Z" stroke="#20523C" stroke-width="0.866667" stroke-miterlimit="10" stroke-linecap="round" stroke-linejoin="round"/>
<path d="M13.3377 4.9021C13.3377 5.26877 13.0377 5.56877 12.6711 5.56877C12.4888 5.56877 12.3199 5.49321 12.1999 5.37321C12.0799 5.25321 12.0044 5.08432 12.0044 4.9021" stroke="#20523C" stroke-width="0.866667" stroke-miterlimit="10"/>
</svg>
