<svg width="120" height="120" viewBox="0 0 120 120" fill="none" xmlns="http://www.w3.org/2000/svg">
<g clip-path="url(#clip0_3_31044)">
<rect width="120" height="120" rx="60" fill="#63DD1E"/>
<circle cx="48.75" cy="28.125" r="76.875" fill="#C3F63C"/>
<path d="M60.0029 39.9155C65.5461 39.9155 70.5672 42.1627 74.2037 45.7992C77.8402 49.4311 80.0873 54.4521 80.0873 59.9999C80.0873 65.5477 77.8402 70.5688 74.2037 74.2007C70.5672 77.8372 65.5461 80.0843 60.0029 80.0843C54.4598 80.0843 49.4341 77.8372 45.7977 74.2007C42.1659 70.5688 39.9141 65.5477 39.9141 59.9999C39.9141 54.4521 42.1659 49.4311 45.7977 45.7992C49.4342 42.1627 54.4553 39.9155 60.0029 39.9155ZM72.8462 47.1567C69.5593 43.8698 65.0195 41.836 60.0029 41.836C54.9864 41.836 50.4466 43.8698 47.1597 47.1567C43.8728 50.4436 41.839 54.9833 41.839 59.9999C41.839 65.0165 43.8728 69.5563 47.1597 72.8432C50.4466 76.1301 54.9864 78.1639 60.0029 78.1639C65.0195 78.1639 69.5593 76.1301 72.8462 72.8432C76.1331 69.5563 78.1669 65.0165 78.1669 59.9999C78.1669 54.9833 76.1331 50.4436 72.8462 47.1567Z" fill="#111111"/>
<path d="M60.0031 52.4686C57.3745 52.4686 54.864 51.9465 52.5622 50.9931C50.1788 50.008 48.0225 48.5597 46.2109 46.7619C45.8341 46.3897 45.8341 45.7813 46.2064 45.4044C46.5787 45.0322 47.1871 45.0276 47.5639 45.4044C49.1983 47.0252 51.1413 48.3326 53.2932 49.2224C55.3589 50.0759 57.6243 50.548 60.0031 50.548V52.4684V52.4686Z" fill="#111111"/>
<path d="M72.4411 45.4044C72.8133 45.0276 73.4218 45.0322 73.794 45.4044C74.1662 45.7813 74.1662 46.3896 73.7895 46.7619C71.9781 48.5597 69.8263 50.008 67.4382 50.9931C65.1364 51.9465 62.626 52.4686 60.002 52.4686V50.5482C62.3809 50.5482 64.6462 50.076 66.7119 49.2226C68.8592 48.3327 70.8023 47.0252 72.4411 45.4046V45.4044Z" fill="#111111"/>
<path d="M47.5638 74.5954C47.187 74.9723 46.5787 74.9676 46.2063 74.5954C45.8341 74.2186 45.8341 73.6103 46.2108 73.2379C48.0222 71.4402 50.1787 69.9919 52.5621 69.0068C54.8639 68.0534 57.3743 67.5312 60.003 67.5312V69.4517C57.624 69.4517 55.3588 69.9238 53.2931 70.7773C51.1412 71.6671 49.198 72.9746 47.5638 74.5953V74.5954Z" fill="#111111"/>
<path d="M60.002 67.5317C62.626 67.5317 65.1366 68.0538 67.4382 69.0073C69.8261 69.9924 71.978 71.4407 73.7895 73.2384C74.1663 73.6106 74.1663 74.2191 73.794 74.5959C73.4218 74.9681 72.8133 74.9728 72.4411 74.5959C70.8023 72.9751 68.8592 71.6678 66.7119 70.7779C64.6462 69.9245 62.3808 69.4523 60.002 69.4523V67.5319V67.5317Z" fill="#111111"/>
<path d="M60.0023 80.0843C56.7745 80.0843 53.9053 77.7508 51.8714 73.9782C49.9328 70.3827 48.7344 65.4387 48.7344 59.9999C48.7344 54.5612 49.9328 49.6173 51.8714 46.0216C53.9052 42.249 56.7744 39.9155 60.0023 39.9155V41.836C57.5372 41.836 55.2537 43.7836 53.5602 46.9297C51.7669 50.2575 50.6593 54.8791 50.6593 59.9999C50.6593 65.1208 51.7671 69.7425 53.5602 73.0701C55.2535 76.2162 57.537 78.1639 60.0023 78.1639V80.0843Z" fill="#111111"/>
<path d="M60.002 39.9155C63.2253 39.9155 66.0989 42.249 68.1329 46.0216C70.067 49.6172 71.2654 54.5612 71.2654 59.9999C71.2654 65.4387 70.067 70.3825 68.1329 73.9782C66.0991 77.7508 63.2253 80.0843 60.002 80.0843V78.1639C62.4671 78.1639 64.7461 76.2162 66.4441 73.0701C68.2373 69.7424 69.345 65.1208 69.345 59.9999C69.345 54.8791 68.2372 50.2575 66.4441 46.9297C64.7461 43.7836 62.4671 41.836 60.002 41.836V39.9155Z" fill="#111111"/>
<path d="M40.8764 60.9626C40.3452 60.9626 39.9141 60.5313 39.9141 60.0002C39.9141 59.4691 40.3454 59.0378 40.8764 59.0378H60.0029V60.9628H40.8764V60.9626Z" fill="#111111"/>
<path d="M60.002 59.038H79.1238C79.655 59.038 80.0862 59.4693 80.0862 60.0004C80.0862 60.5315 79.6549 60.9628 79.1238 60.9628H60.002V59.038Z" fill="#111111"/>
<path fill-rule="evenodd" clip-rule="evenodd" d="M60.0014 39.9155C60.3238 39.9155 60.6416 39.9247 60.9593 39.9383V80.0616C60.6416 80.0752 60.3237 80.0843 60.0014 80.0843C59.6792 80.0843 59.3568 80.0752 59.0391 80.0616V39.9383C59.3568 39.9247 59.6792 39.9155 60.0014 39.9155Z" fill="#111111"/>
<mask id="path-13-outside-1_3_31044" maskUnits="userSpaceOnUse" x="18.6426" y="25.5049" width="82" height="69" fill="black">
<rect fill="white" x="18.6426" y="25.5049" width="82" height="69"/>
<path d="M98.4364 69.1748H85.1619V61.7159C85.1619 60.6218 86.0517 59.732 87.1412 59.732H96.4526C97.5466 59.732 98.4364 60.6218 98.4364 61.7159V69.1748ZM100.357 70.2191V61.557C100.275 59.4777 98.5544 57.8116 96.4526 57.8116H95.926C96.7205 56.8673 97.2062 55.6461 97.2062 54.3159C97.2062 51.3331 94.7728 48.8999 91.7902 48.8999C88.8077 48.8999 86.3787 51.3333 86.3787 54.3159C86.3787 55.646 86.8554 56.8673 87.6544 57.8116H87.1414C84.994 57.8116 83.2371 59.564 83.2371 61.7159V70.1374C83.2371 70.6686 83.6684 71.0998 84.2041 71.0998H99.3945C99.8983 71.0998 100.316 70.7093 100.357 70.2191ZM88.2944 54.3159C88.2944 52.3909 89.8607 50.8248 91.7901 50.8248C93.7195 50.8248 95.2812 52.3911 95.2812 54.3159C95.2812 56.2406 93.7148 57.8116 91.7901 57.8116C89.8653 57.8116 88.2944 56.2453 88.2944 54.3159ZM34.8329 69.1748H21.563V61.7159C21.563 60.6218 22.4528 59.732 23.5379 59.732H32.8537C33.9432 59.732 34.8331 60.6218 34.8331 61.7159L34.8329 69.1748ZM24.6953 54.3159C24.6953 52.3909 26.2617 50.8248 28.1864 50.8248C30.1112 50.8248 31.6822 52.3911 31.6822 54.3159C31.6822 56.2406 30.1158 57.8116 28.1864 57.8116C26.257 57.8116 24.6953 56.2453 24.6953 54.3159ZM36.7623 70.1372V61.7157C36.7623 59.5639 35.0054 57.8114 32.8535 57.8114H32.3223C33.1213 56.8671 33.6071 55.646 33.6071 54.3157C33.6071 51.3329 31.1737 48.8997 28.1864 48.8997C25.1992 48.8997 22.7704 51.3331 22.7704 54.3157C22.7704 55.6458 23.2562 56.8671 24.0507 57.8114H23.5377C21.3948 57.8114 19.6426 59.5639 19.6426 61.7157V70.1372C19.6426 70.6684 20.0647 71.0996 20.6005 71.0996H35.7955C36.3221 71.0996 36.7623 70.6683 36.7623 70.1372ZM89.007 76.7472C86.1151 81.7501 81.9611 85.9405 76.9856 88.8731C71.8556 91.8967 65.9856 93.4947 60.002 93.4947C54.0184 93.4947 48.1393 91.8967 43.0183 88.8777C38.6872 86.3263 34.9737 82.8169 32.1817 78.654L31.0241 82.9713C30.906 83.4026 30.5156 83.684 30.0934 83.684C30.0071 83.684 29.9301 83.6704 29.8437 83.6523C29.3307 83.5115 29.0266 82.9849 29.1672 82.472L30.8878 76.0254L30.8969 76.0162C31.0331 75.5032 31.5598 75.1991 32.0773 75.3397L38.5239 77.0694C39.0413 77.2055 39.341 77.7323 39.2093 78.2453C39.0686 78.7583 38.5465 79.0624 38.029 78.9263L33.9431 77.8276C39.7995 86.3625 49.5739 91.5743 60.002 91.5743C71.2336 91.5743 81.7116 85.5226 87.3501 75.7846C87.6134 75.3261 88.2035 75.1672 88.6621 75.435C89.1206 75.6983 89.275 76.2885 89.007 76.747V76.7472ZM30.9333 43.3386C33.8161 38.3129 37.9792 34.1 42.9684 31.1491C48.1075 28.1119 53.9958 26.5049 60.002 26.5049C66.0081 26.5049 71.8556 28.1029 76.9764 31.1219C81.312 33.6733 85.0211 37.1827 87.8176 41.3456L88.9752 37.0283C89.116 36.5153 89.6381 36.2112 90.151 36.3473C90.6685 36.4881 90.9682 37.0147 90.8275 37.5276L89.107 43.9742L89.1025 43.9834V43.9925C89.0844 44.0289 89.0708 44.0697 89.0572 44.1061C89.0436 44.1288 89.0391 44.1514 89.0208 44.1741C89.0163 44.1969 89.0027 44.215 88.9891 44.2377C88.8166 44.5191 88.5078 44.6962 88.1765 44.6962C88.0902 44.6962 88.0085 44.6826 87.9223 44.6599L81.4666 42.9302C80.9581 42.7941 80.6539 42.2673 80.7901 41.7543C80.9308 41.2413 81.453 40.9372 81.9659 41.0733L86.0518 42.172C80.1954 33.6371 70.4256 28.4253 60.0021 28.4253C48.7205 28.4253 38.2289 34.5087 32.604 44.2966C32.4269 44.6054 32.1047 44.7779 31.7642 44.7779C31.6098 44.7779 31.4418 44.7371 31.292 44.6507C30.829 44.383 30.6701 43.7973 30.9334 43.3387L30.9333 43.3386ZM78.1342 59.0374H71.2472C71.1655 55.7641 70.6479 52.6272 69.7535 49.8577C70.9339 49.1723 72.0553 48.3596 73.0904 47.4243C76.0277 50.4751 77.9026 54.5428 78.1342 59.0373V59.0374ZM73.0904 72.5753C72.0553 71.6401 70.9339 70.8275 69.7535 70.1419C70.6479 67.3726 71.1655 64.2355 71.2472 60.9622H78.1342C77.9026 65.4566 76.0277 69.5245 73.0904 72.5753ZM41.8607 60.9623H48.7478C48.8341 64.2356 49.3471 67.3726 50.2459 70.142C49.061 70.8275 47.9441 71.6401 46.909 72.5754C43.9718 69.5246 42.0968 65.4568 41.8607 60.9623ZM46.909 47.4245C47.9441 48.3596 49.0609 49.1723 50.2459 49.8579C49.3469 52.6272 48.8339 55.7643 48.7478 59.0376H41.8607C42.0968 54.5431 43.9718 50.4755 46.909 47.4247V47.4245ZM68.1329 46.0217C67.4611 44.7733 66.7074 43.7018 65.8947 42.8211C68.033 43.5566 69.9851 44.678 71.6785 46.1035C70.8613 46.8298 69.9941 47.47 69.077 48.024C68.7865 47.3249 68.4688 46.6529 68.1328 46.0218L68.1329 46.0217ZM60.96 50.5206V41.9358C62.9938 42.3535 64.9051 44.0923 66.4396 46.9341C66.7756 47.5606 67.0889 48.228 67.3703 48.9316C65.3637 49.8577 63.1982 50.4024 60.96 50.5205V50.5206ZM60.96 59.0374V52.4456C63.4251 52.3275 65.8086 51.7465 68.0195 50.7476C68.7958 53.2535 69.2454 56.0774 69.3315 59.0374H60.96ZM60.96 67.5542V60.9623H69.3315C69.2452 63.9224 68.7958 66.7461 68.0195 69.2522C65.8086 68.2535 63.4251 67.6722 60.96 67.5542ZM66.4396 73.0657C64.9051 75.9076 62.9938 77.6465 60.96 78.064V69.4791C63.1982 69.5972 65.3637 70.142 67.3703 71.068C67.0887 71.7718 66.7756 72.4391 66.4396 73.0655V73.0657ZM69.0772 71.9761C69.9943 72.5299 70.8613 73.1701 71.6786 73.8966C69.9853 75.3221 68.0331 76.4434 65.8949 77.1788C66.7075 76.2981 67.4612 75.2267 68.1331 73.9782C68.4691 73.3426 68.7868 72.6754 69.0774 71.9761H69.0772ZM51.8667 73.9782C52.5385 75.2267 53.2922 76.2981 54.1048 77.1788C51.9666 76.4434 50.01 75.3219 48.312 73.8966C49.1291 73.1702 50.0053 72.5301 50.9224 71.9761C51.2129 72.6752 51.5307 73.3426 51.8667 73.9782ZM59.0351 69.4793V78.0641C57.0058 77.6465 55.09 75.9076 53.56 73.0658C53.224 72.4393 52.9107 71.7719 52.6293 71.0684C54.6268 70.1422 56.7969 69.5975 59.0351 69.4795V69.4793ZM59.0351 60.9625V67.5544C56.5745 67.6724 54.1865 68.2535 51.9802 69.2523C51.2039 66.7464 50.7454 63.9225 50.6682 60.9625H59.0351ZM59.0351 52.4457V59.0376H50.668C50.7452 56.0776 51.2038 53.2539 51.98 50.7477C54.1864 51.7465 56.5745 52.3277 59.0349 52.4457H59.0351ZM53.56 46.9343C55.09 44.0923 57.0058 42.3535 59.0351 41.9359V50.5208C56.7969 50.4028 54.6269 49.8579 52.6293 48.9319C52.9107 48.2282 53.224 47.5608 53.56 46.9344V46.9343ZM50.9224 48.0238C50.0053 47.47 49.1291 46.8298 48.312 46.1034C50.01 44.6778 51.9666 43.5566 54.1048 42.821C53.2922 43.7017 52.5385 44.7731 51.8667 46.0215C51.5307 46.6525 51.2129 47.3244 50.9224 48.0236V48.0238ZM73.7988 45.4043C73.7624 45.3726 73.7261 45.3407 73.6852 45.3135C70.0942 41.9676 65.282 39.9156 60.0021 39.9156C54.7222 39.9156 49.8964 41.9676 46.3144 45.3135C46.2735 45.3407 46.2372 45.3726 46.2008 45.4043C46.1872 45.4179 46.1736 45.436 46.16 45.4543C42.3148 49.1133 39.9131 54.2797 39.9131 60C39.9131 65.7203 42.3146 70.8866 46.16 74.5457C46.1736 74.5638 46.1872 74.5774 46.2008 74.5956C46.2372 74.6274 46.2735 74.6592 46.3144 74.6864C49.8963 78.0323 54.7086 80.0844 60.0021 80.0844C65.2956 80.0844 70.0942 78.0323 73.6852 74.6864C73.7261 74.6592 73.7624 74.6275 73.7988 74.5956C73.8124 74.5775 73.8169 74.5639 73.8305 74.5457C77.6848 70.8866 80.0819 65.7203 80.0819 60C80.0819 54.2797 77.6848 49.1133 73.8305 45.4543C73.8169 45.4362 73.8124 45.4179 73.7988 45.4043Z"/>
</mask>
<path d="M98.4364 69.1748H85.1619V61.7159C85.1619 60.6218 86.0517 59.732 87.1412 59.732H96.4526C97.5466 59.732 98.4364 60.6218 98.4364 61.7159V69.1748ZM100.357 70.2191V61.557C100.275 59.4777 98.5544 57.8116 96.4526 57.8116H95.926C96.7205 56.8673 97.2062 55.6461 97.2062 54.3159C97.2062 51.3331 94.7728 48.8999 91.7902 48.8999C88.8077 48.8999 86.3787 51.3333 86.3787 54.3159C86.3787 55.646 86.8554 56.8673 87.6544 57.8116H87.1414C84.994 57.8116 83.2371 59.564 83.2371 61.7159V70.1374C83.2371 70.6686 83.6684 71.0998 84.2041 71.0998H99.3945C99.8983 71.0998 100.316 70.7093 100.357 70.2191ZM88.2944 54.3159C88.2944 52.3909 89.8607 50.8248 91.7901 50.8248C93.7195 50.8248 95.2812 52.3911 95.2812 54.3159C95.2812 56.2406 93.7148 57.8116 91.7901 57.8116C89.8653 57.8116 88.2944 56.2453 88.2944 54.3159ZM34.8329 69.1748H21.563V61.7159C21.563 60.6218 22.4528 59.732 23.5379 59.732H32.8537C33.9432 59.732 34.8331 60.6218 34.8331 61.7159L34.8329 69.1748ZM24.6953 54.3159C24.6953 52.3909 26.2617 50.8248 28.1864 50.8248C30.1112 50.8248 31.6822 52.3911 31.6822 54.3159C31.6822 56.2406 30.1158 57.8116 28.1864 57.8116C26.257 57.8116 24.6953 56.2453 24.6953 54.3159ZM36.7623 70.1372V61.7157C36.7623 59.5639 35.0054 57.8114 32.8535 57.8114H32.3223C33.1213 56.8671 33.6071 55.646 33.6071 54.3157C33.6071 51.3329 31.1737 48.8997 28.1864 48.8997C25.1992 48.8997 22.7704 51.3331 22.7704 54.3157C22.7704 55.6458 23.2562 56.8671 24.0507 57.8114H23.5377C21.3948 57.8114 19.6426 59.5639 19.6426 61.7157V70.1372C19.6426 70.6684 20.0647 71.0996 20.6005 71.0996H35.7955C36.3221 71.0996 36.7623 70.6683 36.7623 70.1372ZM89.007 76.7472C86.1151 81.7501 81.9611 85.9405 76.9856 88.8731C71.8556 91.8967 65.9856 93.4947 60.002 93.4947C54.0184 93.4947 48.1393 91.8967 43.0183 88.8777C38.6872 86.3263 34.9737 82.8169 32.1817 78.654L31.0241 82.9713C30.906 83.4026 30.5156 83.684 30.0934 83.684C30.0071 83.684 29.9301 83.6704 29.8437 83.6523C29.3307 83.5115 29.0266 82.9849 29.1672 82.472L30.8878 76.0254L30.8969 76.0162C31.0331 75.5032 31.5598 75.1991 32.0773 75.3397L38.5239 77.0694C39.0413 77.2055 39.341 77.7323 39.2093 78.2453C39.0686 78.7583 38.5465 79.0624 38.029 78.9263L33.9431 77.8276C39.7995 86.3625 49.5739 91.5743 60.002 91.5743C71.2336 91.5743 81.7116 85.5226 87.3501 75.7846C87.6134 75.3261 88.2035 75.1672 88.6621 75.435C89.1206 75.6983 89.275 76.2885 89.007 76.747V76.7472ZM30.9333 43.3386C33.8161 38.3129 37.9792 34.1 42.9684 31.1491C48.1075 28.1119 53.9958 26.5049 60.002 26.5049C66.0081 26.5049 71.8556 28.1029 76.9764 31.1219C81.312 33.6733 85.0211 37.1827 87.8176 41.3456L88.9752 37.0283C89.116 36.5153 89.6381 36.2112 90.151 36.3473C90.6685 36.4881 90.9682 37.0147 90.8275 37.5276L89.107 43.9742L89.1025 43.9834V43.9925C89.0844 44.0289 89.0708 44.0697 89.0572 44.1061C89.0436 44.1288 89.0391 44.1514 89.0208 44.1741C89.0163 44.1969 89.0027 44.215 88.9891 44.2377C88.8166 44.5191 88.5078 44.6962 88.1765 44.6962C88.0902 44.6962 88.0085 44.6826 87.9223 44.6599L81.4666 42.9302C80.9581 42.7941 80.6539 42.2673 80.7901 41.7543C80.9308 41.2413 81.453 40.9372 81.9659 41.0733L86.0518 42.172C80.1954 33.6371 70.4256 28.4253 60.0021 28.4253C48.7205 28.4253 38.2289 34.5087 32.604 44.2966C32.4269 44.6054 32.1047 44.7779 31.7642 44.7779C31.6098 44.7779 31.4418 44.7371 31.292 44.6507C30.829 44.383 30.6701 43.7973 30.9334 43.3387L30.9333 43.3386ZM78.1342 59.0374H71.2472C71.1655 55.7641 70.6479 52.6272 69.7535 49.8577C70.9339 49.1723 72.0553 48.3596 73.0904 47.4243C76.0277 50.4751 77.9026 54.5428 78.1342 59.0373V59.0374ZM73.0904 72.5753C72.0553 71.6401 70.9339 70.8275 69.7535 70.1419C70.6479 67.3726 71.1655 64.2355 71.2472 60.9622H78.1342C77.9026 65.4566 76.0277 69.5245 73.0904 72.5753ZM41.8607 60.9623H48.7478C48.8341 64.2356 49.3471 67.3726 50.2459 70.142C49.061 70.8275 47.9441 71.6401 46.909 72.5754C43.9718 69.5246 42.0968 65.4568 41.8607 60.9623ZM46.909 47.4245C47.9441 48.3596 49.0609 49.1723 50.2459 49.8579C49.3469 52.6272 48.8339 55.7643 48.7478 59.0376H41.8607C42.0968 54.5431 43.9718 50.4755 46.909 47.4247V47.4245ZM68.1329 46.0217C67.4611 44.7733 66.7074 43.7018 65.8947 42.8211C68.033 43.5566 69.9851 44.678 71.6785 46.1035C70.8613 46.8298 69.9941 47.47 69.077 48.024C68.7865 47.3249 68.4688 46.6529 68.1328 46.0218L68.1329 46.0217ZM60.96 50.5206V41.9358C62.9938 42.3535 64.9051 44.0923 66.4396 46.9341C66.7756 47.5606 67.0889 48.228 67.3703 48.9316C65.3637 49.8577 63.1982 50.4024 60.96 50.5205V50.5206ZM60.96 59.0374V52.4456C63.4251 52.3275 65.8086 51.7465 68.0195 50.7476C68.7958 53.2535 69.2454 56.0774 69.3315 59.0374H60.96ZM60.96 67.5542V60.9623H69.3315C69.2452 63.9224 68.7958 66.7461 68.0195 69.2522C65.8086 68.2535 63.4251 67.6722 60.96 67.5542ZM66.4396 73.0657C64.9051 75.9076 62.9938 77.6465 60.96 78.064V69.4791C63.1982 69.5972 65.3637 70.142 67.3703 71.068C67.0887 71.7718 66.7756 72.4391 66.4396 73.0655V73.0657ZM69.0772 71.9761C69.9943 72.5299 70.8613 73.1701 71.6786 73.8966C69.9853 75.3221 68.0331 76.4434 65.8949 77.1788C66.7075 76.2981 67.4612 75.2267 68.1331 73.9782C68.4691 73.3426 68.7868 72.6754 69.0774 71.9761H69.0772ZM51.8667 73.9782C52.5385 75.2267 53.2922 76.2981 54.1048 77.1788C51.9666 76.4434 50.01 75.3219 48.312 73.8966C49.1291 73.1702 50.0053 72.5301 50.9224 71.9761C51.2129 72.6752 51.5307 73.3426 51.8667 73.9782ZM59.0351 69.4793V78.0641C57.0058 77.6465 55.09 75.9076 53.56 73.0658C53.224 72.4393 52.9107 71.7719 52.6293 71.0684C54.6268 70.1422 56.7969 69.5975 59.0351 69.4795V69.4793ZM59.0351 60.9625V67.5544C56.5745 67.6724 54.1865 68.2535 51.9802 69.2523C51.2039 66.7464 50.7454 63.9225 50.6682 60.9625H59.0351ZM59.0351 52.4457V59.0376H50.668C50.7452 56.0776 51.2038 53.2539 51.98 50.7477C54.1864 51.7465 56.5745 52.3277 59.0349 52.4457H59.0351ZM53.56 46.9343C55.09 44.0923 57.0058 42.3535 59.0351 41.9359V50.5208C56.7969 50.4028 54.6269 49.8579 52.6293 48.9319C52.9107 48.2282 53.224 47.5608 53.56 46.9344V46.9343ZM50.9224 48.0238C50.0053 47.47 49.1291 46.8298 48.312 46.1034C50.01 44.6778 51.9666 43.5566 54.1048 42.821C53.2922 43.7017 52.5385 44.7731 51.8667 46.0215C51.5307 46.6525 51.2129 47.3244 50.9224 48.0236V48.0238ZM73.7988 45.4043C73.7624 45.3726 73.7261 45.3407 73.6852 45.3135C70.0942 41.9676 65.282 39.9156 60.0021 39.9156C54.7222 39.9156 49.8964 41.9676 46.3144 45.3135C46.2735 45.3407 46.2372 45.3726 46.2008 45.4043C46.1872 45.4179 46.1736 45.436 46.16 45.4543C42.3148 49.1133 39.9131 54.2797 39.9131 60C39.9131 65.7203 42.3146 70.8866 46.16 74.5457C46.1736 74.5638 46.1872 74.5774 46.2008 74.5956C46.2372 74.6274 46.2735 74.6592 46.3144 74.6864C49.8963 78.0323 54.7086 80.0844 60.0021 80.0844C65.2956 80.0844 70.0942 78.0323 73.6852 74.6864C73.7261 74.6592 73.7624 74.6275 73.7988 74.5956C73.8124 74.5775 73.8169 74.5639 73.8305 74.5457C77.6848 70.8866 80.0819 65.7203 80.0819 60C80.0819 54.2797 77.6848 49.1133 73.8305 45.4543C73.8169 45.4362 73.8124 45.4179 73.7988 45.4043Z" fill="#111111"/>
<path d="M98.4364 69.1748H85.1619V61.7159C85.1619 60.6218 86.0517 59.732 87.1412 59.732H96.4526C97.5466 59.732 98.4364 60.6218 98.4364 61.7159V69.1748ZM100.357 70.2191V61.557C100.275 59.4777 98.5544 57.8116 96.4526 57.8116H95.926C96.7205 56.8673 97.2062 55.6461 97.2062 54.3159C97.2062 51.3331 94.7728 48.8999 91.7902 48.8999C88.8077 48.8999 86.3787 51.3333 86.3787 54.3159C86.3787 55.646 86.8554 56.8673 87.6544 57.8116H87.1414C84.994 57.8116 83.2371 59.564 83.2371 61.7159V70.1374C83.2371 70.6686 83.6684 71.0998 84.2041 71.0998H99.3945C99.8983 71.0998 100.316 70.7093 100.357 70.2191ZM88.2944 54.3159C88.2944 52.3909 89.8607 50.8248 91.7901 50.8248C93.7195 50.8248 95.2812 52.3911 95.2812 54.3159C95.2812 56.2406 93.7148 57.8116 91.7901 57.8116C89.8653 57.8116 88.2944 56.2453 88.2944 54.3159ZM34.8329 69.1748H21.563V61.7159C21.563 60.6218 22.4528 59.732 23.5379 59.732H32.8537C33.9432 59.732 34.8331 60.6218 34.8331 61.7159L34.8329 69.1748ZM24.6953 54.3159C24.6953 52.3909 26.2617 50.8248 28.1864 50.8248C30.1112 50.8248 31.6822 52.3911 31.6822 54.3159C31.6822 56.2406 30.1158 57.8116 28.1864 57.8116C26.257 57.8116 24.6953 56.2453 24.6953 54.3159ZM36.7623 70.1372V61.7157C36.7623 59.5639 35.0054 57.8114 32.8535 57.8114H32.3223C33.1213 56.8671 33.6071 55.646 33.6071 54.3157C33.6071 51.3329 31.1737 48.8997 28.1864 48.8997C25.1992 48.8997 22.7704 51.3331 22.7704 54.3157C22.7704 55.6458 23.2562 56.8671 24.0507 57.8114H23.5377C21.3948 57.8114 19.6426 59.5639 19.6426 61.7157V70.1372C19.6426 70.6684 20.0647 71.0996 20.6005 71.0996H35.7955C36.3221 71.0996 36.7623 70.6683 36.7623 70.1372ZM89.007 76.7472C86.1151 81.7501 81.9611 85.9405 76.9856 88.8731C71.8556 91.8967 65.9856 93.4947 60.002 93.4947C54.0184 93.4947 48.1393 91.8967 43.0183 88.8777C38.6872 86.3263 34.9737 82.8169 32.1817 78.654L31.0241 82.9713C30.906 83.4026 30.5156 83.684 30.0934 83.684C30.0071 83.684 29.9301 83.6704 29.8437 83.6523C29.3307 83.5115 29.0266 82.9849 29.1672 82.472L30.8878 76.0254L30.8969 76.0162C31.0331 75.5032 31.5598 75.1991 32.0773 75.3397L38.5239 77.0694C39.0413 77.2055 39.341 77.7323 39.2093 78.2453C39.0686 78.7583 38.5465 79.0624 38.029 78.9263L33.9431 77.8276C39.7995 86.3625 49.5739 91.5743 60.002 91.5743C71.2336 91.5743 81.7116 85.5226 87.3501 75.7846C87.6134 75.3261 88.2035 75.1672 88.6621 75.435C89.1206 75.6983 89.275 76.2885 89.007 76.747V76.7472ZM30.9333 43.3386C33.8161 38.3129 37.9792 34.1 42.9684 31.1491C48.1075 28.1119 53.9958 26.5049 60.002 26.5049C66.0081 26.5049 71.8556 28.1029 76.9764 31.1219C81.312 33.6733 85.0211 37.1827 87.8176 41.3456L88.9752 37.0283C89.116 36.5153 89.6381 36.2112 90.151 36.3473C90.6685 36.4881 90.9682 37.0147 90.8275 37.5276L89.107 43.9742L89.1025 43.9834V43.9925C89.0844 44.0289 89.0708 44.0697 89.0572 44.1061C89.0436 44.1288 89.0391 44.1514 89.0208 44.1741C89.0163 44.1969 89.0027 44.215 88.9891 44.2377C88.8166 44.5191 88.5078 44.6962 88.1765 44.6962C88.0902 44.6962 88.0085 44.6826 87.9223 44.6599L81.4666 42.9302C80.9581 42.7941 80.6539 42.2673 80.7901 41.7543C80.9308 41.2413 81.453 40.9372 81.9659 41.0733L86.0518 42.172C80.1954 33.6371 70.4256 28.4253 60.0021 28.4253C48.7205 28.4253 38.2289 34.5087 32.604 44.2966C32.4269 44.6054 32.1047 44.7779 31.7642 44.7779C31.6098 44.7779 31.4418 44.7371 31.292 44.6507C30.829 44.383 30.6701 43.7973 30.9334 43.3387L30.9333 43.3386ZM78.1342 59.0374H71.2472C71.1655 55.7641 70.6479 52.6272 69.7535 49.8577C70.9339 49.1723 72.0553 48.3596 73.0904 47.4243C76.0277 50.4751 77.9026 54.5428 78.1342 59.0373V59.0374ZM73.0904 72.5753C72.0553 71.6401 70.9339 70.8275 69.7535 70.1419C70.6479 67.3726 71.1655 64.2355 71.2472 60.9622H78.1342C77.9026 65.4566 76.0277 69.5245 73.0904 72.5753ZM41.8607 60.9623H48.7478C48.8341 64.2356 49.3471 67.3726 50.2459 70.142C49.061 70.8275 47.9441 71.6401 46.909 72.5754C43.9718 69.5246 42.0968 65.4568 41.8607 60.9623ZM46.909 47.4245C47.9441 48.3596 49.0609 49.1723 50.2459 49.8579C49.3469 52.6272 48.8339 55.7643 48.7478 59.0376H41.8607C42.0968 54.5431 43.9718 50.4755 46.909 47.4247V47.4245ZM68.1329 46.0217C67.4611 44.7733 66.7074 43.7018 65.8947 42.8211C68.033 43.5566 69.9851 44.678 71.6785 46.1035C70.8613 46.8298 69.9941 47.47 69.077 48.024C68.7865 47.3249 68.4688 46.6529 68.1328 46.0218L68.1329 46.0217ZM60.96 50.5206V41.9358C62.9938 42.3535 64.9051 44.0923 66.4396 46.9341C66.7756 47.5606 67.0889 48.228 67.3703 48.9316C65.3637 49.8577 63.1982 50.4024 60.96 50.5205V50.5206ZM60.96 59.0374V52.4456C63.4251 52.3275 65.8086 51.7465 68.0195 50.7476C68.7958 53.2535 69.2454 56.0774 69.3315 59.0374H60.96ZM60.96 67.5542V60.9623H69.3315C69.2452 63.9224 68.7958 66.7461 68.0195 69.2522C65.8086 68.2535 63.4251 67.6722 60.96 67.5542ZM66.4396 73.0657C64.9051 75.9076 62.9938 77.6465 60.96 78.064V69.4791C63.1982 69.5972 65.3637 70.142 67.3703 71.068C67.0887 71.7718 66.7756 72.4391 66.4396 73.0655V73.0657ZM69.0772 71.9761C69.9943 72.5299 70.8613 73.1701 71.6786 73.8966C69.9853 75.3221 68.0331 76.4434 65.8949 77.1788C66.7075 76.2981 67.4612 75.2267 68.1331 73.9782C68.4691 73.3426 68.7868 72.6754 69.0774 71.9761H69.0772ZM51.8667 73.9782C52.5385 75.2267 53.2922 76.2981 54.1048 77.1788C51.9666 76.4434 50.01 75.3219 48.312 73.8966C49.1291 73.1702 50.0053 72.5301 50.9224 71.9761C51.2129 72.6752 51.5307 73.3426 51.8667 73.9782ZM59.0351 69.4793V78.0641C57.0058 77.6465 55.09 75.9076 53.56 73.0658C53.224 72.4393 52.9107 71.7719 52.6293 71.0684C54.6268 70.1422 56.7969 69.5975 59.0351 69.4795V69.4793ZM59.0351 60.9625V67.5544C56.5745 67.6724 54.1865 68.2535 51.9802 69.2523C51.2039 66.7464 50.7454 63.9225 50.6682 60.9625H59.0351ZM59.0351 52.4457V59.0376H50.668C50.7452 56.0776 51.2038 53.2539 51.98 50.7477C54.1864 51.7465 56.5745 52.3277 59.0349 52.4457H59.0351ZM53.56 46.9343C55.09 44.0923 57.0058 42.3535 59.0351 41.9359V50.5208C56.7969 50.4028 54.6269 49.8579 52.6293 48.9319C52.9107 48.2282 53.224 47.5608 53.56 46.9344V46.9343ZM50.9224 48.0238C50.0053 47.47 49.1291 46.8298 48.312 46.1034C50.01 44.6778 51.9666 43.5566 54.1048 42.821C53.2922 43.7017 52.5385 44.7731 51.8667 46.0215C51.5307 46.6525 51.2129 47.3244 50.9224 48.0236V48.0238ZM73.7988 45.4043C73.7624 45.3726 73.7261 45.3407 73.6852 45.3135C70.0942 41.9676 65.282 39.9156 60.0021 39.9156C54.7222 39.9156 49.8964 41.9676 46.3144 45.3135C46.2735 45.3407 46.2372 45.3726 46.2008 45.4043C46.1872 45.4179 46.1736 45.436 46.16 45.4543C42.3148 49.1133 39.9131 54.2797 39.9131 60C39.9131 65.7203 42.3146 70.8866 46.16 74.5457C46.1736 74.5638 46.1872 74.5774 46.2008 74.5956C46.2372 74.6274 46.2735 74.6592 46.3144 74.6864C49.8963 78.0323 54.7086 80.0844 60.0021 80.0844C65.2956 80.0844 70.0942 78.0323 73.6852 74.6864C73.7261 74.6592 73.7624 74.6275 73.7988 74.5956C73.8124 74.5775 73.8169 74.5639 73.8305 74.5457C77.6848 70.8866 80.0819 65.7203 80.0819 60C80.0819 54.2797 77.6848 49.1133 73.8305 45.4543C73.8169 45.4362 73.8124 45.4179 73.7988 45.4043Z" stroke="#111111" stroke-width="0.41" mask="url(#path-13-outside-1_3_31044)"/>
</g>
<defs>
<clipPath id="clip0_3_31044">
<rect width="120" height="120" rx="60" fill="white"/>
</clipPath>
</defs>
</svg>
