<svg width="120" height="120" viewBox="0 0 120 120" fill="none" xmlns="http://www.w3.org/2000/svg">
<g clip-path="url(#clip0_3_31068)">
<rect width="120" height="120" rx="60" fill="#63DD1E"/>
<circle cx="48.75" cy="28.125" r="76.875" fill="#C3F63C"/>
<path d="M78.9641 76.2719C81.9375 71.3028 84.75 65.6879 84.75 62.2499C84.7517 59.6001 83.9688 57.0091 82.5 54.8035V27.3749C82.5 27.2081 82.463 27.0433 82.3915 26.8926C82.32 26.7418 82.2158 26.6089 82.0866 26.5033C81.9574 26.3978 81.8063 26.3223 81.6443 26.2824C81.4823 26.2425 81.3135 26.239 81.15 26.2724L58.902 30.7218L41.1472 26.2837C40.9401 26.2311 40.7221 26.2393 40.5195 26.3073L27.0195 30.8073C26.7954 30.8819 26.6005 31.0252 26.4624 31.2168C26.3242 31.4085 26.2499 31.6387 26.25 31.8749V72.3749C26.25 72.5503 26.291 72.7232 26.3697 72.8799C26.4484 73.0366 26.5626 73.1727 26.7033 73.2774C26.8439 73.3821 27.0071 73.4525 27.1798 73.4829C27.3525 73.5134 27.5299 73.503 27.6979 73.4527L49.8356 66.8152L60.531 70.828C61.4623 72.6817 62.4647 74.4988 63.5359 76.2753C54.4943 77.5162 48.75 80.7685 48.75 84.7499C48.75 90.5999 60.3431 93.7499 71.25 93.7499C82.1569 93.7499 93.75 90.5999 93.75 84.7499C93.75 80.7685 88.0057 77.5162 78.9641 76.2719ZM39.75 67.4879L28.5 70.8629V58.561L39.75 54.8114V67.4879ZM39.75 52.4388L28.5 56.1884V45.061L39.75 41.3114V52.4388ZM39.75 38.9388L28.5 42.6884V32.686L39.75 28.9353V38.9388ZM69 30.9974L80.25 28.7474V38.9388L69 42.6895V30.9974ZM69 45.0599L80.25 41.3103V52.2149C78.7503 50.8452 76.9558 49.8386 75.0051 49.2729C73.0544 48.7072 70.9998 48.5975 69 48.9524V45.0599ZM55.5 32.191L58.6027 32.9662C58.7641 33.007 58.9325 33.0109 59.0955 32.9774L66.75 31.4474V43.1249H55.5V32.191ZM55.5 45.3749H66.75V49.5374C65.0505 50.1431 63.4889 51.082 62.157 52.2991C60.825 53.5161 59.7494 54.9868 58.9931 56.6249H55.5V45.3749ZM53.25 65.689L50.271 64.5708C50.0403 64.485 49.7879 64.4767 49.5521 64.5472L42 66.8129V54.8114L53.25 58.561V65.689ZM53.25 56.1895L42 52.4388V41.3114L53.25 45.061V56.1895ZM53.25 42.6895L42 38.9388V28.8138L53.25 31.6263V42.6895ZM55.5 66.5395V58.8749H58.2C57.9074 59.9763 57.7561 61.1104 57.75 62.2499C57.8845 64.2145 58.3779 66.1377 59.2058 67.9244L55.5 66.5395ZM60 62.2499C60 59.2662 61.1853 56.4047 63.295 54.295C65.4048 52.1852 68.2663 50.9999 71.25 50.9999C74.2337 50.9999 77.0952 52.1852 79.205 54.295C81.3147 56.4047 82.5 59.2662 82.5 62.2499C82.5 67.1279 75.075 78.5827 71.25 83.9545C67.425 78.5838 60 67.1302 60 62.2499ZM71.25 91.4999C59.3171 91.4999 51 87.9427 51 84.7499C51 82.4155 55.8476 79.441 64.8263 78.3813C67.569 82.7587 70.1137 86.2304 70.3444 86.542C70.4489 86.6839 70.5854 86.7992 70.7427 86.8787C70.9 86.9582 71.0738 86.9996 71.25 86.9996C71.4262 86.9996 71.6 86.9582 71.7573 86.8787C71.9146 86.7992 72.0511 86.6839 72.1556 86.542C72.3806 86.2304 74.931 82.7587 77.6737 78.3813C86.6524 79.441 91.5 82.4155 91.5 84.7499C91.5 87.9427 83.1829 91.4999 71.25 91.4999Z" fill="#111111"/>
<path d="M78 61.125C78 59.79 77.6041 58.4849 76.8624 57.3749C76.1207 56.2649 75.0665 55.3997 73.8331 54.8888C72.5997 54.3779 71.2425 54.2443 69.9331 54.5047C68.6238 54.7652 67.421 55.408 66.477 56.352C65.533 57.296 64.8902 58.4988 64.6297 59.8081C64.3693 61.1175 64.5029 62.4747 65.0138 63.7081C65.5247 64.9415 66.3899 65.9957 67.4999 66.7374C68.6099 67.4791 69.915 67.875 71.25 67.875C73.0397 67.8732 74.7555 67.1615 76.021 65.896C77.2865 64.6305 77.9982 62.9147 78 61.125ZM66.75 61.125C66.75 60.235 67.0139 59.365 67.5084 58.6249C68.0029 57.8849 68.7057 57.3081 69.5279 56.9675C70.3502 56.627 71.255 56.5378 72.1279 56.7115C73.0008 56.8851 73.8026 57.3137 74.432 57.943C75.0613 58.5724 75.4899 59.3742 75.6635 60.2471C75.8372 61.12 75.7481 62.0248 75.4075 62.8471C75.0669 63.6693 74.4901 64.3721 73.7501 64.8666C73.01 65.3611 72.14 65.625 71.25 65.625C70.0565 65.625 68.9119 65.1509 68.068 64.307C67.2241 63.4631 66.75 62.3185 66.75 61.125Z" fill="#111111"/>
</g>
<defs>
<clipPath id="clip0_3_31068">
<rect width="120" height="120" rx="60" fill="white"/>
</clipPath>
</defs>
</svg>
