<svg width="120" height="120" viewBox="0 0 120 120" fill="none" xmlns="http://www.w3.org/2000/svg">
<g clip-path="url(#clip0_3_31098)">
<rect width="120" height="120" rx="60" fill="#63DD1E"/>
<circle cx="48.75" cy="28.125" r="76.875" fill="#C3F63C"/>
<g clip-path="url(#clip1_3_31098)">
<path d="M63.1052 92.9624C55.3877 92.9624 47.749 90.2624 41.7302 85.1661C41.269 84.7724 41.2127 84.0862 41.6065 83.6249C41.989 83.1637 42.6865 83.1074 43.1477 83.5012C51.4615 90.5436 62.5877 92.6699 72.904 89.1712C88.9015 83.7712 97.5865 66.3337 92.2652 50.3024C92.2315 50.1899 92.209 50.0774 92.209 49.9537C92.209 49.3462 92.6927 48.8624 93.3002 48.8624C93.8177 48.8624 94.2452 49.2112 94.3577 49.6949C100.005 66.8399 90.7127 85.4699 73.6015 91.2412C70.1815 92.3999 66.6265 92.9624 63.1052 92.9624ZM34.204 74.7037C33.7652 74.7037 33.3827 74.4562 33.2027 74.0737C32.6852 72.9712 32.224 71.8012 31.8077 70.5862C30.289 66.0749 29.7602 61.4062 30.244 56.7149C30.289 56.2199 30.3565 55.7024 30.4352 55.2074C32.2352 42.8887 40.6952 32.7637 52.474 28.7812C59.1452 26.5199 66.2102 26.4524 72.9152 28.5674C72.9602 28.5787 72.994 28.5899 73.0277 28.6012L73.4552 28.7362C79.024 30.5924 84.019 33.9224 87.8777 38.3437C88.2715 38.7937 88.2265 39.4912 87.7765 39.8849C87.3265 40.2787 86.629 40.2337 86.2352 39.7837C82.624 35.6549 77.9665 32.5499 72.7577 30.8062L72.6002 30.7499C72.5215 30.7274 72.454 30.7049 72.3752 30.6824C72.3527 30.6824 72.3415 30.6712 72.319 30.6712C66.0415 28.6799 59.4265 28.7362 53.1715 30.8512C42.169 34.5637 34.2715 44.0249 32.584 55.5337C32.5165 55.9949 32.449 56.4449 32.4152 56.9174C31.9652 61.3162 32.4602 65.6699 33.8777 69.8774C34.2602 70.9912 34.6877 72.0599 35.149 73.0724C35.239 73.2299 35.2952 73.4212 35.2952 73.6124C35.284 74.2087 34.8002 74.7037 34.204 74.7037Z" fill="#111111"/>
<path d="M72.3063 86.8202C72.0251 86.8202 71.7438 86.7865 71.4738 86.719C69.6851 86.2802 68.7513 84.5927 68.3351 83.569C66.1413 83.5015 64.3976 84.2777 63.3176 84.7615C62.6651 85.054 62.1026 85.3015 61.6076 85.2227C61.0788 85.3015 59.7738 85.5152 59.5488 85.5602C59.3126 85.6165 59.0651 85.594 58.8401 85.4927C58.3788 85.2902 58.1651 84.8852 58.2101 84.2777C58.3338 82.2077 58.2776 81.3302 58.2213 80.9927C58.0638 80.8465 57.9513 80.644 57.9063 80.4077C57.7938 79.8115 58.1763 79.249 58.7726 79.1252C59.1438 79.0577 59.5263 79.159 59.8188 79.4065C60.2351 79.7665 60.5501 80.3065 60.4488 83.1527C60.9213 83.074 61.4163 83.0177 61.7763 83.029C61.9113 82.984 62.1926 82.8602 62.4288 82.7477C63.7338 82.1627 66.1638 81.0715 69.2688 81.4202C69.7188 81.4765 70.0901 81.7915 70.2026 82.2302C70.3488 82.759 70.9901 84.3227 72.0138 84.5702C72.8913 84.784 74.1738 84.0302 75.6026 82.4552C75.6926 82.354 75.8051 82.264 75.9401 82.2077C76.4238 81.9715 76.4801 81.7127 76.4238 81.3865C76.1876 80.0477 73.4313 77.314 67.8401 76.7402C67.2438 76.684 66.8051 76.144 66.8613 75.5477C66.9288 74.9515 67.4576 74.5127 68.0538 74.569C74.2638 75.199 78.1001 78.3602 78.5613 81.004C78.7863 82.2865 78.2351 83.4227 77.0763 84.064C75.3776 85.909 73.7801 86.8202 72.3063 86.8202ZM61.7988 83.0627C61.9113 83.074 62.0126 83.0852 62.1026 83.1077C61.9901 83.074 61.8776 83.0627 61.7988 83.0627ZM65.0501 65.9402C64.9488 65.9402 64.8476 65.929 64.7463 65.8952C64.1613 65.7265 63.8351 65.1302 63.9926 64.5452C64.3076 63.4427 64.6226 62.7002 64.6451 62.6665C65.1626 61.0915 64.9601 59.5277 64.6451 58.3802C64.0938 58.9427 63.4751 59.3252 62.7888 59.5052C62.1588 59.674 61.5851 59.6515 61.0901 59.5615C60.5838 61.249 59.3013 63.1615 57.8388 64.2415C56.4438 65.2652 55.3413 65.1865 54.6663 64.9277C54.5088 64.8715 54.3738 64.7815 54.2501 64.6577C52.3826 62.6777 50.6613 58.3915 50.5826 58.2115C50.4138 57.784 50.5263 57.3002 50.8638 56.9965C51.7751 56.1865 51.6513 55.0277 51.4601 54.319C49.9976 54.1727 49.0413 53.149 48.6701 52.4627C48.5238 52.1815 48.5013 51.844 48.6138 51.5515C48.8163 51.034 48.8951 50.2127 48.9176 49.5265C47.9838 49.414 46.9376 48.9527 46.3751 47.7377C46.2626 47.5015 46.2513 47.2427 46.3188 46.9952C46.3188 46.9952 46.5888 45.9377 46.1388 44.734C45.3626 42.5965 48.4001 39.7615 49.3451 38.9402C53.4288 35.9027 56.4326 37.2865 58.4126 38.209C58.7726 38.3777 59.1101 38.5352 59.4363 38.659C61.1238 37.3315 61.0563 36.3752 60.9888 35.4527C60.9438 34.7665 60.8876 33.9115 61.5513 33.1915C62.4401 32.2352 64.2401 31.909 68.6726 31.8977C68.7288 31.8977 68.7851 31.8977 68.8413 31.909C69.2576 31.9765 72.9251 32.6065 74.2638 34.8002C74.6688 35.464 74.8151 36.1952 74.7251 36.9715C75.5351 37.6802 76.3451 38.5465 76.5363 39.2777C76.6938 39.784 77.2563 41.8202 76.0526 43.0015C75.2988 43.7327 74.1513 43.879 72.6438 43.4177C72.1601 43.6315 71.0913 44.239 70.5851 45.7465C71.1138 45.8365 71.6988 46.0502 72.1938 46.5002C72.6888 46.9502 73.2401 47.8052 73.1276 49.3127C73.2401 49.9765 73.6676 51.5627 74.5563 52.0127C75.0176 52.2377 75.6476 52.1365 76.4238 51.709C77.5151 51.1127 78.8651 50.7865 80.3276 50.7527L80.3613 52.9352H80.3501C79.2588 52.9577 78.2463 53.2052 77.4588 53.6215C75.6588 54.6115 74.3426 54.3527 73.5551 53.9477C71.4288 52.8677 70.9788 49.819 70.9338 49.4815C70.9226 49.4027 70.9226 49.3127 70.9338 49.234C70.9788 48.8515 70.9676 48.3565 70.7201 48.1202C70.4163 47.839 69.7301 47.8502 69.4488 47.9065C69.1001 47.9627 68.7626 47.8615 68.5038 47.6365C68.2563 47.4002 68.1213 47.0627 68.1551 46.7252C68.6163 42.1802 72.2163 41.2465 72.3626 41.2127C72.5651 41.1677 72.7901 41.1677 72.9926 41.2465C74.0501 41.6177 74.4663 41.5052 74.5226 41.4602C74.6801 41.3027 74.6463 40.5152 74.4551 39.9415C74.4438 39.8965 74.4326 39.8515 74.4213 39.8065C74.3201 39.6265 73.5551 38.839 72.8238 38.2427C72.4751 37.9502 72.3401 37.4777 72.4751 37.0502C72.6213 36.6227 72.5988 36.2852 72.3963 35.959C71.7326 34.8565 69.4488 34.249 68.5826 34.1027C64.1388 34.1252 63.2951 34.5302 63.1376 34.699C63.1151 34.7665 63.1376 35.104 63.1488 35.3177C63.2276 36.5327 63.3738 38.5802 60.2463 40.7852C59.9876 40.9652 59.6613 41.0327 59.3463 40.954C58.7163 40.7965 58.1088 40.5152 57.4788 40.2227C55.5213 39.3115 53.6763 38.4565 50.6951 40.684C49.3563 41.8427 48.0738 43.5302 48.1751 44.0252C48.6588 45.3077 48.6026 46.4665 48.5126 47.1077C48.9401 47.569 49.7276 47.3777 49.7388 47.3777C50.0538 47.299 50.3913 47.3665 50.6501 47.5577C50.9088 47.749 51.0776 48.0527 51.0888 48.379C51.1001 48.604 51.1788 50.359 50.8301 51.7765C51.0663 52.0127 51.4601 52.2602 52.0451 52.1815C52.5063 52.1027 52.9676 52.3502 53.1813 52.7665C53.7326 53.869 54.2838 56.2427 52.8663 58.0765C53.3613 59.2127 54.4751 61.6202 55.6113 62.959C55.8476 62.9477 56.1851 62.8015 56.5451 62.5315C57.9851 61.474 59.1888 59.2127 59.1326 58.1665C59.1101 57.7502 59.3238 57.3565 59.6951 57.154C60.0663 56.9515 60.5051 56.974 60.8426 57.2102C60.8426 57.2102 61.5176 57.6377 62.2376 57.4352C63.0138 57.2215 63.5763 56.3327 63.9026 55.6352C64.0713 55.264 64.4426 55.0277 64.8476 55.0052C65.2751 54.9827 65.6351 55.1965 65.8376 55.5565C65.9276 55.714 68.0201 59.4377 66.6813 63.4877C66.6476 63.589 66.3663 64.2415 66.0963 65.1865C65.9613 65.6252 65.5226 65.9402 65.0501 65.9402ZM41.0313 75.1315C40.7051 75.1315 40.3788 74.9852 40.1651 74.704C39.8388 74.2765 38.8376 72.949 38.4663 72.7465C36.9026 71.8802 35.5188 67.2902 34.8326 64.6352C34.8101 64.534 34.7988 64.4215 34.7988 64.3202C34.9451 60.754 38.9051 58.9202 39.0738 58.8415C39.4001 58.6952 39.7826 58.7177 40.0976 58.8977C40.4013 59.089 40.6038 59.4152 40.6151 59.7752C40.6376 60.1352 41.7288 60.709 42.8538 60.9565C43.9676 60.799 45.7676 61.1027 46.5776 62.329C46.9601 62.914 47.4101 64.174 46.0601 66.0077C45.6776 66.5365 45.5313 67.0202 45.6326 67.4815C45.8013 68.3027 46.7013 68.9777 47.0276 69.169C47.1963 69.2702 47.3538 69.4165 47.4438 69.5965C47.8713 70.384 48.5913 71.3402 49.0076 71.5202C49.5588 71.7565 49.8176 72.3977 49.5701 72.9602C49.3338 73.5115 48.6926 73.7702 48.1301 73.5227C47.0051 73.0277 46.0376 71.5427 45.6551 70.879C45.0813 70.4852 43.8213 69.484 43.4951 67.9315C43.3376 67.1777 43.3376 66.0077 44.2938 64.7027C44.7438 64.084 44.8451 63.6565 44.7551 63.5102C44.5526 63.1952 43.6526 62.9815 43.0901 63.1052C42.9438 63.139 42.7976 63.139 42.6513 63.1165C42.1451 63.0265 40.0863 62.5765 39.0513 61.3502C38.2188 61.924 37.1276 62.914 37.0038 64.2302C37.8138 67.3465 38.9951 70.4065 39.5576 70.8227C40.1876 71.1715 40.8738 71.9815 41.9201 73.354C42.2801 73.8377 42.1901 74.5127 41.7176 74.884C41.4926 75.0527 41.2676 75.1315 41.0313 75.1315Z" fill="#111111"/>
<path d="M41.1218 85.4585C32.4593 85.4585 28.2405 81.7348 26.238 78.6185C22.143 72.2623 23.6955 63.7685 30.6255 54.701C30.9968 54.2173 31.6718 54.1273 32.1555 54.4985C32.6393 54.8585 32.7293 55.5448 32.358 56.0285C28.7018 60.8323 23.268 69.9898 28.0718 77.4373C29.7818 80.1035 33.438 83.276 41.1218 83.276C41.538 83.276 41.943 83.2648 42.3705 83.2423C50.5605 82.8935 60.7868 79.1135 70.4393 72.8473C78.5055 67.616 85.233 61.2373 89.3843 54.8923C90.5768 53.0698 91.5443 51.2698 92.2643 49.526C95.0093 42.8998 93.6255 38.4673 91.983 35.9248C90.273 33.2698 86.6168 30.0973 78.933 30.0973C76.9868 30.0973 74.9393 30.2998 72.8355 30.6935C72.2393 30.806 71.6768 30.4123 71.5643 29.816C71.4518 29.2198 71.8455 28.6573 72.4418 28.5448C74.6805 28.1285 76.863 27.9148 78.9443 27.9148C87.618 27.9148 91.8255 31.6273 93.828 34.7435C95.403 37.1848 97.5518 42.4723 94.2893 50.3585C93.5243 52.226 92.4893 54.1498 91.218 56.0848C86.9093 62.6773 79.9455 69.281 71.6318 74.6698C61.6643 81.1273 51.033 85.0423 42.4718 85.4135C42.0218 85.4473 41.5718 85.4585 41.1218 85.4585Z" fill="#111111"/>
<path d="M38.7397 75.2546C36.9734 75.2546 35.3534 75.0633 33.9022 74.6583C31.3934 73.9608 29.5259 72.6783 28.3447 70.8671C26.0497 67.3008 26.7809 62.1033 30.3922 56.2421C30.7072 55.7246 31.3822 55.5671 31.8884 55.8821C32.4059 56.1971 32.5634 56.8721 32.2484 57.3783C29.0984 62.4858 28.3672 66.8508 30.1784 69.6746C31.0559 71.0246 32.5072 71.9921 34.4872 72.5433C41.4959 74.4671 53.8147 70.8333 65.1547 63.4758C76.6297 56.0283 84.9997 46.1508 85.9784 38.9058C86.2484 36.9596 85.9447 35.3171 85.1009 34.0008C83.3122 31.2221 79.1047 30.1083 73.2434 30.8396C72.6472 30.9183 72.0959 30.4908 72.0284 29.8946C71.9609 29.3096 72.3772 28.7696 72.9734 28.6908C79.7122 27.8358 84.6734 29.3096 86.9347 32.8308C88.0709 34.5971 88.4759 36.7458 88.1384 39.2096C87.0584 47.1746 78.5084 57.4233 66.3359 65.3208C56.5934 71.6433 46.3672 75.2546 38.7397 75.2546Z" fill="#111111"/>
</g>
</g>
<defs>
<clipPath id="clip0_3_31098">
<rect width="120" height="120" rx="60" fill="white"/>
</clipPath>
<clipPath id="clip1_3_31098">
<rect width="72" height="72" fill="white" transform="translate(24 24)"/>
</clipPath>
</defs>
</svg>
