<svg width="64" height="64" viewBox="0 0 64 64" fill="none" xmlns="http://www.w3.org/2000/svg">
<g clip-path="url(#clip0_3_30429)">
<rect width="64" height="64" rx="32" fill="#63DD1E"/>
<circle cx="26" cy="15" r="41" fill="#C3F63C"/>
<path d="M41.3337 28C41.3337 29.9334 40.7603 31.7067 39.7737 33.1867C38.3337 35.32 36.0537 36.8267 33.4003 37.2134C32.947 37.2934 32.4803 37.3334 32.0003 37.3334C31.5203 37.3334 31.0537 37.2934 30.6003 37.2134C27.947 36.8267 25.667 35.32 24.227 33.1867C23.2403 31.7067 22.667 29.9334 22.667 28C22.667 22.84 26.8403 18.6667 32.0003 18.6667C37.1603 18.6667 41.3337 22.84 41.3337 28Z" stroke="#292D32" stroke-width="2" stroke-linecap="round" stroke-linejoin="round"/>
<path d="M44.3338 40.6267L42.1338 41.1467C41.6404 41.2667 41.2538 41.64 41.1471 42.1334L40.6804 44.0934C40.4271 45.16 39.0671 45.48 38.3604 44.64L32.0004 37.3334L25.6404 44.6533C24.9338 45.4933 23.5738 45.1733 23.3204 44.1067L22.8538 42.1467C22.7338 41.6533 22.3471 41.2667 21.8671 41.16L19.6671 40.64C18.6538 40.4 18.2938 39.1333 19.0271 38.4L24.2271 33.2C25.6671 35.3333 27.9471 36.84 30.6004 37.2267C31.0538 37.3067 31.5204 37.3467 32.0004 37.3467C32.4804 37.3467 32.9471 37.3067 33.4004 37.2267C36.0538 36.84 38.3338 35.3333 39.7738 33.2L44.9738 38.4C45.7071 39.12 45.3471 40.3867 44.3338 40.6267Z" stroke="#292D32" stroke-width="2" stroke-linecap="round" stroke-linejoin="round"/>
<path d="M32.7736 23.9733L33.5603 25.5466C33.667 25.76 33.947 25.9733 34.2003 26.0133L35.627 26.2533C36.5336 26.4 36.747 27.0666 36.0936 27.72L34.987 28.8266C34.8003 29.0133 34.6936 29.3733 34.7603 29.64L35.0803 31.0133C35.3336 32.0933 34.7603 32.52 33.8003 31.9466L32.467 31.16C32.227 31.0133 31.827 31.0133 31.587 31.16L30.2536 31.9466C29.2936 32.5066 28.7203 32.0933 28.9736 31.0133L29.2936 29.64C29.347 29.3866 29.2536 29.0133 29.067 28.8266L27.9603 27.72C27.307 27.0666 27.5203 26.4133 28.427 26.2533L29.8536 26.0133C30.0936 25.9733 30.3736 25.76 30.4803 25.5466L31.267 23.9733C31.6536 23.12 32.347 23.12 32.7736 23.9733Z" stroke="#292D32" stroke-width="2" stroke-linecap="round" stroke-linejoin="round"/>
</g>
<defs>
<clipPath id="clip0_3_30429">
<rect width="64" height="64" rx="32" fill="white"/>
</clipPath>
</defs>
</svg>
