<?xml version="1.0" encoding="UTF-8"?>
<svg version="1.1" xmlns="http://www.w3.org/2000/svg" width="512" height="512">
<path d="M0 0 C1.01790619 0.00215515 2.03581238 0.0043103 3.08456421 0.00653076 C17.69363523 0.05620146 32.02575853 0.30709809 46.375 3.3125 C47.34985352 3.51117676 48.32470703 3.70985352 49.32910156 3.91455078 C97.7109774 14.03517194 141.69928269 35.9516877 177.375 70.3125 C178.3640332 71.26068604 178.3640332 71.26068604 179.37304688 72.22802734 C188.86130305 81.37247479 197.6012044 90.66984009 205.375 101.3125 C206.23306152 102.46355017 207.09113451 103.61459177 207.94921875 104.765625 C213.98736829 112.95680614 219.34595521 121.47054105 224.375 130.3125 C224.73948242 130.94430176 225.10396484 131.57610352 225.47949219 132.22705078 C247.08534998 169.97532572 256.85198095 212.74189997 256.6875 255.9375 C256.68534485 256.95540619 256.6831897 257.97331238 256.68096924 259.02206421 C256.63129854 273.63113523 256.38040191 287.96325853 253.375 302.3125 C253.07698486 303.77478027 253.07698486 303.77478027 252.77294922 305.26660156 C242.65232806 353.6484774 220.7358123 397.63678269 186.375 433.3125 C185.74287598 433.97185547 185.11075195 434.63121094 184.45947266 435.31054688 C175.31502521 444.79880305 166.01765991 453.5387044 155.375 461.3125 C154.22394983 462.17056152 153.07290823 463.02863451 151.921875 463.88671875 C143.73224019 469.92427396 135.22961724 475.30707302 126.375 480.3125 C125.66778809 480.7146875 124.96057617 481.116875 124.23193359 481.53125 C101.09654164 494.5566741 75.92537591 503.30551461 49.9375 508.625 C49.21860596 508.77235596 48.49971191 508.91971191 47.7590332 509.0715332 C33.08339502 511.86090125 18.55831162 512.66142619 3.64770508 512.62817383 C0.70811513 512.6250221 -2.2304558 512.64854926 -5.16992188 512.67382812 C-18.54306192 512.71848737 -31.43916711 511.51301542 -44.625 509.3125 C-46.33055054 509.03031616 -46.33055054 509.03031616 -48.07055664 508.74243164 C-91.33802759 500.97044532 -132.38793216 480.98345309 -165.625 452.3125 C-166.37007813 451.67828125 -167.11515625 451.0440625 -167.8828125 450.390625 C-181.38779833 438.57948485 -194.05918743 425.82889772 -204.625 411.3125 C-205.48149066 410.16255169 -206.33826433 409.01281411 -207.1953125 407.86328125 C-213.23534209 399.67315742 -218.61867614 391.16870382 -223.625 382.3125 C-224.0271875 381.60528809 -224.429375 380.89807617 -224.84375 380.16943359 C-237.8691741 357.03404164 -246.61801461 331.86287591 -251.9375 305.875 C-252.08485596 305.15610596 -252.23221191 304.43721191 -252.3840332 303.6965332 C-255.35789088 288.05024391 -255.99800362 272.57681954 -255.9375 256.6875 C-255.93534485 255.66959381 -255.9331897 254.65168762 -255.93096924 253.60293579 C-255.88129854 238.99386477 -255.63040191 224.66174147 -252.625 210.3125 C-252.42632324 209.33764648 -252.22764648 208.36279297 -252.02294922 207.35839844 C-241.90232806 158.9765226 -219.9858123 114.98821731 -185.625 79.3125 C-184.99287598 78.65314453 -184.36075195 77.99378906 -183.70947266 77.31445312 C-174.56502521 67.82619695 -165.26765991 59.0862956 -154.625 51.3125 C-153.47394983 50.45443848 -152.32290823 49.59636549 -151.171875 48.73828125 C-142.98224019 42.70072604 -134.47961724 37.31792698 -125.625 32.3125 C-124.91778809 31.9103125 -124.21057617 31.508125 -123.48193359 31.09375 C-100.34654164 18.0683259 -75.17537591 9.31948539 -49.1875 4 C-48.46860596 3.85264404 -47.74971191 3.70528809 -47.0090332 3.5534668 C-31.36274391 0.57960912 -15.88931954 -0.06050362 0 0 Z " fill="#D70027" transform="translate(255.625,-0.3125)"/>
<path d="M0 0 C0.66 0 1.32 0 2 0 C17.2050025 46.51675278 17.2050025 46.51675278 23.99743652 67.43301392 C24.49196572 68.95556623 24.98682866 70.4780102 25.48205566 72.00033569 C28.06102055 79.92968877 30.60199047 87.86722604 33.01660156 95.84863281 C34.28635907 99.91765713 35.65206665 103.95619996 37 108 C74.95 108.33 112.9 108.66 152 109 C148.75387099 112.24612901 145.60100228 114.84263402 141.875 117.4375 C140.61552157 118.32630756 139.35642559 119.21565724 138.09765625 120.10546875 C137.43137207 120.5751709 136.76508789 121.04487305 136.07861328 121.52880859 C132.47381251 124.08019801 128.89270217 126.66425503 125.3125 129.25 C124.18545654 130.06355957 124.18545654 130.06355957 123.03564453 130.89355469 C117.41563036 134.95818812 111.82821971 139.06575939 106.25 143.1875 C99.7507868 147.98952903 93.21544183 152.73278685 86.62890625 157.4140625 C82.19544027 160.56702812 77.78535093 163.7523201 73.375 166.9375 C72.60406006 167.49381104 71.83312012 168.05012207 71.03881836 168.62329102 C70.31186768 169.14850342 69.58491699 169.67371582 68.8359375 170.21484375 C67.86986572 170.91275024 67.86986572 170.91275024 66.88427734 171.62475586 C65.5302381 172.61300451 64.19959846 173.63361272 62.88525391 174.67407227 C61 176 61 176 59 176 C59.31227539 176.93158936 59.62455078 177.86317871 59.94628906 178.82299805 C61.12578867 182.34313345 62.30317263 185.86397367 63.47998047 189.38500977 C63.98560571 190.8969158 64.49177332 192.40864057 64.99853516 193.92016602 C65.73489537 196.11685246 66.46917587 198.3142257 67.203125 200.51171875 C67.42309143 201.16645676 67.64305786 201.82119476 67.86968994 202.49577332 C69.26697789 206.68715727 70.58625566 210.89762883 71.87475586 215.1237793 C73.87125971 221.64261115 75.99706889 228.11359911 78.15740395 234.57974625 C79.28022722 237.94461109 80.39418897 241.31241475 81.50976562 244.6796875 C82.91840577 248.93001775 84.32972527 253.17940446 85.75024414 257.42578125 C86.91023899 260.89414103 88.06154212 264.36527721 89.2069912 267.83846664 C89.6427823 269.15445611 90.08178628 270.4693862 90.52407265 271.78320694 C91.13796853 273.60809378 91.73981613 275.43702045 92.34106445 277.26611328 C92.6865181 278.30389923 93.03197174 279.34168518 93.38789368 280.41091919 C94 283 94 283 93 286 C83.07377176 278.93035513 73.18481511 271.81026975 63.31005859 264.66894531 C61.04819171 263.03481701 58.78423692 261.4036287 56.51953125 259.7734375 C48.02031444 253.65239918 39.5619479 247.48002518 31.13867188 241.25488281 C24.71966416 236.5162853 18.26139815 231.83383409 11.78515625 227.17382812 C8.50147201 224.81066199 5.22158806 222.44773401 2 220 C-0.64398662 221.26575751 -3.04867577 222.63675287 -5.44140625 224.328125 C-6.09778076 224.79105957 -6.75415527 225.25399414 -7.43041992 225.73095703 C-8.13400635 226.23224121 -8.83759277 226.73352539 -9.5625 227.25 C-10.30411377 227.77577637 -11.04572754 228.30155273 -11.80981445 228.84326172 C-18.30079984 233.46332001 -24.71504677 238.1851453 -31.11914062 242.92456055 C-36.84799392 247.1620617 -42.62272902 251.32760139 -48.4296875 255.45703125 C-52.52744649 258.37163447 -56.6091902 261.30826114 -60.6875 264.25 C-61.43209473 264.78665283 -62.17668945 265.32330566 -62.94384766 265.8762207 C-67.07181367 268.85889834 -71.17880124 271.86740676 -75.265625 274.90625 C-76.12969971 275.54788086 -76.99377441 276.18951172 -77.8840332 276.85058594 C-79.55708126 278.09509439 -81.22759321 279.34302119 -82.89526367 280.59472656 C-83.6504126 281.15643555 -84.40556152 281.71814453 -85.18359375 282.296875 C-85.84931396 282.79541992 -86.51503418 283.29396484 -87.20092773 283.80761719 C-89 285 -89 285 -92 286 C-90.49871629 278.52515627 -88.29013679 271.41388497 -85.88671875 264.18359375 C-85.26401506 262.29210016 -84.64131223 260.40060628 -84.01864719 258.50909996 C-83.36119047 256.51466836 -82.7016206 254.52094754 -82.04138184 252.5274353 C-80.67992732 248.41657399 -79.32420921 244.30383679 -77.96972656 240.19067383 C-77.51542142 238.81126073 -77.06110624 237.43185094 -76.60678101 236.05244446 C-76.38222607 235.37064936 -76.15767113 234.68885426 -75.92631149 233.9863987 C-75.24637412 231.92272594 -74.56585506 229.85924587 -73.88516235 227.79582214 C-69.97376538 215.93707796 -66.10216583 204.06560817 -62.25 192.1875 C-61.70273922 190.50121385 -61.15545807 188.81493431 -60.6081543 187.12866211 C-59.40452892 183.41940168 -58.20188293 179.70982537 -57 176 C-58.15290527 175.5656665 -58.15290527 175.5656665 -59.32910156 175.12255859 C-62.61506698 173.74149196 -64.96709807 171.85276346 -67.75 169.625 C-72.76794293 165.66918591 -77.8856141 161.90706585 -83.125 158.25 C-89.29223696 153.93663628 -95.38842384 149.54011457 -101.4375 145.0625 C-107.62126582 140.48609857 -113.82249543 135.93697928 -120.0625 131.4375 C-120.79017578 130.91244873 -121.51785156 130.38739746 -122.26757812 129.84643555 C-126.18131818 127.02489196 -130.10057349 124.21118688 -134.0234375 121.40234375 C-134.84577881 120.81203369 -135.66812012 120.22172363 -136.51538086 119.61352539 C-138.09261822 118.48143112 -139.67147797 117.35159265 -141.25219727 116.22436523 C-141.96174561 115.71462158 -142.67129395 115.20487793 -143.40234375 114.6796875 C-144.02616943 114.23351074 -144.64999512 113.78733398 -145.29272461 113.32763672 C-147 112 -147 112 -150 109 C-93.075 108.505 -93.075 108.505 -35 108 C-22.56015354 70.04221747 -22.56015354 70.04221747 -10.1875 32.0625 C-9.95373657 31.34333405 -9.71997314 30.62416809 -9.47912598 29.88320923 C-6.24923818 19.94366543 -3.09901902 9.98111589 0 0 Z " fill="#6EA343" transform="translate(255,101)"/>
<path d="M0 0 C13.2 0 26.4 0 40 0 C41.815 5.341875 43.63 10.68375 45.5 16.1875 C46.07427734 17.86481201 46.64855469 19.54212402 47.24023438 21.27026367 C47.6920049 22.61096379 48.14321439 23.95185314 48.59375 25.29296875 C48.95001465 26.32339294 48.95001465 26.32339294 49.31347656 27.37463379 C50.52296766 30.99983464 51.45971928 34.16900596 51 38 C49.3046875 39.88671875 49.3046875 39.88671875 46.875 41.6875 C45.51761719 42.70650391 45.51761719 42.70650391 44.1328125 43.74609375 C43.09898437 44.48988281 42.06515625 45.23367188 41 46 C39.80988478 46.86587022 38.61978103 47.73175621 37.4296875 48.59765625 C34.51197724 50.70669106 31.59179675 52.8110678 28.62695312 54.85351562 C27.01114153 55.99214876 25.45009115 57.20721544 23.890625 58.421875 C22.93671875 58.94265625 21.9828125 59.4634375 21 60 C17.38948598 58.93401431 14.6316257 57.19385108 11.63671875 54.953125 C10.83169922 54.355 10.02667969 53.756875 9.19726562 53.140625 C8.36904297 52.51671875 7.54082031 51.8928125 6.6875 51.25 C5.87087891 50.6415625 5.05425781 50.033125 4.21289062 49.40625 C1.80426794 47.6098589 -0.59853345 45.80594258 -3 44 C-4.53503768 42.84880021 -6.07018478 41.69774631 -7.60546875 40.546875 C-8.73701853 39.69796913 -9.86854502 38.84903221 -11 38 C-10.40757158 32.96861035 -9.31617098 28.34770609 -7.71484375 23.53515625 C-7.31128662 22.29386963 -6.90772949 21.05258301 -6.49194336 19.77368164 C-5.97897705 18.2189917 -5.46601074 16.66430176 -4.9375 15.0625 C-3.308125 10.091875 -1.67875 5.12125 0 0 Z " fill="#D60227" transform="translate(236,232)"/>
<path d="M0 0 C12.87 0 25.74 0 39 0 C39 0.66 39 1.32 39 2 C37.24136092 3.36409223 35.41296542 4.63833645 33.5625 5.875 C32.37938812 6.6719608 31.19714266 7.47020887 30.015625 8.26953125 C29.05366211 8.91849365 29.05366211 8.91849365 28.07226562 9.58056641 C25.8347436 11.11319518 23.62656329 12.68224748 21.421875 14.26171875 C20.65673584 14.80908691 19.89159668 15.35645508 19.10327148 15.92041016 C17.58758493 17.00689719 16.07403634 18.09637357 14.56274414 19.18896484 C13.86785889 19.68477051 13.17297363 20.18057617 12.45703125 20.69140625 C11.83803955 21.13685791 11.21904785 21.58230957 10.58129883 22.04125977 C9 23 9 23 7 23 C5.82569926 19.7318568 4.66188744 16.46007485 3.5 13.1875 C3.16613281 12.25873047 2.83226562 11.32996094 2.48828125 10.37304688 C2.17246094 9.48037109 1.85664063 8.58769531 1.53125 7.66796875 C1.09135742 6.43469849 1.09135742 6.43469849 0.64257812 5.17651367 C0 3 0 3 0 0 Z " fill="#D20828" transform="translate(299,232)"/>
<path d="M0 0 C12.87 0 25.74 0 39 0 C38.33007518 3.34962411 37.66670403 6.24102425 36.58984375 9.42578125 C36.18862305 10.61977539 36.18862305 10.61977539 35.77929688 11.83789062 C35.36260742 13.06282227 35.36260742 13.06282227 34.9375 14.3125 C34.65583984 15.14845703 34.37417969 15.98441406 34.08398438 16.84570312 C33.39204818 18.89805624 32.69639291 20.94915483 32 23 C28.46065777 21.71353076 25.6485039 20.20647899 22.63671875 17.953125 C21.83169922 17.355 21.02667969 16.756875 20.19726562 16.140625 C18.95493164 15.20476562 18.95493164 15.20476562 17.6875 14.25 C16.87087891 13.6415625 16.05425781 13.033125 15.21289062 12.40625 C13.59297678 11.19809115 11.97557374 9.98655767 10.36083984 8.77148438 C8.78359681 7.58798123 7.20052686 6.41220499 5.61181641 5.24414062 C4.8801123 4.70466797 4.1484082 4.16519531 3.39453125 3.609375 C2.7394458 3.12952148 2.08436035 2.64966797 1.40942383 2.15527344 C0.94431396 1.7740332 0.4792041 1.39279297 0 1 C0 0.67 0 0.34 0 0 Z " fill="#D30728" transform="translate(174,232)"/>
<path d="M0 0 C0.66 0 1.32 0 2 0 C3.57218899 4.78536926 5.13861184 9.57257245 6.69970703 14.36157227 C7.2316511 15.99067125 7.76517079 17.61925664 8.30029297 19.24731445 C9.06892478 21.58672165 9.83188251 23.92791374 10.59375 26.26953125 C10.83436157 26.99775589 11.07497314 27.72598053 11.32287598 28.47627258 C12.2806755 31.43575837 13 33.86800518 13 37 C5.08 37 -2.84 37 -11 37 C-9.76442577 31.43991597 -8.5780906 26.34699257 -6.8359375 20.99609375 C-6.43632812 19.76181641 -6.03671875 18.52753906 -5.625 17.25585938 C-5.20842412 15.9830432 -4.79175636 14.71025709 -4.375 13.4375 C-3.95014112 12.12968058 -3.52565909 10.82173868 -3.1015625 9.51367188 C-2.07139602 6.34122737 -1.03745343 3.17006745 0 0 Z " fill="#D40528" transform="translate(255,173)"/>
<path d="M0 0 C6.9929968 4.30036626 13.62626924 8.82232736 20 14 C16.82750167 17.39799454 13.30047511 20.04636806 9.5 22.6875 C3.6659052 26.78492685 -2.03086833 31.0238528 -7.671875 35.3828125 C-10 37 -10 37 -12 37 C-9.86484456 28.87743638 -7.44294412 20.87043042 -4.875 12.875 C-4.51535156 11.740625 -4.15570313 10.60625 -3.78515625 9.4375 C-3.44097656 8.36242187 -3.09679687 7.28734375 -2.7421875 6.1796875 C-2.27594971 4.72151611 -2.27594971 4.72151611 -1.80029297 3.23388672 C-1 1 -1 1 0 0 Z " fill="#D40528" transform="translate(217,292)"/>
<path d="M0 0 C2 1 2 1 3.23681641 4.20288086 C3.69972986 5.62094918 4.15404912 7.04184045 4.6015625 8.46484375 C4.8428891 9.21335098 5.0842157 9.96185822 5.33285522 10.73304749 C5.84232658 12.31820597 6.34813705 13.90454498 6.85058594 15.49194336 C7.62146446 17.92633495 8.40345957 20.35692877 9.1875 22.78710938 C9.68034508 24.3253103 10.17255401 25.86371522 10.6640625 27.40234375 C11.0155687 28.49771706 11.0155687 28.49771706 11.37417603 29.61521912 C13 34.76654668 13 34.76654668 13 37 C9.21436638 35.3010815 5.9653972 32.92743587 2.625 30.5 C1.385479 29.60668433 0.14589364 28.71345797 -1.09375 27.8203125 C-1.73183594 27.35915039 -2.36992187 26.89798828 -3.02734375 26.42285156 C-6.30123107 24.06143878 -9.58869794 21.71908745 -12.875 19.375 C-14.05995899 18.52873426 -15.24486074 17.68238837 -16.4296875 16.8359375 C-17.27789062 16.23007812 -18.12609375 15.62421875 -19 15 C-15.22180665 10.99063612 -11.20415407 7.82729557 -6.6875 4.6875 C-6.04232422 4.23310547 -5.39714844 3.77871094 -4.73242188 3.31054688 C-3.15802858 2.20264048 -1.57944354 1.10069475 0 0 Z " fill="#D40528" transform="translate(294,292)"/>
</svg>
